<?xml version="1.0" encoding="iso-8859-1"?>
<!-- Generator: Adobe Illustrator 23.0.4, SVG Export Plug-In . SVG Version: 6.00 Build 0)  -->
<svg version="1.1" id="Layer_1" xmlns="http://www.w3.org/2000/svg" xmlns:xlink="http://www.w3.org/1999/xlink" x="0px" y="0px"
	 viewBox="0 0 24 24" style="enable-background:new 0 0 24 24;" xml:space="preserve">
<path style="fill:none;stroke:#000000;stroke-miterlimit:10;" d="M23.222,13.385v-2.993c-1.529-0.544-2.494-0.696-2.981-1.869V8.522
	c-0.488-1.177,0.093-1.976,0.784-3.432L18.91,2.974c-1.445,0.687-2.253,1.273-3.432,0.784h-0.001
	c-1.175-0.487-1.329-1.459-1.869-2.981h-2.993C10.076,2.291,9.921,3.27,8.746,3.758H8.744C7.568,4.247,6.77,3.668,5.312,2.974
	L3.196,5.09c0.69,1.452,1.273,2.254,0.784,3.432C3.493,9.699,2.514,9.854,1,10.393v2.993c1.511,0.537,2.493,0.694,2.981,1.869
	c0.491,1.187-0.106,2.006-0.784,3.432l2.116,2.117c1.446-0.688,2.254-1.273,3.432-0.784h0.001c1.176,0.487,1.33,1.462,1.869,2.981
	h2.993c0.539-1.515,0.694-2.491,1.877-2.983h0.001c1.169-0.485,1.963,0.094,3.424,0.788l2.116-2.117
	c-0.689-1.447-1.273-2.253-0.785-3.431C20.728,14.08,21.71,13.923,23.222,13.385z M12.111,15.593c-2.045,0-3.704-1.658-3.704-3.704
	s1.658-3.704,3.704-3.704s3.704,1.658,3.704,3.704S14.156,15.593,12.111,15.593z"/>
</svg>
