<svg id="element_logonatura" xmlns="http://www.w3.org/2000/svg" xmlns:xlink="http://www.w3.org/1999/xlink" width="96" height="24" viewBox="0 0 96 24">
  <defs>
    <style>
      .cls-1 {
        fill: #eee;
        opacity: 0;
      }

      .cls-2 {
        fill: #ff6c0e;
      }

      .cls-3 {
        fill: url(#radial-gradient);
      }
    </style>
    <radialGradient id="radial-gradient" cx="9.229" cy="3.422" fx="-1.84035053345562" fy="-6.7157602043862425" r="23.188" gradientTransform="translate(2.663 1.017) scale(0.705 0.705)" gradientUnits="userSpaceOnUse">
      <stop offset="0.665" stop-color="#f9b80a"/>
      <stop offset="0.728" stop-color="#f9b40a"/>
      <stop offset="0.787" stop-color="#faa90a"/>
      <stop offset="0.843" stop-color="#fb9609"/>
      <stop offset="0.899" stop-color="#fc7c09"/>
      <stop offset="0.954" stop-color="#fd5a09"/>
      <stop offset="1" stop-color="#ff3708"/>
    </radialGradient>
  </defs>
  <rect id="bound" class="cls-1" width="96" height="24"/>
  <path id="XMLID_19_" class="cls-2" d="M593.238,160.9c3.582,0,5.243,2.251,5.243,4.425V170.1H596.22V165.32c0-1.36-.794-3.558-2.982-3.558s-2.982,2.2-2.982,3.558V170.1H588V165.32c0-2.174,1.66-4.42,5.238-4.42" transform="translate(-555.547 -150.362)"/>
  <path id="XMLID_18_" class="cls-2" d="M1236.343,173.107c-3.582,0-5.243-2.251-5.243-4.425V163.9h2.261v4.783c0,1.365.794,3.563,2.982,3.563s2.982-2.2,2.982-3.563V163.9h2.261v4.783c0,2.174-1.665,4.425-5.243,4.425" transform="translate(-1167.516 -153.217)"/>
  <path id="XMLID_9_" class="cls-2" d="M847.068,171.795a3.924,3.924,0,0,1-1.835.779,4.809,4.809,0,0,1-5.6-4.444c-.121-3.384,3.234-4.812,5.422-4.759a4.741,4.741,0,0,1,5,4.449v4.638h-2.275V167.84c0-1-.47-3.582-2.8-3.645-2.285-.058-3.026,2.053-3.03,3.621,0,1,.218,3.481,2.851,3.631a4.25,4.25,0,0,0,2.261-.45v.8Z" transform="translate(-795 -152.713)"/>
  <path id="XMLID_8_" class="cls-2" d="M1105.809,95.882a3.743,3.743,0,0,1-2.082.053c-1.06-.276-2.827-.75-2.827-4.386V81.5h2.295v3.994h2.1v1.4h-2.1s.053,2.827,0,5.117c-.044,2.033.576,2.73,1.026,2.958a2.493,2.493,0,0,0,1.583.1v.808Z" transform="translate(-1043.618 -74.806)"/>
  <path id="XMLID_7_" class="cls-2" d="M1491.8,166.277c0-2.236,1.162-3.81,3.209-4.018a3.916,3.916,0,0,1,1.966.126v.91a3.141,3.141,0,0,0-1.593.039c-.934.281-1.3,1.685-1.3,2.154V171.4H1491.8Z" transform="translate(-1415.596 -151.614)"/>
  <path id="XMLID_6_" class="cls-2" d="M1610.163,171.795a3.923,3.923,0,0,1-1.835.779,4.8,4.8,0,0,1-5.591-4.444c-.121-3.384,3.234-4.812,5.422-4.759a4.741,4.741,0,0,1,5,4.449v4.638h-2.275V167.84c0-1-.47-3.582-2.8-3.645-2.285-.058-3.026,2.053-3.03,3.621,0,1,.218,3.481,2.851,3.631a4.251,4.251,0,0,0,2.261-.45Z" transform="translate(-1521.16 -152.713)"/>
  <path id="XMLID_1_" class="cls-3" d="M20.741,5.538a17.833,17.833,0,0,1-.852,2.643c-.019.048,0,.063.039.044.281-.131,1.535-.755,2.866-1.322s3.8-.552,3.166,2.183-3.834,4.342-4.153,4.507-.7.319-.847.416c-.058.039-.092.082.015.111.339.087,1.481.024,1.472.5-.015.518-.852,1.365-3.04,2.295a7.743,7.743,0,0,1-4.87.445.038.038,0,0,0-.039.01c-.131.14-1.239,1.205-4.386.663-2.265-.392-2.827-.615-3.335-1.225a.78.78,0,0,1-.053-.881c.048-.1.058-.155-.01-.169A9.428,9.428,0,0,1,.468,11.536,1.313,1.313,0,0,1,.4,10.093c.271-.407,1.181-.445,2.125-.2,1.05.271,1.622.421,1.844.479.073.019.082,0,.039-.058-.261-.329-1.186-1.5-1.665-2.241-.789-1.23-1.772-4.5.794-5.848C6.383.736,8.867,3.355,9.424,4.037c.489.591,1.452,1.907,1.535,2.043.126.208.184.029.184.029A25.617,25.617,0,0,1,12.4,2.58,4.775,4.775,0,0,1,17.391.048C20.891.7,21.022,4.245,20.741,5.538ZM17.154,2.725c-1.99-.605-3.224.862-3.79,2.735-.46,1.506-.557,1.9-.828,2.687-.382,1.1-1.3,1.181-2.009.334C9.7,7.489,8.63,6.027,8.015,5.31,7.211,4.376,5.28,3.592,4.3,4.8c-1.481,1.83.484,3.882,1.515,5.112.716.867,1.588,1.467,1.3,1.961-.106.184-.334.242-.634.242a36.993,36.993,0,0,1-3.655-.76c-.474-.087-.828-.058-.958.3-.16.426.436,1.631,1.99,2.435a18.042,18.042,0,0,0,4.274,1.239c.9.194.726.634.513.862s-.455.368-.4.6c.126.571,1.355.687,2.086.808a4.637,4.637,0,0,0,2.28-.077c.629-.252.668-.6,1.1-.77.581-.223.784-.024,2.038.208a7.453,7.453,0,0,0,2.987-.3c1.452-.484,2.052-.949,2.048-1.176,0-.179-.252-.247-.513-.281a6.066,6.066,0,0,1-1.714-.445c-.353-.228-.087-.639.644-.934a17.428,17.428,0,0,0,3.979-2.077c.886-.794,1.728-2.115.978-2.885-.731-.76-2.038.024-2.745.349a29.236,29.236,0,0,1-2.987,1.346c-.455.1-1.312.068-.915-.963.5-1.278.736-2.067,1.041-2.837C18.941,5.795,19.483,3.437,17.154,2.725Z" transform="translate(3.783 2.769)"/>
</svg>
