<?xml version="1.0" encoding="iso-8859-1"?>
<!-- Generator: Adobe Illustrator 23.0.4, SVG Export Plug-In . SVG Version: 6.00 Build 0)  -->
<svg version="1.1" id="Capa_1" xmlns="http://www.w3.org/2000/svg" xmlns:xlink="http://www.w3.org/1999/xlink" x="0px" y="0px"
	 viewBox="0 0 481.95 481.95" style="enable-background:new 0 0 481.95 481.95;" xml:space="preserve">
<path style="fill:#F4AB34;" d="M229.5,216.75h-99.45C142.8,145.35,204,89.25,280.5,89.25s137.7,56.1,150.45,127.5h51
	c-12.75-99.45-96.9-178.5-201.45-178.5S91.8,117.3,79.05,216.75H0L114.75,331.5L229.5,216.75z M405.45,331.5l35.7,35.7
	c22.949-30.6,35.699-63.75,40.8-99.45h-51C428.4,290.7,418.2,311.1,405.45,331.5z M306,392.7v51c35.7-2.55,68.849-17.851,99.45-40.8
	l-35.7-35.7C349.35,379.95,328.95,390.15,306,392.7z"/>
</svg>
