<?xml version="1.0" encoding="iso-8859-1"?>
<!-- Generator: Adobe Illustrator 23.0.4, SVG Export Plug-In . SVG Version: 6.00 Build 0)  -->
<svg version="1.1" id="Capa_1" xmlns="http://www.w3.org/2000/svg" xmlns:xlink="http://www.w3.org/1999/xlink" x="0px" y="0px"
	 viewBox="0 0 481.95 481.95" style="enable-background:new 0 0 481.95 481.95;" xml:space="preserve">
<path style="fill:#F4AB34;" d="M252.45,216.75h99.45c-12.75-71.4-73.95-127.5-150.45-127.5S63.75,145.35,51,216.75H0
	c12.75-99.45,96.9-178.5,201.45-178.5s188.7,79.05,201.45,178.5h79.05L367.2,331.5L252.45,216.75z M76.5,331.5l-35.7,35.7
	C17.851,336.6,5.101,303.45,0,267.75h51C53.55,290.7,63.75,311.1,76.5,331.5z M175.95,392.7v51c-35.7-2.55-68.849-17.851-99.45-40.8
	l35.7-35.7C132.6,379.95,153,390.15,175.95,392.7z"/>
</svg>
