<?xml version="1.0" encoding="utf-8"?>
<!-- Generator: Adobe Illustrator 23.0.4, SVG Export Plug-In . SVG Version: 6.00 Build 0)  -->
<svg version="1.0" xmlns="http://www.w3.org/2000/svg" xmlns:xlink="http://www.w3.org/1999/xlink" x="0px" y="0px"
	 viewBox="0 0 524 139" style="enable-background:new 0 0 524 139;" xml:space="preserve">
<style type="text/css">
	.st0{display:none;}
	.st1{display:inline;}
</style>
<g id="Layer_1" class="st0">
	<g class="st1">
		<path d="M0.8,25.4h50.5v11.1H13.6v19.2h33.1v10.5H13.6v32.5H0.8V25.4z"/>
		<path d="M80.7,100c-4.2,0-8-0.7-11.3-2.1c-3.3-1.4-6.1-3.3-8.4-5.8c-2.3-2.5-4-5.4-5.2-8.8c-1.2-3.4-1.8-7.2-1.8-11.3
			c0-4,0.6-7.8,1.8-11.2c1.2-3.4,2.9-6.4,5.2-8.8c2.3-2.5,5.1-4.4,8.4-5.8c3.3-1.4,7.1-2.1,11.3-2.1c4.2,0,8,0.7,11.3,2.1
			c3.3,1.4,6.1,3.3,8.4,5.8c2.3,2.5,4,5.4,5.2,8.8c1.2,3.4,1.8,7.1,1.8,11.2c0,4.1-0.6,7.9-1.8,11.3c-1.2,3.4-2.9,6.4-5.2,8.8
			c-2.3,2.5-5.1,4.4-8.4,5.8C88.7,99.3,84.9,100,80.7,100z M80.7,90.8c2.6,0,4.8-0.5,6.8-1.6c1.9-1.1,3.5-2.5,4.7-4.3s2.1-3.8,2.7-6
			c0.6-2.2,0.9-4.5,0.9-6.8c0-2.3-0.3-4.5-0.9-6.8c-0.6-2.3-1.5-4.3-2.7-6c-1.2-1.7-2.8-3.2-4.7-4.3c-1.9-1.1-4.2-1.6-6.8-1.6
			c-2.6,0-4.9,0.5-6.8,1.6c-1.9,1.1-3.5,2.5-4.7,4.3c-1.2,1.7-2.1,3.7-2.7,6c-0.6,2.3-0.9,4.5-0.9,6.8c0,2.3,0.3,4.6,0.9,6.8
			c0.6,2.2,1.5,4.2,2.7,6c1.2,1.8,2.8,3.2,4.7,4.3C75.9,90.3,78.1,90.8,80.7,90.8z"/>
		<path d="M115.7,45.6h11v10.2h0.2c0.3-1.4,1-2.8,2-4.2c1-1.4,2.2-2.6,3.6-3.7c1.4-1.1,3-2,4.7-2.7c1.7-0.7,3.4-1,5.2-1
			c1.4,0,2.3,0,2.8,0.1c0.5,0.1,1,0.1,1.6,0.2v11.3c-0.8-0.1-1.7-0.3-2.5-0.4c-0.9-0.1-1.7-0.2-2.5-0.2c-2,0-3.8,0.4-5.6,1.2
			c-1.7,0.8-3.3,1.9-4.6,3.5c-1.3,1.5-2.3,3.4-3.1,5.7c-0.8,2.3-1.1,4.9-1.1,7.8v25.2h-11.7V45.6z"/>
		<path d="M156.1,45.6h8.8V29.7h11.7v15.9h10.6v8.7h-10.6v28.3c0,1.2,0.1,2.3,0.2,3.2c0.1,0.9,0.3,1.6,0.7,2.3
			c0.4,0.6,0.9,1.1,1.7,1.4c0.8,0.3,1.8,0.5,3.1,0.5c0.8,0,1.6,0,2.5-0.1c0.8,0,1.6-0.2,2.5-0.4v9c-1.3,0.1-2.6,0.3-3.8,0.4
			c-1.2,0.1-2.5,0.2-3.8,0.2c-3.1,0-5.6-0.3-7.4-0.9c-1.9-0.6-3.3-1.4-4.4-2.6c-1.1-1.1-1.8-2.5-2.2-4.3c-0.4-1.7-0.6-3.7-0.7-5.8
			V54.3h-8.8V45.6z"/>
		<path d="M208.4,75.1c0,2,0.3,4,0.9,5.9c0.6,1.9,1.5,3.6,2.6,5c1.2,1.4,2.6,2.6,4.4,3.4c1.8,0.9,3.9,1.3,6.4,1.3
			c3.4,0,6.2-0.7,8.2-2.2c2.1-1.5,3.6-3.7,4.7-6.6h11.1c-0.6,2.9-1.7,5.4-3.2,7.7c-1.5,2.3-3.3,4.2-5.4,5.7
			c-2.1,1.5-4.5,2.7-7.1,3.5c-2.6,0.8-5.4,1.2-8.2,1.2c-4.2,0-7.9-0.7-11.1-2c-3.2-1.4-5.9-3.3-8.1-5.7c-2.2-2.5-3.9-5.4-5-8.8
			s-1.7-7.2-1.7-11.3c0-3.8,0.6-7.3,1.8-10.7c1.2-3.4,2.9-6.4,5.1-8.9c2.2-2.6,4.9-4.6,8-6.1c3.1-1.5,6.7-2.3,10.7-2.3
			c4.2,0,7.9,0.9,11.2,2.6c3.3,1.7,6.1,4,8.2,6.9c2.2,2.9,3.8,6.2,4.8,9.9c1,3.7,1.2,7.6,0.8,11.5H208.4z M235.6,67.4
			c-0.1-1.8-0.5-3.6-1.2-5.3c-0.7-1.7-1.5-3.2-2.7-4.5c-1.1-1.3-2.5-2.3-4.1-3.1c-1.6-0.8-3.4-1.2-5.4-1.2c-2,0-3.9,0.4-5.6,1.1
			c-1.7,0.7-3.1,1.7-4.3,3c-1.2,1.3-2.2,2.8-2.9,4.5c-0.7,1.7-1.1,3.6-1.2,5.5H235.6z"/>
	</g>
</g>
<g id="Layer_2" class="st0">
	<g class="st1">
		<path d="M15.8,74.5c0,2.7,0.5,5.1,1.4,7c0.9,1.9,2.2,3.5,3.9,4.8c1.7,1.2,3.6,2.1,5.8,2.7c2.2,0.6,4.5,0.9,7.1,0.9
			c2.7,0,5.1-0.3,7-1c1.9-0.6,3.5-1.5,4.7-2.5s2.1-2.2,2.6-3.5c0.5-1.3,0.8-2.6,0.8-4c0-2.7-0.6-4.8-1.9-6.1
			c-1.2-1.3-2.6-2.2-4.1-2.8c-2.5-0.9-5.5-1.8-8.9-2.7c-3.4-0.8-7.5-1.9-12.5-3.3c-3.1-0.8-5.6-1.9-7.7-3.2c-2-1.3-3.7-2.8-4.9-4.4
			s-2.1-3.3-2.6-5.1S6,48,6,46.1c0-3.6,0.8-6.7,2.3-9.4c1.5-2.6,3.5-4.8,6-6.6c2.5-1.7,5.3-3,8.4-3.9c3.1-0.8,6.3-1.3,9.5-1.3
			c3.7,0,7.3,0.5,10.6,1.5c3.3,1,6.2,2.4,8.7,4.4c2.5,1.9,4.5,4.3,6,7.2c1.5,2.8,2.2,6.1,2.2,9.9H47c-0.3-4.6-1.9-7.9-4.7-9.8
			c-2.8-1.9-6.4-2.9-10.7-2.9c-1.5,0-3,0.2-4.5,0.5c-1.5,0.3-2.9,0.8-4.2,1.5c-1.3,0.7-2.3,1.7-3.2,2.9c-0.8,1.2-1.3,2.7-1.3,4.5
			c0,2.5,0.8,4.5,2.4,6c1.6,1.4,3.6,2.5,6.2,3.3c0.3,0.1,1.3,0.4,3.2,0.9c1.8,0.5,3.9,1.1,6.2,1.7c2.3,0.6,4.5,1.2,6.7,1.8
			c2.2,0.6,3.7,1,4.7,1.3c2.3,0.7,4.4,1.7,6.1,3c1.7,1.3,3.2,2.7,4.4,4.4c1.2,1.6,2,3.4,2.6,5.3c0.6,1.9,0.9,3.7,0.9,5.6
			c0,4-0.8,7.4-2.5,10.3c-1.6,2.8-3.8,5.2-6.5,7c-2.7,1.8-5.7,3.1-9.1,4c-3.4,0.8-6.9,1.3-10.4,1.3c-4.1,0-7.9-0.5-11.5-1.5
			s-6.7-2.5-9.4-4.6c-2.7-2.1-4.8-4.7-6.4-8c-1.6-3.2-2.4-7.1-2.5-11.5H15.8z"/>
		<path d="M65.2,46.5h8.6V31h11.4v15.5h10.3V55H85.2v27.7c0,1.2,0,2.2,0.1,3.1c0.1,0.9,0.3,1.6,0.7,2.2c0.4,0.6,0.9,1.1,1.7,1.4
			c0.7,0.3,1.7,0.5,3,0.5c0.8,0,1.6,0,2.4,0c0.8,0,1.6-0.2,2.4-0.4v8.8c-1.3,0.1-2.5,0.3-3.7,0.4c-1.2,0.1-2.4,0.2-3.7,0.2
			c-3,0-5.4-0.3-7.3-0.9c-1.8-0.6-3.3-1.4-4.3-2.5c-1-1.1-1.7-2.5-2.1-4.2c-0.4-1.7-0.6-3.6-0.7-5.7V55h-8.6V46.5z"/>
		<path d="M103.2,46.5h10.7v10h0.2c0.3-1.4,1-2.8,2-4.1c1-1.3,2.1-2.6,3.5-3.7c1.4-1.1,2.9-2,4.6-2.7c1.7-0.7,3.4-1,5.1-1
			c1.3,0,2.3,0,2.8,0.1c0.5,0.1,1,0.1,1.6,0.2v11c-0.8-0.1-1.6-0.3-2.5-0.4c-0.8-0.1-1.7-0.2-2.5-0.2c-1.9,0-3.8,0.4-5.5,1.2
			c-1.7,0.8-3.2,1.9-4.5,3.4c-1.3,1.5-2.3,3.4-3,5.6c-0.7,2.2-1.1,4.7-1.1,7.6v24.6h-11.4V46.5z"/>
		<path d="M159.9,99.7c-4.1,0-7.8-0.7-11.1-2.1c-3.2-1.4-6-3.3-8.2-5.7c-2.2-2.4-3.9-5.3-5.1-8.6c-1.2-3.3-1.8-7-1.8-11
			c0-3.9,0.6-7.6,1.8-10.9c1.2-3.3,2.9-6.2,5.1-8.6c2.2-2.4,5-4.3,8.2-5.7c3.2-1.4,6.9-2.1,11.1-2.1s7.8,0.7,11.1,2.1
			c3.2,1.4,6,3.3,8.2,5.7c2.2,2.4,3.9,5.3,5.1,8.6c1.2,3.3,1.8,7,1.8,10.9c0,4-0.6,7.7-1.8,11c-1.2,3.3-2.9,6.2-5.1,8.6
			c-2.2,2.4-5,4.3-8.2,5.7C167.8,99,164.1,99.7,159.9,99.7z M159.9,90.7c2.5,0,4.7-0.5,6.6-1.6c1.9-1.1,3.4-2.5,4.6-4.2
			c1.2-1.7,2.1-3.7,2.7-5.9c0.6-2.2,0.9-4.4,0.9-6.7c0-2.2-0.3-4.4-0.9-6.6c-0.6-2.2-1.5-4.2-2.7-5.9c-1.2-1.7-2.7-3.1-4.6-4.2
			c-1.9-1.1-4.1-1.6-6.6-1.6c-2.5,0-4.7,0.5-6.6,1.6c-1.9,1.1-3.4,2.5-4.6,4.2s-2.1,3.7-2.7,5.9c-0.6,2.2-0.9,4.4-0.9,6.6
			c0,2.3,0.3,4.5,0.9,6.7c0.6,2.2,1.5,4.1,2.7,5.9c1.2,1.7,2.7,3.1,4.6,4.2C155.2,90.2,157.4,90.7,159.9,90.7z"/>
		<path d="M195.1,46.5h10.8v7.6l0.2,0.2c1.7-2.9,4-5.1,6.8-6.8c2.8-1.6,5.9-2.5,9.3-2.5c5.7,0,10.2,1.5,13.4,4.4
			c3.3,2.9,4.9,7.3,4.9,13.2v35.6h-11.4V65.8c-0.1-4.1-1-7-2.6-8.9c-1.6-1.8-4.1-2.8-7.5-2.8c-1.9,0-3.7,0.4-5.2,1.1
			c-1.5,0.7-2.8,1.7-3.9,2.9c-1.1,1.2-1.9,2.7-2.5,4.4c-0.6,1.7-0.9,3.4-0.9,5.3v30.6h-11.4V46.5z"/>
		<path d="M300,95.6c0,7.8-2.2,13.6-6.6,17.5c-4.4,3.8-10.7,5.8-18.9,5.8c-2.6,0-5.2-0.3-7.9-0.8c-2.6-0.5-5-1.4-7.2-2.7
			c-2.2-1.3-4-2.9-5.5-5c-1.5-2.1-2.3-4.6-2.6-7.6h11.4c0.3,1.6,0.9,2.9,1.7,3.9c0.8,1,1.8,1.8,2.9,2.4c1.1,0.6,2.3,0.9,3.7,1.1
			c1.3,0.2,2.7,0.2,4.2,0.2c4.6,0,8-1.1,10.1-3.4c2.1-2.3,3.2-5.5,3.2-9.8v-7.9h-0.2c-1.6,2.9-3.8,5.1-6.6,6.7
			c-2.8,1.6-5.8,2.4-9,2.4c-4.1,0-7.7-0.7-10.6-2.2c-2.9-1.4-5.3-3.4-7.2-5.9c-1.9-2.5-3.3-5.4-4.2-8.7c-0.9-3.3-1.3-6.8-1.3-10.5
			c0-3.5,0.5-6.8,1.6-9.9c1.1-3.1,2.6-5.9,4.6-8.3c2-2.4,4.5-4.3,7.4-5.7c2.9-1.4,6.2-2.1,9.9-2.1c3.3,0,6.3,0.7,9,2.1
			c2.7,1.4,4.8,3.5,6.3,6.5h0.2v-7.1H300V95.6z M274.6,89.3c2.5,0,4.7-0.5,6.5-1.6c1.8-1,3.2-2.4,4.3-4.1c1.1-1.7,1.9-3.6,2.4-5.8
			c0.5-2.2,0.8-4.4,0.8-6.6s-0.3-4.3-0.8-6.4c-0.5-2.1-1.4-3.9-2.5-5.5c-1.1-1.6-2.5-2.9-4.3-3.8c-1.8-0.9-3.9-1.4-6.4-1.4
			c-2.5,0-4.7,0.5-6.4,1.6c-1.7,1.1-3.1,2.5-4.2,4.2c-1.1,1.7-1.8,3.6-2.3,5.8c-0.5,2.2-0.7,4.3-0.7,6.5c0,2.1,0.3,4.2,0.8,6.3
			c0.5,2,1.4,3.9,2.5,5.5c1.1,1.6,2.5,2.9,4.2,3.9C270.2,88.8,272.2,89.3,274.6,89.3z"/>
	</g>
</g>
<g id="Layer_4" class="st0">
	<g class="st1">
		<path d="M0.6,25.9h18l20.2,57.2H39l19.7-57.2h17.8v73.1H64.2V42.5H64L43.8,98.9H33.2L13,42.5h-0.2v56.4H0.6V25.9z"/>
		<path d="M133.9,87.2c0,1.4,0.2,2.5,0.6,3.1c0.4,0.6,1.1,0.9,2.2,0.9c0.3,0,0.8,0,1.2,0c0.5,0,1-0.1,1.6-0.2V99
			c-0.4,0.1-0.9,0.3-1.6,0.5c-0.6,0.2-1.3,0.3-2,0.5c-0.7,0.1-1.4,0.2-2,0.3c-0.7,0.1-1.3,0.1-1.7,0.1c-2.4,0-4.4-0.5-5.9-1.4
			c-1.6-1-2.6-2.6-3.1-5c-2.3,2.3-5.2,3.9-8.5,4.9c-3.4,1-6.6,1.5-9.8,1.5c-2.4,0-4.7-0.3-6.9-1c-2.2-0.6-4.1-1.6-5.8-2.9
			c-1.7-1.3-3-2.9-4-4.8c-1-1.9-1.5-4.2-1.5-6.8c0-3.3,0.6-5.9,1.8-8c1.2-2,2.8-3.6,4.7-4.8c1.9-1.2,4.1-2,6.6-2.5
			c2.4-0.5,4.9-0.9,7.3-1.2c2.1-0.4,4.1-0.7,6-0.9c1.9-0.2,3.6-0.5,5.1-0.9c1.5-0.4,2.6-1,3.5-1.9c0.9-0.9,1.3-2.1,1.3-3.8
			c0-1.5-0.4-2.7-1.1-3.7c-0.7-1-1.6-1.7-2.7-2.2c-1.1-0.5-2.2-0.9-3.5-1c-1.3-0.2-2.5-0.3-3.7-0.3c-3.3,0-6,0.7-8.1,2
			c-2.1,1.4-3.3,3.5-3.6,6.3H88.7c0.2-3.4,1-6.2,2.5-8.5c1.4-2.3,3.3-4.1,5.5-5.4c2.2-1.4,4.7-2.3,7.5-2.9c2.8-0.5,5.7-0.8,8.6-0.8
			c2.6,0,5.2,0.3,7.7,0.8c2.5,0.5,4.8,1.4,6.8,2.7c2,1.2,3.6,2.8,4.9,4.8c1.2,1.9,1.8,4.3,1.8,7.1V87.2z M122.3,72.4
			c-1.8,1.2-4,1.9-6.6,2.1c-2.6,0.2-5.2,0.6-7.8,1.1c-1.2,0.2-2.4,0.5-3.6,0.9c-1.2,0.4-2.2,0.9-3.1,1.5c-0.9,0.6-1.6,1.5-2.1,2.6
			c-0.5,1.1-0.8,2.3-0.8,3.8c0,1.3,0.4,2.4,1.1,3.3c0.8,0.9,1.7,1.6,2.7,2.1c1.1,0.5,2.2,0.9,3.5,1.1c1.3,0.2,2.4,0.3,3.4,0.3
			c1.3,0,2.7-0.2,4.2-0.5c1.5-0.3,2.9-0.9,4.2-1.7c1.3-0.8,2.4-1.9,3.3-3.1c0.9-1.3,1.3-2.8,1.3-4.7V72.4z"/>
		<path d="M146,46h11.1v7.8l0.2,0.2c1.8-2.9,4.1-5.2,7-6.9c2.9-1.7,6-2.5,9.5-2.5c5.8,0,10.4,1.5,13.7,4.5c3.3,3,5,7.5,5,13.5v36.3
			h-11.7V65.7c-0.1-4.2-1-7.2-2.7-9.1c-1.6-1.9-4.2-2.8-7.7-2.8c-2,0-3.8,0.4-5.3,1.1c-1.6,0.7-2.9,1.7-4,3
			c-1.1,1.3-1.9,2.7-2.6,4.5c-0.6,1.7-0.9,3.5-0.9,5.4v31.2H146V46z"/>
		<path d="M250.7,98.9h-11.5v-7.4h-0.2c-1.4,2.7-3.6,4.8-6.4,6.4c-2.8,1.6-5.7,2.4-8.6,2.4c-7,0-12-1.7-15.1-5.2
			c-3.1-3.4-4.7-8.6-4.7-15.6V46h11.7v32.4c0,4.6,0.9,7.9,2.7,9.8c1.8,1.9,4.3,2.9,7.5,2.9c2.5,0,4.5-0.4,6.1-1.1c1.6-0.8,3-1.8,4-3
			c1-1.3,1.8-2.8,2.2-4.6c0.4-1.8,0.7-3.7,0.7-5.7V46h11.7V98.9z"/>
		<path d="M271.3,81.9c0.3,3.4,1.6,5.8,3.9,7.2c2.3,1.4,4.9,2,8.1,2c1.1,0,2.3-0.1,3.7-0.3c1.4-0.2,2.7-0.5,3.9-1
			c1.2-0.5,2.2-1.2,3-2.1c0.8-0.9,1.1-2.1,1.1-3.6c-0.1-1.5-0.6-2.7-1.6-3.7c-1-1-2.3-1.7-3.9-2.3c-1.6-0.6-3.4-1.1-5.5-1.5
			s-4.1-0.9-6.2-1.3c-2.2-0.5-4.3-1.1-6.3-1.7c-2-0.7-3.8-1.6-5.4-2.8c-1.6-1.2-2.9-2.6-3.8-4.5c-1-1.8-1.4-4-1.4-6.7
			c0-2.9,0.7-5.3,2.1-7.2s3.2-3.5,5.3-4.7c2.1-1.2,4.5-2,7.2-2.5c2.6-0.5,5.1-0.7,7.5-0.7c2.7,0,5.3,0.3,7.8,0.9
			c2.5,0.6,4.7,1.5,6.8,2.8c2,1.3,3.7,3,5,5.1c1.3,2.1,2.2,4.6,2.5,7.5h-12.2c-0.5-2.8-1.8-4.7-3.8-5.6c-2-1-4.3-1.4-6.9-1.4
			c-0.8,0-1.8,0.1-2.9,0.2c-1.1,0.1-2.2,0.4-3.2,0.8c-1,0.4-1.8,0.9-2.5,1.6c-0.7,0.7-1,1.7-1,2.8c0,1.4,0.5,2.6,1.5,3.5
			c1,0.9,2.3,1.6,3.9,2.2c1.6,0.6,3.4,1.1,5.5,1.5c2,0.4,4.2,0.9,6.3,1.3c2.1,0.5,4.2,1.1,6.2,1.7c2,0.7,3.9,1.6,5.5,2.8
			c1.6,1.2,2.9,2.6,3.9,4.4c1,1.8,1.5,4,1.5,6.6c0,3.1-0.7,5.8-2.1,8c-1.4,2.2-3.3,4-5.6,5.3c-2.3,1.4-4.8,2.4-7.6,3
			c-2.8,0.6-5.6,0.9-8.3,0.9c-3.3,0-6.4-0.4-9.3-1.1c-2.8-0.8-5.3-1.9-7.4-3.4c-2.1-1.5-3.7-3.4-4.9-5.7c-1.2-2.3-1.8-5-1.9-8.1
			H271.3z"/>
		<path d="M350.8,63.7c-0.5-3.3-1.8-5.7-3.9-7.4c-2.1-1.7-4.9-2.5-8.1-2.5c-1.5,0-3.1,0.3-4.8,0.8c-1.7,0.5-3.3,1.5-4.7,2.9
			c-1.4,1.4-2.6,3.3-3.6,5.8c-1,2.5-1.4,5.8-1.4,9.8c0,2.2,0.3,4.4,0.8,6.6c0.5,2.2,1.3,4.1,2.5,5.8c1.1,1.7,2.6,3.1,4.4,4.1
			c1.8,1.1,3.9,1.6,6.4,1.6c3.4,0,6.2-1.1,8.4-3.2c2.2-2.1,3.6-5.1,4.1-8.9h11.7c-1.1,6.9-3.7,12.2-7.8,15.8
			c-4.1,3.7-9.6,5.5-16.4,5.5c-4.2,0-7.8-0.7-11-2.1c-3.2-1.4-5.9-3.3-8-5.7c-2.2-2.4-3.8-5.3-5-8.6c-1.1-3.3-1.7-7-1.7-10.8
			c0-4,0.5-7.7,1.6-11.2c1.1-3.5,2.7-6.5,4.9-9.1c2.2-2.6,4.9-4.6,8.1-6c3.2-1.5,7-2.2,11.4-2.2c3.1,0,6,0.4,8.8,1.2
			c2.8,0.8,5.2,2,7.4,3.5c2.1,1.6,3.9,3.5,5.3,5.9c1.4,2.4,2.2,5.2,2.5,8.5H350.8z"/>
		<path d="M371.5,46h11v10.2h0.2c0.3-1.4,1-2.8,2-4.2c1-1.4,2.2-2.6,3.6-3.7c1.4-1.1,3-2,4.7-2.7c1.7-0.7,3.4-1,5.2-1
			c1.4,0,2.3,0,2.8,0.1c0.5,0.1,1,0.1,1.6,0.2v11.3c-0.8-0.1-1.7-0.3-2.5-0.4c-0.9-0.1-1.7-0.2-2.5-0.2c-2,0-3.8,0.4-5.6,1.2
			c-1.7,0.8-3.3,1.9-4.6,3.5c-1.3,1.5-2.3,3.4-3.1,5.7c-0.8,2.3-1.1,4.8-1.1,7.8v25.2h-11.7V46z"/>
		<path d="M407.3,25.9H419v11.1h-11.7V25.9z M407.3,46H419v52.9h-11.7V46z"/>
		<path d="M425.8,46h8.8V30.2h11.7V46h10.5v8.7h-10.5V83c0,1.2,0.1,2.3,0.2,3.2c0.1,0.9,0.3,1.6,0.7,2.3c0.4,0.6,0.9,1.1,1.7,1.4
			c0.8,0.3,1.8,0.5,3.1,0.5c0.8,0,1.6,0,2.5-0.1c0.8,0,1.6-0.2,2.5-0.4v9c-1.3,0.1-2.6,0.3-3.8,0.4s-2.5,0.2-3.8,0.2
			c-3.1,0-5.5-0.3-7.4-0.9c-1.9-0.6-3.3-1.4-4.4-2.6c-1.1-1.1-1.8-2.5-2.1-4.2c-0.4-1.7-0.6-3.6-0.7-5.8V54.7h-8.8V46z"/>
		<path d="M509.1,87.2c0,1.4,0.2,2.5,0.6,3.1c0.4,0.6,1.1,0.9,2.2,0.9c0.3,0,0.8,0,1.2,0c0.5,0,1-0.1,1.6-0.2V99
			c-0.4,0.1-0.9,0.3-1.6,0.5c-0.6,0.2-1.3,0.3-2,0.5c-0.7,0.1-1.4,0.2-2,0.3c-0.7,0.1-1.3,0.1-1.7,0.1c-2.4,0-4.4-0.5-5.9-1.4
			c-1.6-1-2.6-2.6-3.1-5c-2.3,2.3-5.2,3.9-8.5,4.9s-6.6,1.5-9.8,1.5c-2.4,0-4.7-0.3-6.9-1c-2.2-0.6-4.1-1.6-5.8-2.9
			c-1.7-1.3-3-2.9-4-4.8c-1-1.9-1.5-4.2-1.5-6.8c0-3.3,0.6-5.9,1.8-8c1.2-2,2.8-3.6,4.7-4.8c1.9-1.2,4.1-2,6.6-2.5
			c2.4-0.5,4.9-0.9,7.3-1.2c2.1-0.4,4.1-0.7,6-0.9c1.9-0.2,3.6-0.5,5.1-0.9c1.5-0.4,2.6-1,3.5-1.9c0.9-0.9,1.3-2.1,1.3-3.8
			c0-1.5-0.4-2.7-1.1-3.7c-0.7-1-1.6-1.7-2.7-2.2c-1.1-0.5-2.2-0.9-3.5-1c-1.3-0.2-2.5-0.3-3.7-0.3c-3.3,0-6,0.7-8.1,2
			c-2.1,1.4-3.3,3.5-3.6,6.3h-11.7c0.2-3.4,1-6.2,2.5-8.5c1.4-2.3,3.3-4.1,5.5-5.4c2.2-1.4,4.7-2.3,7.5-2.9c2.8-0.5,5.7-0.8,8.6-0.8
			c2.6,0,5.2,0.3,7.7,0.8c2.5,0.5,4.8,1.4,6.8,2.7c2,1.2,3.6,2.8,4.9,4.8s1.8,4.3,1.8,7.1V87.2z M497.4,72.4c-1.8,1.2-4,1.9-6.6,2.1
			c-2.6,0.2-5.2,0.6-7.8,1.1c-1.2,0.2-2.4,0.5-3.6,0.9c-1.2,0.4-2.2,0.9-3.1,1.5c-0.9,0.6-1.6,1.5-2.1,2.6c-0.5,1.1-0.8,2.3-0.8,3.8
			c0,1.3,0.4,2.4,1.1,3.3c0.8,0.9,1.7,1.6,2.7,2.1c1.1,0.5,2.2,0.9,3.5,1.1c1.3,0.2,2.4,0.3,3.4,0.3c1.3,0,2.7-0.2,4.2-0.5
			c1.5-0.3,2.9-0.9,4.2-1.7c1.3-0.8,2.4-1.9,3.3-3.1c0.9-1.3,1.3-2.8,1.3-4.7V72.4z"/>
	</g>
</g>
<g id="Layer_3" class="st0">
	<g class="st1">
		<path d="M0.6,25.9h18l20.2,57.2H39l19.7-57.2h17.8v73.1H64.2V42.5H64L43.8,98.9H33.2L13,42.5h-0.2v56.4H0.6V25.9z"/>
		<path d="M133.9,87.2c0,1.4,0.2,2.5,0.6,3.1c0.4,0.6,1.1,0.9,2.2,0.9c0.3,0,0.8,0,1.2,0c0.5,0,1-0.1,1.6-0.2V99
			c-0.4,0.1-0.9,0.3-1.6,0.5c-0.6,0.2-1.3,0.3-2,0.5c-0.7,0.1-1.4,0.2-2,0.3c-0.7,0.1-1.3,0.1-1.7,0.1c-2.4,0-4.4-0.5-5.9-1.4
			c-1.6-1-2.6-2.6-3.1-5c-2.3,2.3-5.2,3.9-8.5,4.9c-3.4,1-6.6,1.5-9.8,1.5c-2.4,0-4.7-0.3-6.9-1c-2.2-0.6-4.1-1.6-5.8-2.9
			c-1.7-1.3-3-2.9-4-4.8c-1-1.9-1.5-4.2-1.5-6.8c0-3.3,0.6-5.9,1.8-8c1.2-2,2.8-3.6,4.7-4.8c1.9-1.2,4.1-2,6.6-2.5
			c2.4-0.5,4.9-0.9,7.3-1.2c2.1-0.4,4.1-0.7,6-0.9c1.9-0.2,3.6-0.5,5.1-0.9c1.5-0.4,2.6-1,3.5-1.9c0.9-0.9,1.3-2.1,1.3-3.8
			c0-1.5-0.4-2.7-1.1-3.7c-0.7-1-1.6-1.7-2.7-2.2c-1.1-0.5-2.2-0.9-3.5-1c-1.3-0.2-2.5-0.3-3.7-0.3c-3.3,0-6,0.7-8.1,2
			c-2.1,1.4-3.3,3.5-3.6,6.3H88.7c0.2-3.4,1-6.2,2.5-8.5c1.4-2.3,3.3-4.1,5.5-5.4c2.2-1.4,4.7-2.3,7.5-2.9c2.8-0.5,5.7-0.8,8.6-0.8
			c2.6,0,5.2,0.3,7.7,0.8c2.5,0.5,4.8,1.4,6.8,2.7c2,1.2,3.6,2.8,4.9,4.8c1.2,1.9,1.8,4.3,1.8,7.1V87.2z M122.3,72.4
			c-1.8,1.2-4,1.9-6.6,2.1c-2.6,0.2-5.2,0.6-7.8,1.1c-1.2,0.2-2.4,0.5-3.6,0.9c-1.2,0.4-2.2,0.9-3.1,1.5c-0.9,0.6-1.6,1.5-2.1,2.6
			c-0.5,1.1-0.8,2.3-0.8,3.8c0,1.3,0.4,2.4,1.1,3.3c0.8,0.9,1.7,1.6,2.7,2.1c1.1,0.5,2.2,0.9,3.5,1.1c1.3,0.2,2.4,0.3,3.4,0.3
			c1.3,0,2.7-0.2,4.2-0.5c1.5-0.3,2.9-0.9,4.2-1.7c1.3-0.8,2.4-1.9,3.3-3.1c0.9-1.3,1.3-2.8,1.3-4.7V72.4z"/>
		<path d="M146,46h11.1v7.8l0.2,0.2c1.8-2.9,4.1-5.2,7-6.9c2.9-1.7,6-2.5,9.5-2.5c5.8,0,10.4,1.5,13.7,4.5c3.3,3,5,7.5,5,13.5v36.3
			h-11.7V65.7c-0.1-4.2-1-7.2-2.7-9.1c-1.6-1.9-4.2-2.8-7.7-2.8c-2,0-3.8,0.4-5.3,1.1c-1.6,0.7-2.9,1.7-4,3
			c-1.1,1.3-1.9,2.7-2.6,4.5c-0.6,1.7-0.9,3.5-0.9,5.4v31.2H146V46z"/>
		<path d="M250.7,98.9h-11.5v-7.4h-0.2c-1.4,2.7-3.6,4.8-6.4,6.4c-2.8,1.6-5.7,2.4-8.6,2.4c-7,0-12-1.7-15.1-5.2
			c-3.1-3.4-4.7-8.6-4.7-15.6V46h11.7v32.4c0,4.6,0.9,7.9,2.7,9.8c1.8,1.9,4.3,2.9,7.5,2.9c2.5,0,4.5-0.4,6.1-1.1c1.6-0.8,3-1.8,4-3
			c1-1.3,1.8-2.8,2.2-4.6c0.4-1.8,0.7-3.7,0.7-5.7V46h11.7V98.9z"/>
		<path d="M271.3,81.9c0.3,3.4,1.6,5.8,3.9,7.2c2.3,1.4,4.9,2,8.1,2c1.1,0,2.3-0.1,3.7-0.3c1.4-0.2,2.7-0.5,3.9-1
			c1.2-0.5,2.2-1.2,3-2.1c0.8-0.9,1.1-2.1,1.1-3.6c-0.1-1.5-0.6-2.7-1.6-3.7c-1-1-2.3-1.7-3.9-2.3c-1.6-0.6-3.4-1.1-5.5-1.5
			s-4.1-0.9-6.2-1.3c-2.2-0.5-4.3-1.1-6.3-1.7c-2-0.7-3.8-1.6-5.4-2.8c-1.6-1.2-2.9-2.6-3.8-4.5c-1-1.8-1.4-4-1.4-6.7
			c0-2.9,0.7-5.3,2.1-7.2s3.2-3.5,5.3-4.7c2.1-1.2,4.5-2,7.2-2.5c2.6-0.5,5.1-0.7,7.5-0.7c2.7,0,5.3,0.3,7.8,0.9
			c2.5,0.6,4.7,1.5,6.8,2.8c2,1.3,3.7,3,5,5.1c1.3,2.1,2.2,4.6,2.5,7.5h-12.2c-0.5-2.8-1.8-4.7-3.8-5.6c-2-1-4.3-1.4-6.9-1.4
			c-0.8,0-1.8,0.1-2.9,0.2c-1.1,0.1-2.2,0.4-3.2,0.8c-1,0.4-1.8,0.9-2.5,1.6c-0.7,0.7-1,1.7-1,2.8c0,1.4,0.5,2.6,1.5,3.5
			c1,0.9,2.3,1.6,3.9,2.2c1.6,0.6,3.4,1.1,5.5,1.5c2,0.4,4.2,0.9,6.3,1.3c2.1,0.5,4.2,1.1,6.2,1.7c2,0.7,3.9,1.6,5.5,2.8
			c1.6,1.2,2.9,2.6,3.9,4.4c1,1.8,1.5,4,1.5,6.6c0,3.1-0.7,5.8-2.1,8c-1.4,2.2-3.3,4-5.6,5.3c-2.3,1.4-4.8,2.4-7.6,3
			c-2.8,0.6-5.6,0.9-8.3,0.9c-3.3,0-6.4-0.4-9.3-1.1c-2.8-0.8-5.3-1.9-7.4-3.4c-2.1-1.5-3.7-3.4-4.9-5.7c-1.2-2.3-1.8-5-1.9-8.1
			H271.3z"/>
		<path d="M350.8,63.7c-0.5-3.3-1.8-5.7-3.9-7.4c-2.1-1.7-4.9-2.5-8.1-2.5c-1.5,0-3.1,0.3-4.8,0.8c-1.7,0.5-3.3,1.5-4.7,2.9
			c-1.4,1.4-2.6,3.3-3.6,5.8c-1,2.5-1.4,5.8-1.4,9.8c0,2.2,0.3,4.4,0.8,6.6c0.5,2.2,1.3,4.1,2.5,5.8c1.1,1.7,2.6,3.1,4.4,4.1
			c1.8,1.1,3.9,1.6,6.4,1.6c3.4,0,6.2-1.1,8.4-3.2c2.2-2.1,3.6-5.1,4.1-8.9h11.7c-1.1,6.9-3.7,12.2-7.8,15.8
			c-4.1,3.7-9.6,5.5-16.4,5.5c-4.2,0-7.8-0.7-11-2.1c-3.2-1.4-5.9-3.3-8-5.7c-2.2-2.4-3.8-5.3-5-8.6c-1.1-3.3-1.7-7-1.7-10.8
			c0-4,0.5-7.7,1.6-11.2c1.1-3.5,2.7-6.5,4.9-9.1c2.2-2.6,4.9-4.6,8.1-6c3.2-1.5,7-2.2,11.4-2.2c3.1,0,6,0.4,8.8,1.2
			c2.8,0.8,5.2,2,7.4,3.5c2.1,1.6,3.9,3.5,5.3,5.9c1.4,2.4,2.2,5.2,2.5,8.5H350.8z"/>
		<path d="M371.5,46h11v10.2h0.2c0.3-1.4,1-2.8,2-4.2c1-1.4,2.2-2.6,3.6-3.7c1.4-1.1,3-2,4.7-2.7c1.7-0.7,3.4-1,5.2-1
			c1.4,0,2.3,0,2.8,0.1c0.5,0.1,1,0.1,1.6,0.2v11.3c-0.8-0.1-1.7-0.3-2.5-0.4c-0.9-0.1-1.7-0.2-2.5-0.2c-2,0-3.8,0.4-5.6,1.2
			c-1.7,0.8-3.3,1.9-4.6,3.5c-1.3,1.5-2.3,3.4-3.1,5.7c-0.8,2.3-1.1,4.8-1.1,7.8v25.2h-11.7V46z"/>
		<path d="M407.3,25.9H419v11.1h-11.7V25.9z M407.3,46H419v52.9h-11.7V46z"/>
		<path d="M431.5,46h11.1v7.2h0.2c1.6-3.1,3.9-5.3,6.9-6.6c2.9-1.3,6.1-2,9.5-2c4.2,0,7.8,0.7,10.9,2.2c3.1,1.5,5.7,3.5,7.7,6
			c2,2.6,3.6,5.5,4.6,9c1,3.4,1.5,7.1,1.5,11c0,3.5-0.5,7-1.4,10.3c-0.9,3.3-2.3,6.3-4.2,8.9c-1.9,2.6-4.2,4.6-7.1,6.1
			c-2.9,1.5-6.2,2.3-10.1,2.3c-1.7,0-3.4-0.2-5.1-0.5c-1.7-0.3-3.3-0.8-4.9-1.5c-1.6-0.7-3-1.6-4.4-2.6c-1.3-1.1-2.4-2.3-3.3-3.7
			h-0.2v26.4h-11.7V46z M472.2,72.5c0-2.4-0.3-4.7-0.9-7s-1.5-4.2-2.8-6c-1.2-1.7-2.8-3.1-4.6-4.2c-1.8-1.1-4-1.6-6.3-1.6
			c-4.9,0-8.6,1.7-11.1,5.1c-2.5,3.4-3.7,8-3.7,13.6c0,2.7,0.3,5.1,1,7.4c0.6,2.3,1.6,4.2,2.9,5.9c1.3,1.6,2.8,2.9,4.7,3.9
			c1.8,1,3.9,1.4,6.3,1.4c2.7,0,4.9-0.5,6.8-1.6c1.8-1.1,3.4-2.5,4.6-4.2c1.2-1.7,2-3.7,2.6-5.9C472,77.1,472.2,74.9,472.2,72.5z"/>
		<path d="M487.9,46h8.8V30.2h11.7V46h10.5v8.7h-10.5V83c0,1.2,0.1,2.3,0.2,3.2c0.1,0.9,0.3,1.6,0.7,2.3c0.4,0.6,0.9,1.1,1.7,1.4
			c0.8,0.3,1.8,0.5,3.1,0.5c0.8,0,1.6,0,2.5-0.1c0.8,0,1.6-0.2,2.5-0.4v9c-1.3,0.1-2.6,0.3-3.8,0.4s-2.5,0.2-3.8,0.2
			c-3.1,0-5.5-0.3-7.4-0.9c-1.9-0.6-3.3-1.4-4.4-2.6c-1.1-1.1-1.8-2.5-2.1-4.2c-0.4-1.7-0.6-3.6-0.7-5.8V54.7h-8.8V46z"/>
	</g>
</g>
<g id="Layer_5" class="st0">
	<g class="st1">
		<path d="M77.9,95.1c-3.2,0.7-4.5,0.7-6-2.3L72,93c-0.6-1.8-0.7-4.3-0.8-7.4c-0.1-4.4-0.5-10.7-1.7-16.4c0-0.2-0.1-0.1-1.7-7.2
			c-0.8-1.2-1.2-2.5-1.5-3.5c-0.1-0.2-0.1-0.3-0.1-0.6c-0.1-0.8-0.5-1.5-0.7-1.7h0.1c-0.8-0.9-1.1-1.6-1.4-2.3
			c-0.7-1.7-1.6-2.6-3.8-2.9c-1.7-0.2-4.9,0.5-5.9,0.8c-4.8,2.6-6.8,4.3-8.8,6h0.1l-0.8,0.9c-1.4,1.5-2.6,3.1-2.4,4.2l0.9,3.6v-0.1
			l0.2,1.4c1.4,4.9,2.7,10.6,2.7,16c0,1.8-0.1,3.4-0.3,4.9v-0.1c-0.1,0.3-0.1,0.8-0.1,1.2v-0.1c-0.5,2.9-0.8,4.2-4.6,4.6
			c-0.1,0-0.2,0.1-0.3,0.1c-0.7,0.2-1.9,0.5-3.5,0c-1.2-1.4-1.7-2.4-2-3.3l-0.7-1.5l-1.5-2.5v0.2c-1.5-2.7-1.9-5.8-1.9-8.9
			c0-2.4,0.2-4.5,0.6-6.8c0-0.3,0.2-1.1,0.2-1.6c0.3-2.3,0.7-5.9,0.8-8.1c-0.5-2-1.6-3.6-2.7-5l-1.6-2.1c-1.7-2.3-3.5-4.5-6-4.5
			c-3.5,0-6.6,1.4-8.6,4.3c0,0.2-0.1,0.8-0.1,1.1c-0.6,3.7-1.1,8.1-1.1,11.7c0,1.1-0.6,12.9,0.1,19c0,0.9,0.1,1.8,0.1,2.7
			c0,2.5-0.2,4.6-0.7,5.3c-1,1.5-2.6,2-3.8,2.4l-3.2-0.8l-0.8-0.5c-0.8-0.5-1.6-1-2-1.8l0.1,0.1C2.1,91.5,2,89.9,2,88.6
			c0-1.7,0.1-3.2,0.3-4.8c0,0,0.1-0.2,0.1-0.3c0-1,0.2-2.3,0.3-3.3c0-0.3,0.1-0.9,0.1-1.4L2.8,64.6c0-2.3,0.1-5.2,0.3-7.2
			c0-0.6-0.1-2-0.2-2.7c0-0.1-0.1-0.2-0.1-0.3c-0.2-1.2-0.5-2.4-0.5-3.6c0-1.6,0.5-3.2,1.9-4.6c1.9-1.6,3.3-2.1,4.3-2.1
			s1.9,0.9,2.8,2.4c2.4-2.4,6.4-4.4,10.1-4.4c1.2-0.2,2.8,0.1,4.6,0.3c2.4,0.5,5.1,1.9,6.6,3.3c2.4,1.9,4,4.2,5.5,7
			c0,0.5,0.5,0.8,0.9,1.2l1.5-1.4c1-1,3.3-3.4,5.7-4.5l2-1.1c1.9-1.1,4.5-2.5,7.2-3.1c2.6-0.5,6.2-0.9,9.1-0.3
			c6.7,2.1,9.4,8,11.2,13l0.2,1.1h0.1c2.9,8,4.3,18.2,5.3,27.2C81.7,87.9,81.1,91.4,77.9,95.1z"/>
		<path d="M152.2,90.4c-0.9,2.8-6.6,7.4-10.1,7.4c-2.5,0-6.1-0.2-8.5-1.4c-2.4-1.1-6.9-6.8-9.5-11.1l-1.6,2.5c0,0.1-0.1,0.2-0.2,0.3
			l-0.5,0.7v-0.1c-1,1.7-2.4,3.1-4,4.2c-4.2,2.1-12.2,4.3-16.6,4.3c-4.9,0-11.4-3.4-13.1-8v0.1c-0.8-1.9-1.2-4.4-1.2-6.7
			c0-7.1,2.7-15.6,7.5-21.7c4.2-5.5,9.1-10.4,17.1-10.4c2.6,0,5.7,0.5,7.2,2.1c0.1,0.2,0.6,0.7,0.8,0.9c1.1,1.1,2.8,2.8,3.8,3.3
			c0.9,0.2,1.8,0.7,3.3,0.7h0.6c0.1,0,0.2-0.1,0.3-0.1c1,2.8,1.1,5.1,1.1,7v3.5c0,7.7,3.1,15.6,7.5,20.9c1,1.2,2,2.7,4.5,2.7
			c2.3,0,4.5-0.1,6.7-1.2c0,0,0.2-0.5,0.3-0.6c0.9-0.9,1.6-1.4,2.5-1.4c0.3,0,0.7,0,0.9,0.1L152.2,90.4z M119.4,69.8l-1-4.9
			c-0.9-0.9-1.5-1.8-1.8-2.5c-1.2-1.6-3.3-3.2-5-4c-4.9,1.2-8.9,5.9-11.3,10.3c-2.4,3.8-4.2,7.1-4.2,11.5c0,3.1,0.5,6.3,2.3,7.9
			c0.5,0.5,1.7,0.5,2.6,0.5h0.7c10.4,0,18.3-5.3,18.3-16.4C120,72.4,119.6,70.8,119.4,69.8z"/>
		<path d="M196.4,91.7c-0.2,1.9-0.6,3.8-1.9,5.7c-0.1,2-2.6,3.3-4.1,3.3c-1.6,0-2-0.5-2.8-1.1c-0.2-0.2-0.6-0.3-1.4-0.5
			c-0.6-1.8-0.5-1.8-0.5-2.3c0-1.2,0.3-1.9,0.8-2.7c0,0,0-0.1,0.1-0.2V94c0.3-0.7,0.8-1.1,0.1-2.7l0.9-1.1v-1.2
			c0-5.8-1.6-11.1-3.1-16.6c-0.9-1.9-4.3-12.4-13.7-12.4c-8.8,0-12.8,5.2-12.8,14.3c0,3.6,1.2,8.3,2.4,11.9l0.7,2.3
			c-0.5,0.8-0.5,1.4-0.5,1.9c0,0.6,0.1,1.2,0.2,1.9c0.1,0.7,0.2,1.6,0.2,2.5c0,2.6-2.1,4.2-5,4.2c-1.6,0-2.7-0.7-3.5-1.6
			c-0.3-0.2-0.6-0.7-1-0.9c-1.4-2-1.9-4.2-1.9-6.4c0-1.1-0.1-2.1-0.2-3.3c-0.1-0.7-0.1-1.5-0.1-2.1c-0.1-1.9-0.2-4.1-0.2-5.4
			c0-1.9-0.3-5.4-1-7l-1.4-7.6c-0.8-1.6-1.6-3.3-1.6-4.8c0-1.1,0.5-1.9,1.4-3.1c1.2-0.3,2-0.5,2.5-0.5c2.5,0,4,1.2,4.8,2.7
			c3.7-4.1,9.1-6.1,13.9-6.9c1.7-0.3,3.4-0.5,5.1-0.5c14.5,0,18,11.8,20.6,21.5l1,3.4l0.5,1.6c1,2.8,1.6,6.1,1.6,9.3L196.4,91.7z
			 M186.7,93.6c0,0,0.1,0,0.1-0.2L186.7,93.6z"/>
		<path d="M257.5,93.8c-2.7,1.5-5.1,2.7-8.5,2.7c-7.2,0-9.8-4.8-12.7-10.4c-4.8,7-11.1,12.8-19.7,12.8c-15.5,0-16.3-14.5-16.3-25.3
			v-2.7c0-5.3,0-8.7,0.7-14.7c0.3-1.8,2.7-3.1,4.5-3.2c3.5-0.3,5,1.8,5,4.8c0,0.6,0,1.8-0.1,2.6c-0.1,0.7-0.2,2-0.2,3.1
			c-0.2,3.2-0.5,7-0.5,11c0,8.7,1,17.3,6.4,17.3c8.1,0,16.3-10.6,16.3-18.6c0-3.3-0.2-5-0.5-6.7c-0.2-1.9-0.3-4.4-0.2-8.1
			c0.1-1.8,2.5-3.5,4.8-3.5c0.2,0,0.8,0,1.8,0.5l-0.1-0.1c3.7,2.1,3.7,4.6,3.7,7.4c0,1,0,2.1,0.1,3.1c0.2,1,0,1.5-0.1,2l0.1-0.1
			c-0.2,0.3-0.2,0.7-0.2,1.4c0,8.1,1.5,16.5,8,21.6v-0.1c1.5,1.4,5.2-1.8,6-4.2h3.6c0.8,0.8,1.1,1.7,1.1,2.1
			C260.7,89.2,258.5,93.3,257.5,93.8z"/>
		<path d="M288.6,97c-4.8,2-8.7,2.9-12,2.9c-2.6,0-5.4-0.7-8.7-1.6l-2.5-0.5c-1.5-0.7-2.9-1.2-4-1.8l-2.5-1.2l-0.9-0.9
			c-0.1,0-0.3-0.6-0.5-0.7c-0.9-1-2-2.6-2-4.3c0-0.3,0.6-2,1-3.7c6,4.8,12.6,8,18.2,8c3.1,0,14.1-2.4,14.1-5.9
			c0-2.1-5.5-3.8-11.4-6.1l-3.2-1.1c-6.3-2.3-13.1-5.3-16.4-9.2c-1.9-2.3-3.5-4.9-3.5-6.9c0-3.3,2.8-5.8,5.2-7.8l2.6-2.3
			c4.2-3.7,7.4-6.4,15.3-6.4c3.6,0,4.1,0.2,4.8,1c0.2,0.3,2.1,2.1,2.6,2.6c0.3,1.1,0.5,1.5,0.8,2.3l0.2,0.5l0.6,0.8
			c0.6,1.1,1.2,2.4,1.2,4.1c0,1.2-0.9,2.9-2.6,4.6c-3.2-1.6-4.1-2.5-4.8-3.5l-0.6-0.6h0.1c-1.5-1.6-2.9-3.2-4.6-3.2
			c-2.4,0-12.1,5.4-12.1,7.9c0,1.5,0.5,2.3,1.7,3.2v-0.1c4.2,3.7,9.4,5.5,13.8,6.9c3.3,0.8,7.6,2.1,10,3.4c4.3,1.9,9.1,5.4,9.1,10.4
			C297.7,91.2,291.6,96.1,288.6,97z M285.7,53v0.5h0.1L285.7,53z"/>
		<path d="M348.4,86.7c-6.4,7-16.2,11.2-23.5,11.2c-2.6,0-5.5-0.7-8.4-1.5c-7.1,0-17.1-13-17.1-19.9c0-10.9,7.6-27.8,21-27.8
			c1.8,0,3.6,0.5,5.3,1.6c3.1,0.1,4.1,1.9,5.1,3.6v-0.1l0.5,0.7c0.5,1,0.9,1.5,1.9,1.5c2.6,3.4,4.8,7.6,4.8,11.2
			c0,1.4-0.6,3.2-1.9,5.2h-1.7c-5.5,0-7.4-5.2-8.7-9.6c-1.1-3.6-2.1-6.6-4.6-6.6c-5.1,0-12.2,10.7-12.2,15.5
			c0,11,5.1,18.9,16.3,18.9c5.5,0,9.5-2,13.1-3.7c2.7-1.2,5.1-2.5,7.7-2.5h2.5V86.7z"/>
		<path d="M386.6,55.3c-0.1,1.6-0.9,2-2.6,2c-0.1,0-0.5-0.2-0.9-0.5c-0.8,0.1-1.9-0.2-2.7-0.6c0,0-0.6,0.1-1.1,0.1h-3.7
			c-10,0-16.6,11.3-16.6,20.6c0,3.6,0.7,7.4,1.2,10.6l0.5,2.3c0,0.2,0.1,0.5,0.1,0.6c0,0.3,0.1,0.8,0.3,1.1l-0.1-0.1
			c0.3,1.4,0.6,2.8,0.6,3.7c0,3.4-3.1,4.4-5.9,3.8c-2.5-0.7-3.5-6.3-4.5-11.3l-0.2-1c-0.1-1.1-0.8-3.7-1.7-6.6
			c-0.3-1-0.6-2.3-0.9-3.5c-1.2-4.8-3.1-11.3-3.1-12.3c0-0.7-0.1-1.9-0.2-2.7c-0.2-2.6-0.5-5.7,1.2-7.7l-0.1,0.2
			c0.8-0.7,1.8-1.5,2.9-1.5c3.3,0,4.4,3.8,5.4,7.9c4.3-6,13.1-11.1,19-11.1c3.6,0,8.4,2.1,12,3.8l0.5,0.2
			C386.3,54.4,386.5,55.5,386.6,55.3z"/>
		<path d="M399.7,42.6c-0.5,0.8-1.8,1.5-4.2,1.5c-0.9,0-1.7,0.1-2.9,0.1c-1.9-0.2-3.8-2-3.8-4.3c0-2.8,2.3-4.5,5.3-4.5
			c2.1,0,5.2,1.5,5.7,4.4l-0.2,0.5c0,0.5,0.1,0.8,0.1,1c0.1,0.3,0.2,0.8,0.2,1L399.7,42.6z M401.3,97.1c-1.8,0-4.6-0.9-5.5-3.2
			c-0.5-1.7-1.2-5-1.5-6.9c-0.2-2-0.3-4.8-0.5-7.5c-0.3-5-0.8-11-2-15.2l-0.8-3.4c0-0.8,0-1.5,0.2-2.1c0-0.2,0.1-0.7,0.1-0.9
			c0-2.6,1.9-3.6,4.1-3.6c2,0,4.3,1.2,4.5,3.2c0.1,1,0.2,2.3,0.5,3.2l0.5,2.7c1.4,7.8,3.3,20,3.1,21.8c-0.1,1,0.1,2.3,0.5,3.5
			c0.5,1.4,0.7,2.5,0.7,3.7C405,94.1,404,97.1,401.3,97.1z"/>
		<path d="M450.5,58.7c-0.1,0.9-1.1,2.8-3.2,4.5l-0.2-1.7c-1.2,0.2-8.8,2.6-9.2,2.7c-2.9,1.1-4.4,1.6-7.7,2.4c0,1.2,0.1,2,0.2,2.5
			c0,0.5,0.1,0.7,0.1,1.1c0.3,4.4,0.8,10.5,1.8,14.4c1.2,4.3,2.8,8.4,4.9,8.4c0.7,0,3.1-2.1,5.3-5.3c0.8,1.7,1.7,3.4,1.7,4
			c0,0.9-2.4,4.2-3.3,5.2l-3.6,1.5c-0.9,0.3-1.8,0.7-3.5,0.7c-4.6,0-7.8-5.9-10-12.1c-1.8-6.2-2.9-15-3.4-19c-1.7,0-2,0.2-2.5,0.3
			c-1.2,0.6-3.1,0.9-4.8,0.9c-0.3,0-1,0.1-1.6,0.3c-1.8,0.5-3.7,0.7-4.6-1l-2.5-3.4c2.7-2.8,8.5-5.1,12.9-5.4l1.8-0.1
			c-0.7-5.1-0.9-10.1-0.9-14.7c0-4.3,0.3-8.3,0.7-10.2c0.9-0.2,4.4-3.8,3.4-2.7c2.9,0.3,5.8,2.1,7.6,7.9c0,2.7-0.6,2.5-0.8,3.8
			l0.1,14l3.8-0.6c3.5-0.5,7.8-0.9,10.3-0.9c2,0,4.2,0.2,5.8,0.8L450.5,58.7z"/>
		<path d="M515,90.4c-0.9,2.8-6.6,7.4-10.1,7.4c-2.5,0-6.1-0.2-8.5-1.4c-2.4-1.1-6.9-6.8-9.5-11.1l-1.6,2.5c0,0.1-0.1,0.2-0.2,0.3
			l-0.5,0.7v-0.1c-1,1.7-2.4,3.1-4,4.2c-4.2,2.1-12.2,4.3-16.6,4.3c-4.9,0-11.4-3.4-13.1-8v0.1c-0.8-1.9-1.2-4.4-1.2-6.7
			c0-7.1,2.7-15.6,7.5-21.7c4.2-5.5,9.1-10.4,17.1-10.4c2.6,0,5.7,0.5,7.2,2.1c0.1,0.2,0.6,0.7,0.8,0.9c1.1,1.1,2.8,2.8,3.8,3.3
			c0.9,0.2,1.8,0.7,3.3,0.7h0.6c0.1,0,0.2-0.1,0.3-0.1c1,2.8,1.1,5.1,1.1,7v3.5c0,7.7,3.1,15.6,7.5,20.9c1,1.2,2,2.7,4.5,2.7
			c2.3,0,4.5-0.1,6.7-1.2c0,0,0.2-0.5,0.3-0.6c0.9-0.9,1.6-1.4,2.5-1.4c0.3,0,0.7,0,0.9,0.1L515,90.4z M482.2,69.8l-1-4.9
			c-0.9-0.9-1.5-1.8-1.8-2.5c-1.2-1.6-3.3-3.2-5-4c-4.9,1.2-8.9,5.9-11.3,10.3c-2.4,3.8-4.2,7.1-4.2,11.5c0,3.1,0.5,6.3,2.3,7.9
			c0.5,0.5,1.7,0.5,2.6,0.5h0.7c10.4,0,18.3-5.3,18.3-16.4C482.8,72.4,482.4,70.8,482.2,69.8z"/>
	</g>
</g>
<g id="Layer_6">
	<g>
		<path d="M77.9,95.1c-3.2,0.7-4.5,0.7-6-2.3L72,93c-0.6-1.8-0.7-4.3-0.8-7.4c-0.1-4.4-0.5-10.7-1.7-16.4c0-0.2-0.1-0.1-1.7-7.2
			c-0.8-1.2-1.2-2.5-1.5-3.5c-0.1-0.2-0.1-0.3-0.1-0.6c-0.1-0.8-0.5-1.5-0.7-1.7h0.1c-0.8-0.9-1.1-1.6-1.4-2.3
			c-0.7-1.7-1.6-2.6-3.8-2.9c-1.7-0.2-4.9,0.5-5.9,0.8c-4.8,2.6-6.8,4.3-8.8,6h0.1l-0.8,0.9c-1.4,1.5-2.6,3.1-2.4,4.2l0.9,3.6v-0.1
			l0.2,1.4c1.4,4.9,2.7,10.6,2.7,16c0,1.8-0.1,3.4-0.3,4.9v-0.1c-0.1,0.3-0.1,0.8-0.1,1.2v-0.1c-0.5,2.9-0.8,4.2-4.6,4.6
			c-0.1,0-0.2,0.1-0.3,0.1c-0.7,0.2-1.9,0.5-3.5,0c-1.2-1.4-1.7-2.4-2-3.3l-0.7-1.5l-1.5-2.5v0.2c-1.5-2.7-1.9-5.8-1.9-8.9
			c0-2.4,0.2-4.5,0.6-6.8c0-0.3,0.2-1.1,0.2-1.6c0.3-2.3,0.7-5.9,0.8-8.1c-0.5-2-1.6-3.6-2.7-5l-1.6-2.1c-1.7-2.3-3.5-4.5-6-4.5
			c-3.5,0-6.6,1.4-8.6,4.3c0,0.2-0.1,0.8-0.1,1.1c-0.6,3.7-1.1,8.1-1.1,11.7c0,1.1-0.6,12.9,0.1,19c0,0.9,0.1,1.8,0.1,2.7
			c0,2.5-0.2,4.6-0.7,5.3c-1,1.5-2.6,2-3.8,2.4l-3.2-0.8l-0.8-0.5c-0.8-0.5-1.6-1-2-1.8l0.1,0.1C2.1,91.5,2,89.9,2,88.6
			c0-1.7,0.1-3.2,0.3-4.8c0,0,0.1-0.2,0.1-0.3c0-1,0.2-2.3,0.3-3.3c0-0.3,0.1-0.9,0.1-1.4L2.8,64.6c0-2.3,0.1-5.2,0.3-7.2
			c0-0.6-0.1-2-0.2-2.7c0-0.1-0.1-0.2-0.1-0.3c-0.2-1.2-0.5-2.4-0.5-3.6c0-1.6,0.5-3.2,1.9-4.6c1.9-1.6,3.3-2.1,4.3-2.1
			s1.9,0.9,2.8,2.4c2.4-2.4,6.4-4.4,10.1-4.4c1.2-0.2,2.8,0.1,4.6,0.3c2.4,0.5,5.1,1.9,6.6,3.3c2.4,1.9,4,4.2,5.5,7
			c0,0.5,0.5,0.8,0.9,1.2l1.5-1.4c1-1,3.3-3.4,5.7-4.5l2-1.1c1.9-1.1,4.5-2.5,7.2-3.1c2.6-0.5,6.2-0.9,9.1-0.3
			c6.7,2.1,9.4,8,11.2,13l0.2,1.1h0.1c2.9,8,4.3,18.2,5.3,27.2C81.7,87.9,81.1,91.4,77.9,95.1z"/>
		<path d="M152.2,90.4c-0.9,2.8-6.6,7.4-10.1,7.4c-2.5,0-6.1-0.2-8.5-1.4c-2.4-1.1-6.9-6.8-9.5-11.1l-1.6,2.5c0,0.1-0.1,0.2-0.2,0.3
			l-0.5,0.7v-0.1c-1,1.7-2.4,3.1-4,4.2c-4.2,2.1-12.2,4.3-16.6,4.3c-4.9,0-11.4-3.4-13.1-8v0.1c-0.8-1.9-1.2-4.4-1.2-6.7
			c0-7.1,2.7-15.6,7.5-21.7c4.2-5.5,9.1-10.4,17.1-10.4c2.6,0,5.7,0.5,7.2,2.1c0.1,0.2,0.6,0.7,0.8,0.9c1.1,1.1,2.8,2.8,3.8,3.3
			c0.9,0.2,1.8,0.7,3.3,0.7h0.6c0.1,0,0.2-0.1,0.3-0.1c1,2.8,1.1,5.1,1.1,7v3.5c0,7.7,3.1,15.6,7.5,20.9c1,1.2,2,2.7,4.5,2.7
			c2.3,0,4.5-0.1,6.7-1.2c0,0,0.2-0.5,0.3-0.6c0.9-0.9,1.6-1.4,2.5-1.4c0.3,0,0.7,0,0.9,0.1L152.2,90.4z M119.4,69.8l-1-4.9
			c-0.9-0.9-1.5-1.8-1.8-2.5c-1.2-1.6-3.3-3.2-5-4c-4.9,1.2-8.9,5.9-11.3,10.3c-2.4,3.8-4.2,7.1-4.2,11.5c0,3.1,0.5,6.3,2.3,7.9
			c0.5,0.5,1.7,0.5,2.6,0.5h0.7c10.4,0,18.3-5.3,18.3-16.4C120,72.4,119.6,70.8,119.4,69.8z"/>
		<path d="M196.4,91.7c-0.2,1.9-0.6,3.8-1.9,5.7c-0.1,2-2.6,3.3-4.1,3.3c-1.6,0-2-0.5-2.8-1.1c-0.2-0.2-0.6-0.3-1.4-0.5
			c-0.6-1.8-0.5-1.8-0.5-2.3c0-1.2,0.3-1.9,0.8-2.7c0,0,0-0.1,0.1-0.2V94c0.3-0.7,0.8-1.1,0.1-2.7l0.9-1.1v-1.2
			c0-5.8-1.6-11.1-3.1-16.6c-0.9-1.9-4.3-12.4-13.7-12.4c-8.8,0-12.8,5.2-12.8,14.3c0,3.6,1.2,8.3,2.4,11.9l0.7,2.3
			c-0.5,0.8-0.5,1.4-0.5,1.9c0,0.6,0.1,1.2,0.2,1.9c0.1,0.7,0.2,1.6,0.2,2.5c0,2.6-2.1,4.2-5,4.2c-1.6,0-2.7-0.7-3.5-1.6
			c-0.3-0.2-0.6-0.7-1-0.9c-1.4-2-1.9-4.2-1.9-6.4c0-1.1-0.1-2.1-0.2-3.3c-0.1-0.7-0.1-1.5-0.1-2.1c-0.1-1.9-0.2-4.1-0.2-5.4
			c0-1.9-0.3-5.4-1-7l-1.4-7.6c-0.8-1.6-1.6-3.3-1.6-4.8c0-1.1,0.5-1.9,1.4-3.1c1.2-0.3,2-0.5,2.5-0.5c2.5,0,4,1.2,4.8,2.7
			c3.7-4.1,9.1-6.1,13.9-6.9c1.7-0.3,3.4-0.5,5.1-0.5c14.5,0,18,11.8,20.6,21.5l1,3.4l0.5,1.6c1,2.8,1.6,6.1,1.6,9.3L196.4,91.7z
			 M186.7,93.6c0,0,0.1,0,0.1-0.2L186.7,93.6z"/>
		<path d="M257.5,93.8c-2.7,1.5-5.1,2.7-8.5,2.7c-7.2,0-9.8-4.8-12.7-10.4c-4.8,7-11.1,12.8-19.7,12.8c-15.5,0-16.3-14.5-16.3-25.3
			v-2.7c0-5.3,0-8.7,0.7-14.7c0.3-1.8,2.7-3.1,4.5-3.2c3.5-0.3,5,1.8,5,4.8c0,0.6,0,1.8-0.1,2.6c-0.1,0.7-0.2,2-0.2,3.1
			c-0.2,3.2-0.5,7-0.5,11c0,8.7,1,17.3,6.4,17.3c8.1,0,16.3-10.6,16.3-18.6c0-3.3-0.2-5-0.5-6.7c-0.2-1.9-0.3-4.4-0.2-8.1
			c0.1-1.8,2.5-3.5,4.8-3.5c0.2,0,0.8,0,1.8,0.5l-0.1-0.1c3.7,2.1,3.7,4.6,3.7,7.4c0,1,0,2.1,0.1,3.1c0.2,1,0,1.5-0.1,2l0.1-0.1
			c-0.2,0.3-0.2,0.7-0.2,1.4c0,8.1,1.5,16.5,8,21.6v-0.1c1.5,1.4,5.2-1.8,6-4.2h3.6c0.8,0.8,1.1,1.7,1.1,2.1
			C260.7,89.2,258.5,93.3,257.5,93.8z"/>
		<path d="M288.6,97c-4.8,2-8.7,2.9-12,2.9c-2.6,0-5.4-0.7-8.7-1.6l-2.5-0.5c-1.5-0.7-2.9-1.2-4-1.8l-2.5-1.2l-0.9-0.9
			c-0.1,0-0.3-0.6-0.5-0.7c-0.9-1-2-2.6-2-4.3c0-0.3,0.6-2,1-3.7c6,4.8,12.6,8,18.2,8c3.1,0,14.1-2.4,14.1-5.9
			c0-2.1-5.5-3.8-11.4-6.1l-3.2-1.1c-6.3-2.3-13.1-5.3-16.4-9.2c-1.9-2.3-3.5-4.9-3.5-6.9c0-3.3,2.8-5.8,5.2-7.8l2.6-2.3
			c4.2-3.7,7.4-6.4,15.3-6.4c3.6,0,4.1,0.2,4.8,1c0.2,0.3,2.1,2.1,2.6,2.6c0.3,1.1,0.5,1.5,0.8,2.3l0.2,0.5l0.6,0.8
			c0.6,1.1,1.2,2.4,1.2,4.1c0,1.2-0.9,2.9-2.6,4.6c-3.2-1.6-4.1-2.5-4.8-3.5l-0.6-0.6h0.1c-1.5-1.6-2.9-3.2-4.6-3.2
			c-2.4,0-12.1,5.4-12.1,7.9c0,1.5,0.5,2.3,1.7,3.2v-0.1c4.2,3.7,9.4,5.5,13.8,6.9c3.3,0.8,7.6,2.1,10,3.4c4.3,1.9,9.1,5.4,9.1,10.4
			C297.7,91.2,291.6,96.1,288.6,97z M285.7,53v0.5h0.1L285.7,53z"/>
		<path d="M348.4,86.7c-6.4,7-16.2,11.2-23.5,11.2c-2.6,0-5.5-0.7-8.4-1.5c-7.1,0-17.1-13-17.1-19.9c0-10.9,7.6-27.8,21-27.8
			c1.8,0,3.6,0.5,5.3,1.6c3.1,0.1,4.1,1.9,5.1,3.6v-0.1l0.5,0.7c0.5,1,0.9,1.5,1.9,1.5c2.6,3.4,4.8,7.6,4.8,11.2
			c0,1.4-0.6,3.2-1.9,5.2h-1.7c-5.5,0-7.4-5.2-8.7-9.6c-1.1-3.6-2.1-6.6-4.6-6.6c-5.1,0-12.2,10.7-12.2,15.5
			c0,11,5.1,18.9,16.3,18.9c5.5,0,9.5-2,13.1-3.7c2.7-1.2,5.1-2.5,7.7-2.5h2.5V86.7z"/>
		<path d="M386.6,55.3c-0.1,1.6-0.9,2-2.6,2c-0.1,0-0.5-0.2-0.9-0.5c-0.8,0.1-1.9-0.2-2.7-0.6c0,0-0.6,0.1-1.1,0.1h-3.7
			c-10,0-16.6,11.3-16.6,20.6c0,3.6,0.7,7.4,1.2,10.6l0.5,2.3c0,0.2,0.1,0.5,0.1,0.6c0,0.3,0.1,0.8,0.3,1.1l-0.1-0.1
			c0.3,1.4,0.6,2.8,0.6,3.7c0,3.4-3.1,4.4-5.9,3.8c-2.5-0.7-3.5-6.3-4.5-11.3l-0.2-1c-0.1-1.1-0.8-3.7-1.7-6.6
			c-0.3-1-0.6-2.3-0.9-3.5c-1.2-4.8-3.1-11.3-3.1-12.3c0-0.7-0.1-1.9-0.2-2.7c-0.2-2.6-0.5-5.7,1.2-7.7l-0.1,0.2
			c0.8-0.7,1.8-1.5,2.9-1.5c3.3,0,4.4,3.8,5.4,7.9c4.3-6,13.1-11.1,19-11.1c3.6,0,8.4,2.1,12,3.8l0.5,0.2
			C386.3,54.4,386.5,55.5,386.6,55.3z"/>
		<path d="M399.7,42.6c-0.5,0.8-1.8,1.5-4.2,1.5c-0.9,0-1.7,0.1-2.9,0.1c-1.9-0.2-3.8-2-3.8-4.3c0-2.8,2.3-4.5,5.3-4.5
			c2.1,0,5.2,1.5,5.7,4.4l-0.2,0.5c0,0.5,0.1,0.8,0.1,1c0.1,0.3,0.2,0.8,0.2,1L399.7,42.6z M401.3,97.1c-1.8,0-4.6-0.9-5.5-3.2
			c-0.5-1.7-1.2-5-1.5-6.9c-0.2-2-0.3-4.8-0.5-7.5c-0.3-5-0.8-11-2-15.2l-0.8-3.4c0-0.8,0-1.5,0.2-2.1c0-0.2,0.1-0.7,0.1-0.9
			c0-2.6,1.9-3.6,4.1-3.6c2,0,4.3,1.2,4.5,3.2c0.1,1,0.2,2.3,0.5,3.2l0.5,2.7c1.4,7.8,3.3,20,3.1,21.8c-0.1,1,0.1,2.3,0.5,3.5
			c0.5,1.4,0.7,2.5,0.7,3.7C405,94.1,404,97.1,401.3,97.1z"/>
		<path d="M451.9,92.1c-4.4,4.4-10.9,6.1-17.8,6.1c-4.6,0-9.2-1.8-12.3-3.2l0.8,10.7v-0.2l1,13.2l0.5,4.5c0.2,2.1,0.5,4.8,0.5,7
			c0,1.9-0.1,5.7-4.3,6.6c-0.8-0.6-1.2-0.9-1.6-0.9c-1.5-0.5-2.9-0.8-3.2-2.7c-0.5-2.7-0.7-7.8-0.9-11.2v-3.7
			c-0.1-3.2-0.2-7-0.7-9.8c-0.6-4.1-0.8-8.1-1-12c0-0.7-0.1-1.2-0.1-1.8c0-1.4-0.1-3.1-0.2-4.8c-1.8-1.5-2.5-2.5-3.1-3.6l0.1,0.3
			l-0.2-0.6l-0.6-1.1c-0.5-0.8-0.7-1.5-1.6-2.5c0-0.9,0.5-1.8,1.4-2.4l0.5-0.2c0.9,0,2.2,0.5,3.4,1.1l-0.6-8.6
			c-0.3-3.6-0.6-7.8-0.6-10.7c0-2.1,1.7-6.6,5-6.6c1.2,0,2.6,0.8,3.5,1.7c4-3.4,10.9-5.3,14.3-5.3c4.5,0,8.5,1.5,11.9,3.7
			c3.4,2.3,6.1,5,8,7.9c1.7,3.2,3.6,11.2,3.6,14C457.4,83.9,455.3,88.7,451.9,92.1z M442.3,61.7c-2.6-1.9-5.8-2.9-9.3-2.9
			c-6.8,0-9.2,4.5-11.2,9.7c0.2,1.7,0.1,5.1,0,7.8c-0.1,2.5-0.2,4.4-0.2,6.4c0,1.7,0,3.5,0.3,5l1.9,0.6l2,0.7
			c3.2,1.2,7.2,2.3,10.2,2.3c4.3,0,8.1-1.9,10.5-4.8c2.3-2.8,3.4-7,2.9-11.5C448.9,69.2,446.2,64.5,442.3,61.7z"/>
		<path d="M500.7,58.7c-0.1,0.9-1.1,2.8-3.2,4.5l-0.2-1.7c-1.2,0.2-8.8,2.6-9.2,2.7c-2.9,1.1-4.4,1.6-7.7,2.4c0,1.2,0.1,2,0.2,2.5
			c0,0.5,0.1,0.7,0.1,1.1c0.3,4.4,0.8,10.5,1.8,14.4c1.2,4.3,2.8,8.4,4.9,8.4c0.7,0,3.1-2.1,5.3-5.3c0.8,1.7,1.7,3.4,1.7,4
			c0,0.9-2.4,4.2-3.3,5.2l-3.6,1.5c-0.9,0.3-1.8,0.7-3.5,0.7c-4.6,0-7.8-5.9-10-12.1c-1.8-6.2-2.9-15-3.4-19c-1.7,0-2,0.2-2.5,0.3
			c-1.2,0.6-3.1,0.9-4.8,0.9c-0.3,0-1,0.1-1.6,0.3c-1.8,0.5-3.7,0.7-4.6-1l-2.5-3.4c2.7-2.8,8.5-5.1,12.9-5.4l1.8-0.1
			c-0.7-5.1-0.9-10.1-0.9-14.7c0-4.3,0.3-8.3,0.7-10.2c0.9-0.2,4.4-3.8,3.4-2.7c2.9,0.3,5.8,2.1,7.6,7.9c0,2.7-0.6,2.5-0.8,3.8
			l0.1,14l3.8-0.6c3.5-0.5,7.8-0.9,10.3-0.9c2,0,4.2,0.2,5.8,0.8L500.7,58.7z"/>
	</g>
</g>
</svg>
