<?xml version="1.0" encoding="iso-8859-1"?>
<!-- Generator: Adobe Illustrator 23.0.4, SVG Export Plug-In . SVG Version: 6.00 Build 0)  -->
<svg version="1.1" id="Layer_1" xmlns="http://www.w3.org/2000/svg" xmlns:xlink="http://www.w3.org/1999/xlink" x="0px" y="0px"
	 viewBox="0 0 720 504" style="enable-background:new 0 0 720 504;" xml:space="preserve">
<path id="path3408" style="fill:#00247D;" d="M0,0v504h720V0L0,0z"/>
<g id="g3504" transform="matrix(0.99923007,0,0,0.99796116,-41.704693,34.67408)">
	<path id="path3410" style="fill:#FFFFFF;" d="M41.82-34.597l-0.062,57.113l279.593,195.821L41.837,413.984l-0.1,56.096l80.52,0.136
		l279.589-195.571l280.086,195.574l80.341,0.066l-0.002-55.772L482.364,218.338L762.255,22.474l0.036-57.199l-80.059-0.02
		L401.845,161.998L120.943-34.649L41.82-34.597z"/>
	<g id="g3475" transform="matrix(1.000467,0,0,1.0025461,-90.083492,-1.0167386)">
		<path id="path3473" style="fill:#CF142B;" d="M491.55,218.855l53.679-0.27l306.748,215.049l-0.503,36.184L491.55,218.855
			L491.55,218.855z M797.609-33.642l52.019,0.104L491.521,218.973l-0.024-37.843L797.614-33.642L797.609-33.642z M284.629,110.3
			L131.759,3.062v-36.704l359.839,252.411l-53.031,0.097L284.629,110.3L284.629,110.3z M491.532,218.772v36.704L185.458,470.057
			l-53.527,0.047L491.532,218.772L491.532,218.772z"/>
	</g>
</g>
<g id="g3457" transform="matrix(0.99923007,0,0,0.99796116,-71.704693,6.7005857)">
	<g id="g3500">
		<path id="path3414" style="fill:#FFFFFF;" d="M371.991-6.714v168.343H71.76v168.343h300.231v168.343h120.092V329.972h300.231
			V161.629H492.083V-6.714L371.991-6.714L371.991-6.714z"/>
		<path id="path3416" style="fill:#CF142B;" d="M396.01-6.714v202.012H71.76v101.006h324.25v202.012h72.055V296.304h324.25V195.298
			h-324.25V-6.714C468.065-6.714,396.01-6.714,396.01-6.714z"/>
	</g>
</g>
</svg>
