<?xml version="1.0" encoding="iso-8859-1"?>
<!-- Generator: Adobe Illustrator 23.0.4, SVG Export Plug-In . SVG Version: 6.00 Build 0)  -->
<svg version="1.1" id="Layer_1" xmlns="http://www.w3.org/2000/svg" xmlns:xlink="http://www.w3.org/1999/xlink" x="0px" y="0px"
	 viewBox="0 0 720 504" style="enable-background:new 0 0 720 504;" xml:space="preserve">
<rect x="0" y="0" style="fill:#009B3A;" width="720" height="504"/>
<path style="fill:#FEDF00;" d="M61.2,252L360,442.8L658.8,252L360,61.2L61.2,252z"/>
<circle style="fill:#002776;" cx="360" cy="252" r="126"/>
<g>
	<defs>
		<circle id="SVGID_1_" cx="360" cy="252" r="126"/>
	</defs>
	<clipPath id="SVGID_2_">
		<use xlink:href="#SVGID_1_"  style="overflow:visible;"/>
	</clipPath>
	<path style="clip-path:url(#SVGID_2_);fill:#FFFFFF;" d="M-18,504c0-168.999,137.001-306,306-306s306,137.001,306,306h-18
		c0-159.058-128.942-288-288-288S0,344.942,0,504H-18z"/>
</g>
<g transform="translate(-420,1470)">
	<g transform="rotate(-7)">
		<path id="O" style="fill-rule:evenodd;clip-rule:evenodd;fill:#009B3A;" d="M672.536-1254.831c2.96-0.363,5.032-3.324,4.629-6.613
			c-0.404-3.289-3.131-5.661-6.091-5.297c-2.96,0.363-5.032,3.324-4.629,6.613C666.849-1256.839,669.576-1254.468,672.536-1254.831
			 M672.264-1257.043c1.739-0.214,2.942-2.062,2.688-4.13s-1.869-3.57-3.607-3.357c-1.738,0.214-2.942,2.062-2.688,4.13
			C668.911-1258.332,670.526-1256.829,672.264-1257.043"/>
	</g>
	<g transform="rotate(-4)">
		<g id="R">
			<g>
				<path id="P" style="fill-rule:evenodd;clip-rule:evenodd;fill:#009B3A;" d="M682.314-1255.914l2.223-0.156l-0.311-4.446
					l4.788-0.335c2.078-0.145,3.644-1.948,3.499-4.025c-0.145-2.078-1.948-3.645-4.025-3.499l-6.84,0.478L682.314-1255.914z
					 M684.071-1262.739l4.617-0.323c0.85-0.059,1.491-0.797,1.431-1.647c-0.059-0.85-0.797-1.491-1.647-1.431l-4.617,0.323
					L684.071-1262.739z"/>
			</g>
			<path style="fill:#009B3A;" d="M692.489-1256.626c-0.12-1.71-0.383-5.472-2.948-5.293l-3.249,0.227
				c3.762-0.263,4.025,3.499,4.145,5.209"/>
		</g>
	</g>
	<g transform="rotate(-1)">
		<path id="D" style="fill-rule:evenodd;clip-rule:evenodd;fill:#009B3A;" d="M697.522-1256.861l5.656-0.099
			c2.84-0.05,5.102-2.392,5.052-5.232l-0.03-1.714c-0.05-2.84-2.392-5.102-5.232-5.052l-5.656,0.099L697.522-1256.861z
			 M699.711-1259.129l3.257-0.057c1.799-0.031,3.231-1.515,3.2-3.313l-0.018-1.028c-0.031-1.799-1.515-3.231-3.314-3.2l-3.257,0.057
			L699.711-1259.129z"/>
	</g>
	<g transform="rotate(2)">
		<path id="E" style="fill:#009B3A;" d="M712.759-1257.011l10.793,0.377l0.078-2.227l-8.738-0.305l0.108-3.084l6.853,0.239
			l0.072-2.056l-6.853-0.239l0.084-2.398l8.224,0.287l0.078-2.227l-10.279-0.359L712.759-1257.011z"/>
	</g>
	<g transform="rotate(5)">
		<path id="M" style="fill:#009B3A;" d="M727.983-1256.363l2.049,0.179l0.717-8.197l1.674,8.406l1.879,0.164l3.108-7.988
			l-0.717,8.197l2.049,0.179l1.046-11.954l-2.989-0.261l-3.108,7.988l-1.674-8.406l-2.989-0.261L727.983-1256.363z"/>
	</g>
	<g transform="rotate(9.75)">
		<path id="e" style="fill:#009B3A;" d="M752.846-1253.559l8.87,1.524l0.348-2.027l-6.843-1.176l0.465-2.703l5.575,0.958
			l0.348-2.027l-5.575-0.958l0.319-1.859l6.631,1.14l0.348-2.027l-8.659-1.488L752.846-1253.559z"/>
	</g>
	<g transform="rotate(14.5)">
		<path style="fill-rule:evenodd;clip-rule:evenodd;fill:#009B3A;" d="M775.633-1249.083l2.158,0.558l1.116-4.315l4.647,1.202
			c2.017,0.522,4.074-0.69,4.596-2.707c0.521-2.017-0.69-4.074-2.707-4.596l-6.639-1.717L775.633-1249.083z M779.464-1254.998
			l4.481,1.159c0.825,0.213,1.667-0.282,1.88-1.107c0.213-0.825-0.282-1.667-1.107-1.88l-4.481-1.159L779.464-1254.998z"/>
	</g>
	<g transform="rotate(17.5)">
		<g>
			<g>
				<path style="fill-rule:evenodd;clip-rule:evenodd;fill:#009B3A;" d="M790.355-1245.155l2.125,0.67l1.34-4.251l4.578,1.443
					c1.987,0.626,4.105-0.476,4.731-2.463c0.626-1.987-0.476-4.105-2.463-4.731l-6.54-2.062L790.355-1245.155z M794.491-1250.862
					l4.414,1.392c0.813,0.256,1.679-0.195,1.935-1.008c0.256-0.813-0.195-1.679-1.008-1.935l-4.414-1.392L794.491-1250.862z"/>
			</g>
			<path style="fill:#009B3A;" d="M800.083-1242.088c0.515-1.635,1.65-5.232-0.803-6.005l-3.106-0.979
				c3.597,1.134,2.463,4.731,1.947,6.366"/>
		</g>
	</g>
	<g transform="rotate(20.5)">
		<path style="fill-rule:evenodd;clip-rule:evenodd;fill:#009B3A;" d="M809.91-1238.572c2.793,1.044,5.999-0.625,7.159-3.729
			c1.16-3.104-0.163-6.467-2.957-7.511s-5.999,0.625-7.159,3.729C805.793-1242.979,807.117-1239.616,809.91-1238.572
			 M810.691-1240.659c1.641,0.613,3.562-0.471,4.291-2.422c0.729-1.951-0.009-4.03-1.65-4.643c-1.641-0.613-3.562,0.471-4.291,2.422
			C808.312-1243.351,809.05-1241.272,810.691-1240.659"/>
	</g>
	<g transform="rotate(23.5)">
		<g id="G">
			<g>
				<defs>
					<path id="SVGID_3_" d="M819.084-1235.018l4.785-11.005l9.904,4.307l-4.785,11.005L819.084-1235.018z M827.249-1240.253
						l-0.82,1.887l4.952,2.153l0.82-1.886L827.249-1240.253z"/>
				</defs>
				<clipPath id="SVGID_4_">
					<use xlink:href="#SVGID_3_"  style="overflow:visible;"/>
				</clipPath>
				<g style="clip-path:url(#SVGID_4_);">
					<path style="fill-rule:evenodd;clip-rule:evenodd;fill:#009B3A;" d="M824.036-1232.865c2.735,1.189,6.023-0.31,7.345-3.349
						c1.321-3.039,0.175-6.466-2.56-7.656s-6.023,0.31-7.345,3.349C820.155-1237.481,821.301-1234.054,824.036-1232.865
						 M824.925-1234.908c1.606,0.698,3.582-0.284,4.412-2.194s0.202-4.025-1.405-4.723c-1.606-0.698-3.582,0.284-4.412,2.194
						S823.318-1235.607,824.925-1234.908"/>
				</g>
			</g>
			
				<rect x="828.099" y="-1238.605" transform="matrix(0.3987 -0.9171 0.9171 0.3987 1632.2023 16.8557)" style="fill:#009B3A;" width="1.714" height="4.543"/>
			
				<rect x="826.398" y="-1234.661" transform="matrix(0.3987 -0.9171 0.9171 0.3987 1630.149 18.7822)" style="fill:#009B3A;" width="6" height="1.714"/>
		</g>
	</g>
	<g transform="rotate(26.5)">
		<g>
			<g>
				<path style="fill-rule:evenodd;clip-rule:evenodd;fill:#009B3A;" d="M833.011-1228.835l1.994,0.994l1.989-3.989l4.296,2.142
					c1.864,0.929,4.129,0.172,5.058-1.692c0.929-1.864,0.172-4.129-1.692-5.058l-6.137-3.06L833.011-1228.835z M837.988-1233.824
					l4.142,2.065c0.763,0.38,1.689,0.07,2.069-0.692s0.07-1.689-0.692-2.069l-4.142-2.065L837.988-1233.824z"/>
			</g>
			<path style="fill:#009B3A;" d="M842.139-1224.284c0.765-1.534,2.448-4.909,0.146-6.057l-2.915-1.453
				c3.375,1.683,1.692,5.058,0.927,6.592"/>
		</g>
	</g>
	<g transform="rotate(29.5)">
		<path style="fill:#009B3A;" d="M846.595-1221.933l9.4,5.318l1.097-1.94l-7.609-4.305l1.519-2.686l5.968,3.377l1.013-1.79
			l-5.968-3.377l1.182-2.089l7.162,4.052l1.097-1.94l-8.952-5.065L846.595-1221.933z"/>
	</g>
	<g transform="rotate(32.5)">
		<path id="S" style="fill:#009B3A;" d="M864.103-1216.058c-0.645,1.012,0.009,2.14,1.455,3.061c1.446,0.921,2.43,0.888,2.846,0.238
			c1.313-2.06-6.276-5.065-3.937-8.657c2.016-3.085,5.467-0.684,6.768,0.145s3.391,2.973,1.766,5.444l-2.205-1.405
			c0.691-1.084-0.068-2.127-1.225-2.864c-1.12-0.714-2.031-1.04-2.699,0.008c-1.118,1.676,6.318,4.838,4.039,8.417
			c-1.681,2.639-4.606,1.487-6.558,0.243c-1.663-1.059-4.147-3.557-2.528-6.082L864.103-1216.058z"/>
	</g>
	<g transform="rotate(35.5)">
		<path style="fill:#009B3A;" d="M876.977-1207.546c-0.697,0.977-0.103,2.137,1.292,3.133s2.381,1.014,2.83,0.387
			c1.419-1.989-6.002-5.387-3.478-8.851c2.175-2.976,5.495-0.397,6.751,0.499c1.256,0.896,3.23,3.147,1.478,5.529l-2.128-1.518
			c0.747-1.047,0.043-2.127-1.073-2.924c-1.082-0.771-1.974-1.145-2.695-0.133c-1.205,1.615,6.057,5.162,3.593,8.616
			c-1.817,2.547-4.677,1.244-6.561-0.1c-1.605-1.145-3.955-3.769-2.206-6.206L876.977-1207.546z"/>
	</g>
	<g transform="rotate(38.5)">
		<path style="fill-rule:evenodd;clip-rule:evenodd;fill:#009B3A;" d="M889.152-1193.739c2.334,1.857,5.898,1.259,7.961-1.334
			c2.063-2.593,1.843-6.201-0.491-8.057s-5.898-1.259-7.961,1.334C886.598-1199.203,886.818-1195.596,889.152-1193.739
			 M890.539-1195.483c1.371,1.09,3.533,0.653,4.83-0.977c1.297-1.63,1.237-3.835-0.134-4.926c-1.371-1.09-3.533-0.653-4.83,0.977
			C889.108-1198.779,889.168-1196.573,890.539-1195.483"/>
	</g>
</g>
<g id="&#x3B1;CMi">
	<g id="star1" transform="scale(31.5)">
		<g id="star">
			<g id="c">
				<path id="t" style="fill:#FFFFFF;" d="M257.143,223.971l-1.669,5.136l2.568,0.834"/>
				<g transform="scale(-1,1)">
					<path style="fill:#FFFFFF;" d="M257.143,223.971l1.669,5.136l-2.568,0.834"/>
				</g>
			</g>
			<g transform="rotate(72)">
				<g>
					<path style="fill:#FFFFFF;" d="M262.279,227.703h-5.4v2.7"/>
					<g transform="scale(-1,1)">
						<path style="fill:#FFFFFF;" d="M262.279,227.703l-4.369,3.174l-1.587-2.184"/>
					</g>
				</g>
			</g>
			<g transform="rotate(-72)">
				<g>
					<path style="fill:#FFFFFF;" d="M252.007,227.703l4.369,3.174l1.587-2.184"/>
					<g transform="scale(-1,1)">
						<path style="fill:#FFFFFF;" d="M252.007,227.703h5.4v2.7"/>
					</g>
				</g>
			</g>
			<g transform="rotate(144)">
				<g>
					<path style="fill:#FFFFFF;" d="M260.317,233.74l-1.669-5.136l-2.568,0.834"/>
					<g transform="scale(-1,1)">
						<path style="fill:#FFFFFF;" d="M260.317,233.74l-4.369-3.174l1.587-2.184"/>
					</g>
				</g>
			</g>
			<g transform="rotate(216)">
				<g>
					<path style="fill:#FFFFFF;" d="M253.969,233.74l4.369-3.174l-1.587-2.184"/>
					<g transform="scale(-1,1)">
						<path style="fill:#FFFFFF;" d="M253.969,233.74l1.669-5.136l2.568,0.834"/>
					</g>
				</g>
			</g>
		</g>
	</g>
</g>
<g id="&#x3B1;CMa">
	<g transform="scale(31.5)">
		<g>
			<g>
				<path style="fill:#FFFFFF;" d="M268.286,276.943l-1.669,5.136l2.568,0.834"/>
				<g transform="scale(-1,1)">
					<path style="fill:#FFFFFF;" d="M268.286,276.943l1.669,5.136l-2.568,0.834"/>
				</g>
			</g>
			<g transform="rotate(72)">
				<g>
					<path style="fill:#FFFFFF;" d="M273.421,280.674h-5.4v2.7"/>
					<g transform="scale(-1,1)">
						<path style="fill:#FFFFFF;" d="M273.421,280.674l-4.369,3.174l-1.587-2.184"/>
					</g>
				</g>
			</g>
			<g transform="rotate(-72)">
				<g>
					<path style="fill:#FFFFFF;" d="M263.15,280.674l4.369,3.174l1.587-2.184"/>
					<g transform="scale(-1,1)">
						<path style="fill:#FFFFFF;" d="M263.15,280.674h5.4v2.7"/>
					</g>
				</g>
			</g>
			<g transform="rotate(144)">
				<g>
					<path style="fill:#FFFFFF;" d="M271.46,286.712l-1.669-5.136l-2.568,0.834"/>
					<g transform="scale(-1,1)">
						<path style="fill:#FFFFFF;" d="M271.46,286.712l-4.369-3.174l1.587-2.184"/>
					</g>
				</g>
			</g>
			<g transform="rotate(216)">
				<g>
					<path style="fill:#FFFFFF;" d="M265.112,286.712l4.369-3.174l-1.587-2.184"/>
					<g transform="scale(-1,1)">
						<path style="fill:#FFFFFF;" d="M265.112,286.712l1.669-5.136l2.568,0.834"/>
					</g>
				</g>
			</g>
		</g>
	</g>
</g>
<g id="&#x3B2;CMa">
	<g id="star2" transform="scale(26.25)">
		<g>
			<g>
				<path style="fill:#FFFFFF;" d="M252.857,289.157l-1.391,4.28l2.14,0.695"/>
				<g transform="scale(-1,1)">
					<path style="fill:#FFFFFF;" d="M252.857,289.157l1.391,4.28l-2.14,0.695"/>
				</g>
			</g>
			<g transform="rotate(72)">
				<g>
					<path style="fill:#FFFFFF;" d="M257.137,292.267h-4.5v2.25"/>
					<g transform="scale(-1,1)">
						<path style="fill:#FFFFFF;" d="M257.137,292.267l-3.641,2.645l-1.323-1.82"/>
					</g>
				</g>
			</g>
			<g transform="rotate(-72)">
				<g>
					<path style="fill:#FFFFFF;" d="M248.577,292.267l3.641,2.645l1.323-1.82"/>
					<g transform="scale(-1,1)">
						<path style="fill:#FFFFFF;" d="M248.577,292.267h4.5v2.25"/>
					</g>
				</g>
			</g>
			<g transform="rotate(144)">
				<g>
					<path style="fill:#FFFFFF;" d="M255.502,297.298l-1.391-4.28l-2.14,0.695"/>
					<g transform="scale(-1,1)">
						<path style="fill:#FFFFFF;" d="M255.502,297.298l-3.641-2.645l1.323-1.82"/>
					</g>
				</g>
			</g>
			<g transform="rotate(216)">
				<g>
					<path style="fill:#FFFFFF;" d="M250.212,297.298l3.641-2.645l-1.323-1.82"/>
					<g transform="scale(-1,1)">
						<path style="fill:#FFFFFF;" d="M250.212,297.298l1.391-4.28l2.14,0.695"/>
					</g>
				</g>
			</g>
		</g>
	</g>
</g>
<g id="&#x3B3;CMa">
	<g id="star4" transform="scale(15)">
		<g>
			<g>
				<path style="fill:#FFFFFF;" d="M280.629,272.057l-0.795,2.446l1.223,0.397"/>
				<g transform="scale(-1,1)">
					<path style="fill:#FFFFFF;" d="M280.629,272.057l0.795,2.446L280.2,274.9"/>
				</g>
			</g>
			<g transform="rotate(72)">
				<g>
					<path style="fill:#FFFFFF;" d="M283.074,273.834h-2.571v1.286"/>
					<g transform="scale(-1,1)">
						<path style="fill:#FFFFFF;" d="M283.074,273.834l-2.08,1.511l-0.756-1.04"/>
					</g>
				</g>
			</g>
			<g transform="rotate(-72)">
				<g>
					<path style="fill:#FFFFFF;" d="M278.183,273.834l2.08,1.511l0.756-1.04"/>
					<g transform="scale(-1,1)">
						<path style="fill:#FFFFFF;" d="M278.183,273.834h2.571v1.286"/>
					</g>
				</g>
			</g>
			<g transform="rotate(144)">
				<g>
					<path style="fill:#FFFFFF;" d="M282.14,276.709l-0.795-2.446l-1.223,0.397"/>
					<g transform="scale(-1,1)">
						<path style="fill:#FFFFFF;" d="M282.14,276.709l-2.08-1.511l0.756-1.04"/>
					</g>
				</g>
			</g>
			<g transform="rotate(216)">
				<g>
					<path style="fill:#FFFFFF;" d="M279.117,276.709l2.08-1.511l-0.756-1.04"/>
					<g transform="scale(-1,1)">
						<path style="fill:#FFFFFF;" d="M279.117,276.709l0.795-2.446l1.223,0.397"/>
					</g>
				</g>
			</g>
		</g>
	</g>
</g>
<g id="&#x3B4;CMa">
	<g transform="scale(26.25)">
		<g>
			<g>
				<path style="fill:#FFFFFF;" d="M294.514,290.357l-1.391,4.28l2.14,0.695"/>
				<g transform="scale(-1,1)">
					<path style="fill:#FFFFFF;" d="M294.514,290.357l1.391,4.28l-2.14,0.695"/>
				</g>
			</g>
			<g transform="rotate(72)">
				<g>
					<path style="fill:#FFFFFF;" d="M298.794,293.467h-4.5v2.25"/>
					<g transform="scale(-1,1)">
						<path style="fill:#FFFFFF;" d="M298.794,293.467l-3.641,2.645l-1.323-1.82"/>
					</g>
				</g>
			</g>
			<g transform="rotate(-72)">
				<g>
					<path style="fill:#FFFFFF;" d="M290.235,293.467l3.641,2.645l1.323-1.82"/>
					<g transform="scale(-1,1)">
						<path style="fill:#FFFFFF;" d="M290.235,293.467h4.5v2.25"/>
					</g>
				</g>
			</g>
			<g transform="rotate(144)">
				<g>
					<path style="fill:#FFFFFF;" d="M297.159,298.498l-1.391-4.28l-2.14,0.695"/>
					<g transform="scale(-1,1)">
						<path style="fill:#FFFFFF;" d="M297.159,298.498l-3.641-2.645l1.323-1.82"/>
					</g>
				</g>
			</g>
			<g transform="rotate(216)">
				<g>
					<path style="fill:#FFFFFF;" d="M291.869,298.498l3.641-2.645l-1.323-1.82"/>
					<g transform="scale(-1,1)">
						<path style="fill:#FFFFFF;" d="M291.869,298.498l1.391-4.28l2.14,0.695"/>
					</g>
				</g>
			</g>
		</g>
	</g>
</g>
<g id="&#x3B5;CMa">
	<g id="star3" transform="scale(21)">
		<g>
			<g>
				<path style="fill:#FFFFFF;" d="M290.743,303.771l-1.112,3.424l1.712,0.556"/>
				<g transform="scale(-1,1)">
					<path style="fill:#FFFFFF;" d="M290.743,303.771l1.112,3.424l-1.712,0.556"/>
				</g>
			</g>
			<g transform="rotate(72)">
				<g>
					<path style="fill:#FFFFFF;" d="M294.167,306.259h-3.6v1.8"/>
					<g transform="scale(-1,1)">
						<path style="fill:#FFFFFF;" d="M294.167,306.259l-2.912,2.116l-1.058-1.456"/>
					</g>
				</g>
			</g>
			<g transform="rotate(-72)">
				<g>
					<path style="fill:#FFFFFF;" d="M287.319,306.259l2.912,2.116l1.058-1.456"/>
					<g transform="scale(-1,1)">
						<path style="fill:#FFFFFF;" d="M287.319,306.259h3.6v1.8"/>
					</g>
				</g>
			</g>
			<g transform="rotate(144)">
				<g>
					<path style="fill:#FFFFFF;" d="M292.859,310.284l-1.112-3.424l-1.712,0.556"/>
					<g transform="scale(-1,1)">
						<path style="fill:#FFFFFF;" d="M292.859,310.284l-2.912-2.116l1.058-1.456"/>
					</g>
				</g>
			</g>
			<g transform="rotate(216)">
				<g>
					<path style="fill:#FFFFFF;" d="M288.627,310.284l2.912-2.116l-1.058-1.456"/>
					<g transform="scale(-1,1)">
						<path style="fill:#FFFFFF;" d="M288.627,310.284l1.112-3.424l1.712,0.556"/>
					</g>
				</g>
			</g>
		</g>
	</g>
</g>
<g id="&#x3B1;Vir">
	<g transform="scale(31.5)">
		<g>
			<g>
				<path style="fill:#FFFFFF;" d="M399.086,207.514l-1.669,5.136l2.568,0.834"/>
				<g transform="scale(-1,1)">
					<path style="fill:#FFFFFF;" d="M399.086,207.514l1.669,5.136l-2.568,0.834"/>
				</g>
			</g>
			<g transform="rotate(72)">
				<g>
					<path style="fill:#FFFFFF;" d="M404.221,211.246h-5.4v2.7"/>
					<g transform="scale(-1,1)">
						<path style="fill:#FFFFFF;" d="M404.221,211.246l-4.369,3.174l-1.587-2.184"/>
					</g>
				</g>
			</g>
			<g transform="rotate(-72)">
				<g>
					<path style="fill:#FFFFFF;" d="M393.95,211.246l4.369,3.174l1.587-2.184"/>
					<g transform="scale(-1,1)">
						<path style="fill:#FFFFFF;" d="M393.95,211.246h5.4v2.7"/>
					</g>
				</g>
			</g>
			<g transform="rotate(144)">
				<g>
					<path style="fill:#FFFFFF;" d="M402.26,217.283l-1.669-5.136l-2.568,0.834"/>
					<g transform="scale(-1,1)">
						<path style="fill:#FFFFFF;" d="M402.26,217.283l-4.369-3.174l1.587-2.184"/>
					</g>
				</g>
			</g>
			<g transform="rotate(216)">
				<g>
					<path style="fill:#FFFFFF;" d="M395.912,217.283l4.369-3.174l-1.587-2.184"/>
					<g transform="scale(-1,1)">
						<path style="fill:#FFFFFF;" d="M395.912,217.283l1.669-5.136l2.568,0.834"/>
					</g>
				</g>
			</g>
		</g>
	</g>
</g>
<g id="&#x3B1;Sco">
	<g transform="scale(31.5)">
		<g>
			<g>
				<path style="fill:#FFFFFF;" d="M448.286,290.829l-1.669,5.136l2.568,0.834"/>
				<g transform="scale(-1,1)">
					<path style="fill:#FFFFFF;" d="M448.286,290.829l1.669,5.136l-2.568,0.834"/>
				</g>
			</g>
			<g transform="rotate(72)">
				<g>
					<path style="fill:#FFFFFF;" d="M453.421,294.56h-5.4v2.7"/>
					<g transform="scale(-1,1)">
						<path style="fill:#FFFFFF;" d="M453.421,294.56l-4.369,3.174l-1.587-2.184"/>
					</g>
				</g>
			</g>
			<g transform="rotate(-72)">
				<g>
					<path style="fill:#FFFFFF;" d="M443.15,294.56l4.369,3.174l1.587-2.184"/>
					<g transform="scale(-1,1)">
						<path style="fill:#FFFFFF;" d="M443.15,294.56h5.4v2.7"/>
					</g>
				</g>
			</g>
			<g transform="rotate(144)">
				<g>
					<path style="fill:#FFFFFF;" d="M451.46,300.597l-1.669-5.136l-2.568,0.834"/>
					<g transform="scale(-1,1)">
						<path style="fill:#FFFFFF;" d="M451.46,300.597l-4.369-3.174l1.587-2.184"/>
					</g>
				</g>
			</g>
			<g transform="rotate(216)">
				<g>
					<path style="fill:#FFFFFF;" d="M445.112,300.597l4.369-3.174l-1.587-2.184"/>
					<g transform="scale(-1,1)">
						<path style="fill:#FFFFFF;" d="M445.112,300.597l1.669-5.136l2.568,0.834"/>
					</g>
				</g>
			</g>
		</g>
	</g>
</g>
<g id="&#x3B2;Sco">
	<g transform="scale(21)">
		<g>
			<g>
				<path style="fill:#FFFFFF;" d="M465.771,293.829l-1.112,3.424l1.712,0.556"/>
				<g transform="scale(-1,1)">
					<path style="fill:#FFFFFF;" d="M465.771,293.829l1.112,3.424l-1.712,0.556"/>
				</g>
			</g>
			<g transform="rotate(72)">
				<g>
					<path style="fill:#FFFFFF;" d="M469.195,296.316h-3.6v1.8"/>
					<g transform="scale(-1,1)">
						<path style="fill:#FFFFFF;" d="M469.195,296.316l-2.912,2.116l-1.058-1.456"/>
					</g>
				</g>
			</g>
			<g transform="rotate(-72)">
				<g>
					<path style="fill:#FFFFFF;" d="M462.348,296.316l2.912,2.116l1.058-1.456"/>
					<g transform="scale(-1,1)">
						<path style="fill:#FFFFFF;" d="M462.348,296.316h3.6v1.8"/>
					</g>
				</g>
			</g>
			<g transform="rotate(144)">
				<g>
					<path style="fill:#FFFFFF;" d="M467.887,300.341l-1.112-3.424l-1.712,0.556"/>
					<g transform="scale(-1,1)">
						<path style="fill:#FFFFFF;" d="M467.887,300.341l-2.912-2.116l1.058-1.456"/>
					</g>
				</g>
			</g>
			<g transform="rotate(216)">
				<g>
					<path style="fill:#FFFFFF;" d="M463.655,300.341l2.912-2.116l-1.058-1.456"/>
					<g transform="scale(-1,1)">
						<path style="fill:#FFFFFF;" d="M463.655,300.341l1.112-3.424l1.712,0.556"/>
					</g>
				</g>
			</g>
		</g>
	</g>
</g>
<g id="&#x3B5;Sco">
	<g transform="scale(26.25)">
		<g>
			<g>
				<path style="fill:#FFFFFF;" d="M453.429,302.871l-1.391,4.28l2.14,0.695"/>
				<g transform="scale(-1,1)">
					<path style="fill:#FFFFFF;" d="M453.429,302.871l1.391,4.28l-2.14,0.695"/>
				</g>
			</g>
			<g transform="rotate(72)">
				<g>
					<path style="fill:#FFFFFF;" d="M457.708,305.981h-4.5v2.25"/>
					<g transform="scale(-1,1)">
						<path style="fill:#FFFFFF;" d="M457.708,305.981l-3.641,2.645l-1.323-1.82"/>
					</g>
				</g>
			</g>
			<g transform="rotate(-72)">
				<g>
					<path style="fill:#FFFFFF;" d="M449.149,305.981l3.641,2.645l1.323-1.82"/>
					<g transform="scale(-1,1)">
						<path style="fill:#FFFFFF;" d="M449.149,305.981h4.5v2.25"/>
					</g>
				</g>
			</g>
			<g transform="rotate(144)">
				<g>
					<path style="fill:#FFFFFF;" d="M456.074,311.012l-1.391-4.28l-2.14,0.695"/>
					<g transform="scale(-1,1)">
						<path style="fill:#FFFFFF;" d="M456.074,311.012l-3.641-2.645l1.323-1.82"/>
					</g>
				</g>
			</g>
			<g transform="rotate(216)">
				<g>
					<path style="fill:#FFFFFF;" d="M450.784,311.012l3.641-2.645l-1.323-1.82"/>
					<g transform="scale(-1,1)">
						<path style="fill:#FFFFFF;" d="M450.784,311.012l1.391-4.28l2.14,0.695"/>
					</g>
				</g>
			</g>
		</g>
	</g>
</g>
<g id="&#x3B8;Sco">
	<g transform="scale(26.25)">
		<g>
			<g>
				<path style="fill:#FFFFFF;" d="M423.086,329.271l-1.391,4.28l2.14,0.695"/>
				<g transform="scale(-1,1)">
					<path style="fill:#FFFFFF;" d="M423.086,329.271l1.391,4.28l-2.14,0.695"/>
				</g>
			</g>
			<g transform="rotate(72)">
				<g>
					<path style="fill:#FFFFFF;" d="M427.365,332.381h-4.5v2.25"/>
					<g transform="scale(-1,1)">
						<path style="fill:#FFFFFF;" d="M427.365,332.381l-3.641,2.645l-1.323-1.82"/>
					</g>
				</g>
			</g>
			<g transform="rotate(-72)">
				<g>
					<path style="fill:#FFFFFF;" d="M418.806,332.381l3.641,2.645l1.323-1.82"/>
					<g transform="scale(-1,1)">
						<path style="fill:#FFFFFF;" d="M418.806,332.381h4.5v2.25"/>
					</g>
				</g>
			</g>
			<g transform="rotate(144)">
				<g>
					<path style="fill:#FFFFFF;" d="M425.731,337.412l-1.391-4.28l-2.14,0.695"/>
					<g transform="scale(-1,1)">
						<path style="fill:#FFFFFF;" d="M425.731,337.412l-3.641-2.645l1.323-1.82"/>
					</g>
				</g>
			</g>
			<g transform="rotate(216)">
				<g>
					<path style="fill:#FFFFFF;" d="M420.441,337.412l3.641-2.645l-1.323-1.82"/>
					<g transform="scale(-1,1)">
						<path style="fill:#FFFFFF;" d="M420.441,337.412l1.391-4.28l2.14,0.695"/>
					</g>
				</g>
			</g>
		</g>
	</g>
</g>
<g id="&#x3B9;Sco">
	<g transform="scale(21)">
		<g>
			<g>
				<path style="fill:#FFFFFF;" d="M422.914,342.857l-1.112,3.424l1.712,0.556"/>
				<g transform="scale(-1,1)">
					<path style="fill:#FFFFFF;" d="M422.914,342.857l1.112,3.424l-1.712,0.556"/>
				</g>
			</g>
			<g transform="rotate(72)">
				<g>
					<path style="fill:#FFFFFF;" d="M426.338,345.345h-3.6v1.8"/>
					<g transform="scale(-1,1)">
						<path style="fill:#FFFFFF;" d="M426.338,345.345l-2.912,2.116l-1.058-1.456"/>
					</g>
				</g>
			</g>
			<g transform="rotate(-72)">
				<g>
					<path style="fill:#FFFFFF;" d="M419.49,345.345l2.912,2.116l1.058-1.456"/>
					<g transform="scale(-1,1)">
						<path style="fill:#FFFFFF;" d="M419.49,345.345h3.6v1.8"/>
					</g>
				</g>
			</g>
			<g transform="rotate(144)">
				<g>
					<path style="fill:#FFFFFF;" d="M425.03,349.37l-1.112-3.424l-1.712,0.556"/>
					<g transform="scale(-1,1)">
						<path style="fill:#FFFFFF;" d="M425.03,349.37l-2.912-2.116l1.058-1.456"/>
					</g>
				</g>
			</g>
			<g transform="rotate(216)">
				<g>
					<path style="fill:#FFFFFF;" d="M420.798,349.37l2.912-2.116l-1.058-1.456"/>
					<g transform="scale(-1,1)">
						<path style="fill:#FFFFFF;" d="M420.798,349.37l1.112-3.424l1.712,0.556"/>
					</g>
				</g>
			</g>
		</g>
	</g>
</g>
<g id="&#x3BA;Sco">
	<g transform="scale(21)">
		<g>
			<g>
				<path style="fill:#FFFFFF;" d="M435.6,320.229l-1.112,3.424l1.712,0.556"/>
				<g transform="scale(-1,1)">
					<path style="fill:#FFFFFF;" d="M435.6,320.229l1.112,3.424l-1.712,0.556"/>
				</g>
			</g>
			<g transform="rotate(72)">
				<g>
					<path style="fill:#FFFFFF;" d="M439.024,322.716h-3.6v1.8"/>
					<g transform="scale(-1,1)">
						<path style="fill:#FFFFFF;" d="M439.024,322.716l-2.912,2.116l-1.058-1.456"/>
					</g>
				</g>
			</g>
			<g transform="rotate(-72)">
				<g>
					<path style="fill:#FFFFFF;" d="M432.176,322.716l2.912,2.116l1.058-1.456"/>
					<g transform="scale(-1,1)">
						<path style="fill:#FFFFFF;" d="M432.176,322.716h3.6v1.8"/>
					</g>
				</g>
			</g>
			<g transform="rotate(144)">
				<g>
					<path style="fill:#FFFFFF;" d="M437.716,326.741l-1.112-3.424l-1.712,0.556"/>
					<g transform="scale(-1,1)">
						<path style="fill:#FFFFFF;" d="M437.716,326.741l-2.912-2.116l1.058-1.456"/>
					</g>
				</g>
			</g>
			<g transform="rotate(216)">
				<g>
					<path style="fill:#FFFFFF;" d="M433.484,326.741l2.912-2.116l-1.058-1.456"/>
					<g transform="scale(-1,1)">
						<path style="fill:#FFFFFF;" d="M433.484,326.741l1.112-3.424l1.712,0.556"/>
					</g>
				</g>
			</g>
		</g>
	</g>
</g>
<g id="&#x3BB;Sco">
	<g transform="scale(26.25)">
		<g>
			<g>
				<path style="fill:#FFFFFF;" d="M445.714,312.986l-1.391,4.28l2.14,0.695"/>
				<g transform="scale(-1,1)">
					<path style="fill:#FFFFFF;" d="M445.714,312.986l1.391,4.28l-2.14,0.695"/>
				</g>
			</g>
			<g transform="rotate(72)">
				<g>
					<path style="fill:#FFFFFF;" d="M449.994,316.095h-4.5v2.25"/>
					<g transform="scale(-1,1)">
						<path style="fill:#FFFFFF;" d="M449.994,316.095l-3.641,2.645l-1.323-1.82"/>
					</g>
				</g>
			</g>
			<g transform="rotate(-72)">
				<g>
					<path style="fill:#FFFFFF;" d="M441.435,316.095l3.641,2.645l1.323-1.82"/>
					<g transform="scale(-1,1)">
						<path style="fill:#FFFFFF;" d="M441.435,316.095h4.5v2.25"/>
					</g>
				</g>
			</g>
			<g transform="rotate(144)">
				<g>
					<path style="fill:#FFFFFF;" d="M448.359,321.126l-1.391-4.28l-2.14,0.695"/>
					<g transform="scale(-1,1)">
						<path style="fill:#FFFFFF;" d="M448.359,321.126l-3.641-2.645l1.323-1.82"/>
					</g>
				</g>
			</g>
			<g transform="rotate(216)">
				<g>
					<path style="fill:#FFFFFF;" d="M443.069,321.126l3.641-2.645l-1.323-1.82"/>
					<g transform="scale(-1,1)">
						<path style="fill:#FFFFFF;" d="M443.069,321.126l1.391-4.28l2.14,0.695"/>
					</g>
				</g>
			</g>
		</g>
	</g>
</g>
<g id="&#x3BC;Sco">
	<g transform="scale(21)">
		<g>
			<g>
				<path style="fill:#FFFFFF;" d="M422.571,317.829l-1.112,3.424l1.712,0.556"/>
				<g transform="scale(-1,1)">
					<path style="fill:#FFFFFF;" d="M422.571,317.829l1.112,3.424l-1.712,0.556"/>
				</g>
			</g>
			<g transform="rotate(72)">
				<g>
					<path style="fill:#FFFFFF;" d="M425.995,320.316h-3.6v1.8"/>
					<g transform="scale(-1,1)">
						<path style="fill:#FFFFFF;" d="M425.995,320.316l-2.912,2.116l-1.058-1.456"/>
					</g>
				</g>
			</g>
			<g transform="rotate(-72)">
				<g>
					<path style="fill:#FFFFFF;" d="M419.148,320.316l2.912,2.116l1.058-1.456"/>
					<g transform="scale(-1,1)">
						<path style="fill:#FFFFFF;" d="M419.148,320.316h3.6v1.8"/>
					</g>
				</g>
			</g>
			<g transform="rotate(144)">
				<g>
					<path style="fill:#FFFFFF;" d="M424.687,324.341l-1.112-3.424l-1.712,0.556"/>
					<g transform="scale(-1,1)">
						<path style="fill:#FFFFFF;" d="M424.687,324.341l-2.912-2.116l1.058-1.456"/>
					</g>
				</g>
			</g>
			<g transform="rotate(216)">
				<g>
					<path style="fill:#FFFFFF;" d="M420.455,324.341l2.912-2.116l-1.058-1.456"/>
					<g transform="scale(-1,1)">
						<path style="fill:#FFFFFF;" d="M420.455,324.341l1.112-3.424l1.712,0.556"/>
					</g>
				</g>
			</g>
		</g>
	</g>
</g>
<g id="&#x3B1;Hya">
	<g transform="scale(26.25)">
		<g>
			<g>
				<path style="fill:#FFFFFF;" d="M312,252.643l-1.391,4.28l2.14,0.695"/>
				<g transform="scale(-1,1)">
					<path style="fill:#FFFFFF;" d="M312,252.643l1.391,4.28l-2.14,0.695"/>
				</g>
			</g>
			<g transform="rotate(72)">
				<g>
					<path style="fill:#FFFFFF;" d="M316.28,255.752h-4.5v2.25"/>
					<g transform="scale(-1,1)">
						<path style="fill:#FFFFFF;" d="M316.28,255.752l-3.641,2.645l-1.323-1.82"/>
					</g>
				</g>
			</g>
			<g transform="rotate(-72)">
				<g>
					<path style="fill:#FFFFFF;" d="M307.72,255.752l3.641,2.645l1.323-1.82"/>
					<g transform="scale(-1,1)">
						<path style="fill:#FFFFFF;" d="M307.72,255.752h4.5v2.25"/>
					</g>
				</g>
			</g>
			<g transform="rotate(144)">
				<g>
					<path style="fill:#FFFFFF;" d="M314.645,260.783l-1.391-4.28l-2.14,0.695"/>
					<g transform="scale(-1,1)">
						<path style="fill:#FFFFFF;" d="M314.645,260.783l-3.641-2.645l1.323-1.82"/>
					</g>
				</g>
			</g>
			<g transform="rotate(216)">
				<g>
					<path style="fill:#FFFFFF;" d="M309.355,260.783l3.641-2.645l-1.323-1.82"/>
					<g transform="scale(-1,1)">
						<path style="fill:#FFFFFF;" d="M309.355,260.783l1.391-4.28l2.14,0.695"/>
					</g>
				</g>
			</g>
		</g>
	</g>
</g>
<g id="&#x3B3;Hya">
	<g transform="scale(21)">
		<g>
			<g>
				<path style="fill:#FFFFFF;" d="M394.286,242.057l-1.112,3.424l1.712,0.556"/>
				<g transform="scale(-1,1)">
					<path style="fill:#FFFFFF;" d="M394.286,242.057l1.112,3.424l-1.712,0.556"/>
				</g>
			</g>
			<g transform="rotate(72)">
				<g>
					<path style="fill:#FFFFFF;" d="M397.71,244.545h-3.6v1.8"/>
					<g transform="scale(-1,1)">
						<path style="fill:#FFFFFF;" d="M397.71,244.545l-2.912,2.116l-1.058-1.456"/>
					</g>
				</g>
			</g>
			<g transform="rotate(-72)">
				<g>
					<path style="fill:#FFFFFF;" d="M390.862,244.545l2.912,2.116l1.058-1.456"/>
					<g transform="scale(-1,1)">
						<path style="fill:#FFFFFF;" d="M390.862,244.545h3.6v1.8"/>
					</g>
				</g>
			</g>
			<g transform="rotate(144)">
				<g>
					<path style="fill:#FFFFFF;" d="M396.402,248.57l-1.112-3.424l-1.712,0.556"/>
					<g transform="scale(-1,1)">
						<path style="fill:#FFFFFF;" d="M396.402,248.57l-2.912-2.116l1.058-1.456"/>
					</g>
				</g>
			</g>
			<g transform="rotate(216)">
				<g>
					<path style="fill:#FFFFFF;" d="M392.17,248.57l2.912-2.116l-1.058-1.456"/>
					<g transform="scale(-1,1)">
						<path style="fill:#FFFFFF;" d="M392.17,248.57l1.112-3.424l1.712,0.556"/>
					</g>
				</g>
			</g>
		</g>
	</g>
</g>
<g id="&#x3B1;Cru">
	<g transform="scale(31.5)">
		<g>
			<g>
				<path style="fill:#FFFFFF;" d="M360,303.171l-1.669,5.136l2.568,0.834"/>
				<g transform="scale(-1,1)">
					<path style="fill:#FFFFFF;" d="M360,303.171l1.669,5.136l-2.568,0.834"/>
				</g>
			</g>
			<g transform="rotate(72)">
				<g>
					<path style="fill:#FFFFFF;" d="M365.136,306.903h-5.4v2.7"/>
					<g transform="scale(-1,1)">
						<path style="fill:#FFFFFF;" d="M365.136,306.903l-4.369,3.174l-1.587-2.184"/>
					</g>
				</g>
			</g>
			<g transform="rotate(-72)">
				<g>
					<path style="fill:#FFFFFF;" d="M354.864,306.903l4.369,3.174l1.587-2.184"/>
					<g transform="scale(-1,1)">
						<path style="fill:#FFFFFF;" d="M354.864,306.903h5.4v2.7"/>
					</g>
				</g>
			</g>
			<g transform="rotate(144)">
				<g>
					<path style="fill:#FFFFFF;" d="M363.174,312.94l-1.669-5.136l-2.568,0.834"/>
					<g transform="scale(-1,1)">
						<path style="fill:#FFFFFF;" d="M363.174,312.94l-4.369-3.174l1.587-2.184"/>
					</g>
				</g>
			</g>
			<g transform="rotate(216)">
				<g>
					<path style="fill:#FFFFFF;" d="M356.826,312.94l4.369-3.174l-1.587-2.184"/>
					<g transform="scale(-1,1)">
						<path style="fill:#FFFFFF;" d="M356.826,312.94l1.669-5.136l2.568,0.834"/>
					</g>
				</g>
			</g>
		</g>
	</g>
</g>
<g id="&#x3B2;Cru">
	<g transform="scale(26.25)">
		<g>
			<g>
				<path style="fill:#FFFFFF;" d="M374.571,279.043l-1.391,4.28l2.14,0.695"/>
				<g transform="scale(-1,1)">
					<path style="fill:#FFFFFF;" d="M374.571,279.043l1.391,4.28l-2.14,0.695"/>
				</g>
			</g>
			<g transform="rotate(72)">
				<g>
					<path style="fill:#FFFFFF;" d="M378.851,282.152h-4.5v2.25"/>
					<g transform="scale(-1,1)">
						<path style="fill:#FFFFFF;" d="M378.851,282.152l-3.641,2.645l-1.323-1.82"/>
					</g>
				</g>
			</g>
			<g transform="rotate(-72)">
				<g>
					<path style="fill:#FFFFFF;" d="M370.292,282.152l3.641,2.645l1.323-1.82"/>
					<g transform="scale(-1,1)">
						<path style="fill:#FFFFFF;" d="M370.292,282.152h4.5v2.25"/>
					</g>
				</g>
			</g>
			<g transform="rotate(144)">
				<g>
					<path style="fill:#FFFFFF;" d="M377.216,287.183l-1.391-4.28l-2.14,0.695"/>
					<g transform="scale(-1,1)">
						<path style="fill:#FFFFFF;" d="M377.216,287.183l-3.641-2.645l1.323-1.82"/>
					</g>
				</g>
			</g>
			<g transform="rotate(216)">
				<g>
					<path style="fill:#FFFFFF;" d="M371.926,287.183l3.641-2.645l-1.323-1.82"/>
					<g transform="scale(-1,1)">
						<path style="fill:#FFFFFF;" d="M371.926,287.183l1.391-4.28l2.14,0.695"/>
					</g>
				</g>
			</g>
		</g>
	</g>
</g>
<g id="&#x3B3;Cru">
	<g transform="scale(26.25)">
		<g>
			<g>
				<path style="fill:#FFFFFF;" d="M360,267.729l-1.391,4.28l2.14,0.695"/>
				<g transform="scale(-1,1)">
					<path style="fill:#FFFFFF;" d="M360,267.729l1.391,4.28l-2.14,0.695"/>
				</g>
			</g>
			<g transform="rotate(72)">
				<g>
					<path style="fill:#FFFFFF;" d="M364.28,270.838h-4.5v2.25"/>
					<g transform="scale(-1,1)">
						<path style="fill:#FFFFFF;" d="M364.28,270.838l-3.641,2.645l-1.323-1.82"/>
					</g>
				</g>
			</g>
			<g transform="rotate(-72)">
				<g>
					<path style="fill:#FFFFFF;" d="M355.72,270.838l3.641,2.645l1.323-1.82"/>
					<g transform="scale(-1,1)">
						<path style="fill:#FFFFFF;" d="M355.72,270.838h4.5v2.25"/>
					</g>
				</g>
			</g>
			<g transform="rotate(144)">
				<g>
					<path style="fill:#FFFFFF;" d="M362.645,275.869l-1.391-4.28l-2.14,0.695"/>
					<g transform="scale(-1,1)">
						<path style="fill:#FFFFFF;" d="M362.645,275.869l-3.641-2.645l1.323-1.82"/>
					</g>
				</g>
			</g>
			<g transform="rotate(216)">
				<g>
					<path style="fill:#FFFFFF;" d="M357.355,275.869l3.641-2.645l-1.323-1.82"/>
					<g transform="scale(-1,1)">
						<path style="fill:#FFFFFF;" d="M357.355,275.869l1.391-4.28l2.14,0.695"/>
					</g>
				</g>
			</g>
		</g>
	</g>
</g>
<g id="&#x3B4;Cru">
	<g transform="scale(21)">
		<g>
			<g>
				<path style="fill:#FFFFFF;" d="M347.314,279.943l-1.112,3.424l1.712,0.556"/>
				<g transform="scale(-1,1)">
					<path style="fill:#FFFFFF;" d="M347.314,279.943l1.112,3.424l-1.712,0.556"/>
				</g>
			</g>
			<g transform="rotate(72)">
				<g>
					<path style="fill:#FFFFFF;" d="M350.738,282.43h-3.6v1.8"/>
					<g transform="scale(-1,1)">
						<path style="fill:#FFFFFF;" d="M350.738,282.43l-2.912,2.116l-1.058-1.456"/>
					</g>
				</g>
			</g>
			<g transform="rotate(-72)">
				<g>
					<path style="fill:#FFFFFF;" d="M343.89,282.43l2.912,2.116l1.058-1.456"/>
					<g transform="scale(-1,1)">
						<path style="fill:#FFFFFF;" d="M343.89,282.43h3.6v1.8"/>
					</g>
				</g>
			</g>
			<g transform="rotate(144)">
				<g>
					<path style="fill:#FFFFFF;" d="M349.43,286.455l-1.112-3.424l-1.712,0.556"/>
					<g transform="scale(-1,1)">
						<path style="fill:#FFFFFF;" d="M349.43,286.455l-2.912-2.116l1.058-1.456"/>
					</g>
				</g>
			</g>
			<g transform="rotate(216)">
				<g>
					<path style="fill:#FFFFFF;" d="M345.198,286.455l2.912-2.116l-1.058-1.456"/>
					<g transform="scale(-1,1)">
						<path style="fill:#FFFFFF;" d="M345.198,286.455l1.112-3.424l1.712,0.556"/>
					</g>
				</g>
			</g>
		</g>
	</g>
</g>
<g id="&#x3B5;Cru">
	<g transform="scale(15)">
		<g>
			<g>
				<path style="fill:#FFFFFF;" d="M353.657,289.714l-0.795,2.446l1.223,0.397"/>
				<g transform="scale(-1,1)">
					<path style="fill:#FFFFFF;" d="M353.657,289.714l0.795,2.446l-1.223,0.397"/>
				</g>
			</g>
			<g transform="rotate(72)">
				<g>
					<path style="fill:#FFFFFF;" d="M356.103,291.491h-2.571v1.286"/>
					<g transform="scale(-1,1)">
						<path style="fill:#FFFFFF;" d="M356.103,291.491l-2.08,1.511l-0.756-1.04"/>
					</g>
				</g>
			</g>
			<g transform="rotate(-72)">
				<g>
					<path style="fill:#FFFFFF;" d="M351.212,291.491l2.08,1.511l0.756-1.04"/>
					<g transform="scale(-1,1)">
						<path style="fill:#FFFFFF;" d="M351.212,291.491h2.571v1.286"/>
					</g>
				</g>
			</g>
			<g transform="rotate(144)">
				<g>
					<path style="fill:#FFFFFF;" d="M355.169,294.366l-0.795-2.446l-1.223,0.397"/>
					<g transform="scale(-1,1)">
						<path style="fill:#FFFFFF;" d="M355.169,294.366l-2.08-1.511l0.756-1.04"/>
					</g>
				</g>
			</g>
			<g transform="rotate(216)">
				<g>
					<path style="fill:#FFFFFF;" d="M352.146,294.366l2.08-1.511l-0.756-1.04"/>
					<g transform="scale(-1,1)">
						<path style="fill:#FFFFFF;" d="M352.146,294.366l0.795-2.446l1.223,0.397"/>
					</g>
				</g>
			</g>
		</g>
	</g>
</g>
<g id="&#x3B1;TrA">
	<g transform="scale(26.25)">
		<g>
			<g>
				<path style="fill:#FFFFFF;" d="M397.714,332.357l-1.391,4.28l2.14,0.695"/>
				<g transform="scale(-1,1)">
					<path style="fill:#FFFFFF;" d="M397.714,332.357l1.391,4.28l-2.14,0.695"/>
				</g>
			</g>
			<g transform="rotate(72)">
				<g>
					<path style="fill:#FFFFFF;" d="M401.994,335.467h-4.5v2.25"/>
					<g transform="scale(-1,1)">
						<path style="fill:#FFFFFF;" d="M401.994,335.467l-3.641,2.645l-1.323-1.82"/>
					</g>
				</g>
			</g>
			<g transform="rotate(-72)">
				<g>
					<path style="fill:#FFFFFF;" d="M393.435,335.467l3.641,2.645l1.323-1.82"/>
					<g transform="scale(-1,1)">
						<path style="fill:#FFFFFF;" d="M393.435,335.467h4.5v2.25"/>
					</g>
				</g>
			</g>
			<g transform="rotate(144)">
				<g>
					<path style="fill:#FFFFFF;" d="M400.359,340.498l-1.391-4.28l-2.14,0.695"/>
					<g transform="scale(-1,1)">
						<path style="fill:#FFFFFF;" d="M400.359,340.498l-3.641-2.645l1.323-1.82"/>
					</g>
				</g>
			</g>
			<g transform="rotate(216)">
				<g>
					<path style="fill:#FFFFFF;" d="M395.069,340.498l3.641-2.645l-1.323-1.82"/>
					<g transform="scale(-1,1)">
						<path style="fill:#FFFFFF;" d="M395.069,340.498l1.391-4.28l2.14,0.695"/>
					</g>
				</g>
			</g>
		</g>
	</g>
</g>
<g id="&#x3B2;TrA">
	<g transform="scale(21)">
		<g>
			<g>
				<path style="fill:#FFFFFF;" d="M408.514,322.114l-1.112,3.424l1.712,0.556"/>
				<g transform="scale(-1,1)">
					<path style="fill:#FFFFFF;" d="M408.514,322.114l1.112,3.424l-1.712,0.556"/>
				</g>
			</g>
			<g transform="rotate(72)">
				<g>
					<path style="fill:#FFFFFF;" d="M411.938,324.602h-3.6v1.8"/>
					<g transform="scale(-1,1)">
						<path style="fill:#FFFFFF;" d="M411.938,324.602l-2.912,2.116l-1.058-1.456"/>
					</g>
				</g>
			</g>
			<g transform="rotate(-72)">
				<g>
					<path style="fill:#FFFFFF;" d="M405.09,324.602l2.912,2.116l1.058-1.456"/>
					<g transform="scale(-1,1)">
						<path style="fill:#FFFFFF;" d="M405.09,324.602h3.6v1.8"/>
					</g>
				</g>
			</g>
			<g transform="rotate(144)">
				<g>
					<path style="fill:#FFFFFF;" d="M410.63,328.627l-1.112-3.424l-1.712,0.556"/>
					<g transform="scale(-1,1)">
						<path style="fill:#FFFFFF;" d="M410.63,328.627l-2.912-2.116l1.058-1.456"/>
					</g>
				</g>
			</g>
			<g transform="rotate(216)">
				<g>
					<path style="fill:#FFFFFF;" d="M406.398,328.627l2.912-2.116l-1.058-1.456"/>
					<g transform="scale(-1,1)">
						<path style="fill:#FFFFFF;" d="M406.398,328.627l1.112-3.424l1.712,0.556"/>
					</g>
				</g>
			</g>
		</g>
	</g>
</g>
<g id="&#x3B3;TrA">
	<g transform="scale(21)">
		<g>
			<g>
				<path style="fill:#FFFFFF;" d="M387.771,319.029l-1.112,3.424l1.712,0.556"/>
				<g transform="scale(-1,1)">
					<path style="fill:#FFFFFF;" d="M387.771,319.029l1.112,3.424l-1.712,0.556"/>
				</g>
			</g>
			<g transform="rotate(72)">
				<g>
					<path style="fill:#FFFFFF;" d="M391.195,321.516h-3.6v1.8"/>
					<g transform="scale(-1,1)">
						<path style="fill:#FFFFFF;" d="M391.195,321.516l-2.912,2.116l-1.058-1.456"/>
					</g>
				</g>
			</g>
			<g transform="rotate(-72)">
				<g>
					<path style="fill:#FFFFFF;" d="M384.348,321.516l2.912,2.116l1.058-1.456"/>
					<g transform="scale(-1,1)">
						<path style="fill:#FFFFFF;" d="M384.348,321.516h3.6v1.8"/>
					</g>
				</g>
			</g>
			<g transform="rotate(144)">
				<g>
					<path style="fill:#FFFFFF;" d="M389.887,325.541l-1.112-3.424l-1.712,0.556"/>
					<g transform="scale(-1,1)">
						<path style="fill:#FFFFFF;" d="M389.887,325.541l-2.912-2.116l1.058-1.456"/>
					</g>
				</g>
			</g>
			<g transform="rotate(216)">
				<g>
					<path style="fill:#FFFFFF;" d="M385.655,325.541l2.912-2.116l-1.058-1.456"/>
					<g transform="scale(-1,1)">
						<path style="fill:#FFFFFF;" d="M385.655,325.541l1.112-3.424l1.712,0.556"/>
					</g>
				</g>
			</g>
		</g>
	</g>
</g>
<g id="&#x3B1;Car">
	<g transform="scale(31.5)">
		<g>
			<g>
				<path style="fill:#FFFFFF;" d="M309.429,313.457l-1.669,5.136l2.568,0.834"/>
				<g transform="scale(-1,1)">
					<path style="fill:#FFFFFF;" d="M309.429,313.457l1.669,5.136l-2.568,0.834"/>
				</g>
			</g>
			<g transform="rotate(72)">
				<g>
					<path style="fill:#FFFFFF;" d="M314.564,317.188h-5.4v2.7"/>
					<g transform="scale(-1,1)">
						<path style="fill:#FFFFFF;" d="M314.564,317.188l-4.369,3.174l-1.587-2.184"/>
					</g>
				</g>
			</g>
			<g transform="rotate(-72)">
				<g>
					<path style="fill:#FFFFFF;" d="M304.293,317.188l4.369,3.174l1.587-2.184"/>
					<g transform="scale(-1,1)">
						<path style="fill:#FFFFFF;" d="M304.293,317.188h5.4v2.7"/>
					</g>
				</g>
			</g>
			<g transform="rotate(144)">
				<g>
					<path style="fill:#FFFFFF;" d="M312.603,323.226l-1.669-5.136l-2.568,0.834"/>
					<g transform="scale(-1,1)">
						<path style="fill:#FFFFFF;" d="M312.603,323.226l-4.369-3.174l1.587-2.184"/>
					</g>
				</g>
			</g>
			<g transform="rotate(216)">
				<g>
					<path style="fill:#FFFFFF;" d="M306.255,323.226l4.369-3.174l-1.587-2.184"/>
					<g transform="scale(-1,1)">
						<path style="fill:#FFFFFF;" d="M306.255,323.226l1.669-5.136l2.568,0.834"/>
					</g>
				</g>
			</g>
		</g>
	</g>
</g>
<g id="&#x3C3;Oct">
	<g id="star5" transform="scale(10.5)">
		<g>
			<g>
				<path style="fill:#FFFFFF;" d="M360,348.771l-0.556,1.712l0.856,0.278"/>
				<g transform="scale(-1,1)">
					<path style="fill:#FFFFFF;" d="M360,348.771l0.556,1.712l-0.856,0.278"/>
				</g>
			</g>
			<g transform="rotate(72)">
				<g>
					<path style="fill:#FFFFFF;" d="M361.712,350.015h-1.8v0.9"/>
					<g transform="scale(-1,1)">
						<path style="fill:#FFFFFF;" d="M361.712,350.015l-1.456,1.058l-0.529-0.728"/>
					</g>
				</g>
			</g>
			<g transform="rotate(-72)">
				<g>
					<path style="fill:#FFFFFF;" d="M358.288,350.015l1.456,1.058l0.529-0.728"/>
					<g transform="scale(-1,1)">
						<path style="fill:#FFFFFF;" d="M358.288,350.015h1.8v0.9"/>
					</g>
				</g>
			</g>
			<g transform="rotate(144)">
				<g>
					<path style="fill:#FFFFFF;" d="M361.058,352.028l-0.556-1.712l-0.856,0.278"/>
					<g transform="scale(-1,1)">
						<path style="fill:#FFFFFF;" d="M361.058,352.028l-1.456-1.058l0.529-0.728"/>
					</g>
				</g>
			</g>
			<g transform="rotate(216)">
				<g>
					<path style="fill:#FFFFFF;" d="M358.942,352.028l1.456-1.058l-0.529-0.728"/>
					<g transform="scale(-1,1)">
						<path style="fill:#FFFFFF;" d="M358.942,352.028l0.556-1.712l0.856,0.278"/>
					</g>
				</g>
			</g>
		</g>
	</g>
</g>
</svg>
