<svg xmlns="http://www.w3.org/2000/svg" width="213.334" height="160" viewBox="0 0 213.334 160">
  <defs>
    <style>
      .cls-1 {
        fill: #fff;
      }
    </style>
  </defs>
  <g id="Grupo_4609" data-name="Grupo 4609" transform="translate(-165.369 -171.173)">
    <g id="Grupo_4608" data-name="Grupo 4608" transform="translate(165.369 171.173)">
      <path id="Caminho_1499" data-name="Caminho 1499" class="cls-1" d="M184.145,366.17c12.828,0,18.777,8.1,18.777,15.918v17.217h-8.1V382.088c0-4.9-2.845-12.81-10.68-12.81s-10.682,7.91-10.682,12.81v17.217h-8.094V382.088c0-7.822,5.948-15.918,18.776-15.918" transform="translate(-165.369 -244.725)"/>
      <path id="Caminho_1500" data-name="Caminho 1500" class="cls-1" d="M363.254,400.157c-12.828,0-18.781-8.1-18.781-15.922V367.026h8.1v17.209c0,4.9,2.845,12.814,10.684,12.814s10.678-7.91,10.678-12.814V367.026h8.093v17.209c0,7.822-5.956,15.922-18.772,15.922" transform="translate(-232.927 -245.048)"/>
      <path id="Caminho_1501" data-name="Caminho 1501" class="cls-1" d="M262.082,397.189a13.96,13.96,0,0,1-6.582,2.805c-8.222,1.284-19.624-4.084-20.044-16.007-.429-12.173,11.576-17.322,19.418-17.121,13.244.348,17.915,10.337,17.915,16.011v16.693h-8.138V382.954c0-3.608-1.681-12.9-10.033-13.117-8.182-.218-10.832,7.394-10.857,13.032-.008,3.6.777,12.523,10.214,13.065,2.9.169,7.011-.634,8.106-1.615Z" transform="translate(-191.801 -244.986)"/>
      <path id="Caminho_1502" data-name="Caminho 1502" class="cls-1" d="M325.8,395.717a13.391,13.391,0,0,1-7.454.189c-3.8-.989-10.121-2.708-10.121-15.789,0-4.363.008-36.174.008-36.174h8.218V358.32h7.53v5.069h-7.53s.186,10.171,0,18.408c-.163,7.334,2.065,9.832,3.684,10.651a8.945,8.945,0,0,0,5.664.367Z" transform="translate(-219.255 -236.342)"/>
      <path id="Caminho_1503" data-name="Caminho 1503" class="cls-1" d="M417.068,381.174c0-8.044,4.167-13.723,11.5-14.461,5.171-.521,7.03.452,7.03.452v3.27a11.134,11.134,0,0,0-5.7.145c-3.333,1.01-4.65,6.062-4.65,7.758v21.282h-8.182Z" transform="translate(-260.31 -244.872)"/>
      <path id="Caminho_1504" data-name="Caminho 1504" class="cls-1" d="M474.566,397.189a13.948,13.948,0,0,1-6.574,2.805c-8.218,1.284-19.624-4.084-20.049-16.007-.429-12.173,11.579-17.322,19.423-17.121,13.241.348,17.919,10.337,17.919,16.011v16.693h-8.146V382.954c0-3.608-1.675-12.9-10.036-13.117-8.182-.218-10.836,7.394-10.853,13.032-.008,3.6.78,12.523,10.222,13.065,2.9.169,7.007-.634,8.094-1.615Z" transform="translate(-271.952 -244.986)"/>
      <path id="Caminho_1505" data-name="Caminho 1505" class="cls-1" d="M334.064,200.872A94.027,94.027,0,0,1,329.489,215c-.1.262-.032.339.215.226,1.491-.694,8.2-4.036,15.317-7.063,7.119-2.994,20.311-2.954,16.934,11.664-3.394,14.569-20.506,23.186-22.21,24.066-1.665.855-3.725,1.706-4.542,2.231-.311.2-.481.452.081.605,1.811.468,7.924.138,7.863,2.68-.078,2.769-4.558,7.3-16.276,12.261a41.366,41.366,0,0,1-26.053,2.385.179.179,0,0,0-.2.053c-.7.747-6.623,6.437-23.455,3.543-12.122-2.086-15.128-3.29-17.843-6.542a4.124,4.124,0,0,1-.275-4.694c.267-.541.3-.831-.064-.9-18.256-3.778-29.371-15.32-33.408-22.585-2.052-3.7-1.406-6.176-.379-7.717,1.462-2.171,6.324-2.377,11.37-1.082,5.607,1.445,8.682,2.252,9.858,2.563.392.105.44-.016.2-.318-1.4-1.752-6.343-7.987-8.909-11.975-4.214-6.574-9.479-24.058,4.258-31.25,15.245-7.939,28.531,6.054,31.512,9.695,2.611,3.164,7.782,10.2,8.219,10.929.663,1.115.99.149.99.149s3.625-12.878,6.732-18.86c5.458-10.393,16.8-15.345,26.707-13.512,18.727,3.475,19.423,22.412,17.928,29.325m-19.181-15.03c-10.647-3.237-17.248,4.609-20.287,14.6-2.452,8.048-2.97,10.179-4.427,14.348-2.053,5.869-6.935,6.325-10.752,1.772-4.409-5.287-10.138-13.1-13.439-16.927-4.3-4.984-14.634-9.19-19.879-2.72-7.916,9.784,2.59,20.741,8.113,27.3,3.83,4.637,8.481,7.826,6.97,10.474-.557.985-1.789,1.3-3.377,1.284-3.855-.04-16.631-3.519-19.555-4.069-2.546-.476-4.428-.3-5.132,1.574-.857,2.268,2.324,8.71,10.642,13.012,8.23,4.222,21.576,6.349,22.861,6.619,4.82,1.025,3.874,3.382,2.739,4.6-1.11,1.219-2.432,1.969-2.145,3.2.674,3.059,7.24,3.669,11.171,4.335,3.822.65,8.748.968,12.2-.412,3.378-1.34,3.571-3.209,5.9-4.125,3.115-1.191,4.186-.125,10.885,1.11,4.266.795,11.839-.2,15.988-1.583,7.774-2.6,10.974-5.065,10.957-6.276,0-.965-1.349-1.324-2.735-1.489-1.677-.2-7.281-1.159-9.159-2.385-1.9-1.215-.473-3.419,3.442-4.981,3.936-1.558,16.553-6.813,21.289-11.083,4.743-4.246,9.241-11.3,5.238-15.421-3.908-4.073-10.895.138-14.668,1.865-5.075,2.381-13.187,6.554-15.98,7.184-2.448.545-7.022.371-4.889-5.154,2.679-6.83,3.948-11.042,5.568-15.147,2.016-5.118,4.917-17.71-7.54-21.508" transform="translate(-187.571 -171.173)"/>
    </g>
  </g>
</svg>
