<?xml version="1.0" encoding="iso-8859-1"?>
<!-- Generator: Adobe Illustrator 23.0.4, SVG Export Plug-In . SVG Version: 6.00 Build 0)  -->
<svg version="1.1" xmlns="http://www.w3.org/2000/svg" xmlns:xlink="http://www.w3.org/1999/xlink" x="0px" y="0px"
	 viewBox="0 0 353.298 87.112" style="enable-background:new 0 0 353.298 87.112;" xml:space="preserve">
<g id="stamp-8">
	<path style="fill:none;stroke:#000000;stroke-width:5.6693;stroke-linecap:round;stroke-linejoin:round;stroke-miterlimit:10;" d="
		M41.876,4.131c0,0,0,57.154,0,76.206"/>
	<path style="fill:none;stroke:#000000;stroke-width:5.6693;stroke-linecap:round;stroke-linejoin:round;stroke-miterlimit:10;" d="
		M2.835,80.337c0,0,39.041-3.635,78.833,0"/>
	<path style="fill:none;stroke:#000000;stroke-width:5.6693;stroke-linecap:round;stroke-linejoin:round;stroke-miterlimit:10;" d="
		M12.595,50.157c0,0,37.292-3.399,61.19,0"/>
	<path style="fill:none;stroke:#000000;stroke-width:5.6693;stroke-linecap:round;stroke-linejoin:round;stroke-miterlimit:10;" d="
		M77.539,24.027c-16.288,0-61.941,0-61.941,0"/>
	<path style="fill:none;stroke:#000000;stroke-width:5.6693;stroke-linecap:round;stroke-linejoin:round;stroke-miterlimit:10;" d="
		M5.838,39.043c7.066-8.407,11.882-17.94,18.019-34.912"/>
	
		<polyline style="fill:none;stroke:#000000;stroke-width:5.6693;stroke-linecap:round;stroke-linejoin:round;stroke-miterlimit:10;" points="
		106.55,83.173 106.55,10.726 159.898,10.726 159.898,82.383 	"/>
	
		<line style="fill:none;stroke:#000000;stroke-width:5.6693;stroke-linecap:round;stroke-linejoin:round;stroke-miterlimit:10;" x1="106.55" y1="42.234" x2="159.898" y2="42.234"/>
	
		<line style="fill:none;stroke:#000000;stroke-width:5.6693;stroke-linecap:round;stroke-linejoin:round;stroke-miterlimit:10;" x1="106.55" y1="74.807" x2="159.898" y2="74.807"/>
	
		<line style="fill:none;stroke:#000000;stroke-width:5.6693;stroke-linecap:round;stroke-linejoin:round;stroke-miterlimit:10;" x1="195.726" y1="2.835" x2="195.726" y2="84.277"/>
	<path style="fill:none;stroke:#000000;stroke-width:5.6693;stroke-linecap:round;stroke-linejoin:round;stroke-miterlimit:10;" d="
		M187.361,20.67c0.053,8.576-1.473,15.994-4.577,22.255"/>
	<path style="fill:none;stroke:#000000;stroke-width:5.6693;stroke-linecap:round;stroke-linejoin:round;stroke-miterlimit:10;" d="
		M203.083,17.829c1.899,6.802,4.058,12.361,6.629,15.941"/>
	<path style="fill:none;stroke:#000000;stroke-width:5.6693;stroke-linecap:round;stroke-linejoin:round;stroke-miterlimit:10;" d="
		M232.585,42.925c6.336,19.256,16.094,32.198,29.274,38.827"/>
	<path style="fill:none;stroke:#000000;stroke-width:5.6693;stroke-linecap:round;stroke-linejoin:round;stroke-miterlimit:10;" d="
		M232.975,2.835c1.421,46.567,1.421,58.872-26.577,79.707"/>
	<path style="fill:none;stroke:#000000;stroke-width:5.6693;stroke-linecap:round;stroke-linejoin:round;stroke-miterlimit:10;" d="
		M264.069,46.95c-11.956-0.089-38.985-0.089-56.505,0"/>
	<path style="fill:none;stroke:#000000;stroke-width:5.6693;stroke-linecap:round;stroke-linejoin:round;stroke-miterlimit:10;" d="
		M212.457,19.407c17.738,1.263,24.188-0.852,39.656-0.089c3.086,0.152,0,20.657,0,27.542"/>
	<path style="fill:none;stroke:#000000;stroke-width:5.6693;stroke-linecap:round;stroke-linejoin:round;stroke-miterlimit:10;" d="
		M342.834,5.594C332,9.82,295.511,10.726,284.425,12.27c0,0-1.669,20.735-5.006,29.964c-1.6,4.425,45.722-3.191,69.853,0"/>
	<path style="fill:none;stroke:#000000;stroke-width:5.6693;stroke-linecap:round;stroke-linejoin:round;stroke-miterlimit:10;" d="
		M314.345,20.67c0,13.454,0,40.363,0,53.817c0,4.012-3.253,7.265-7.265,7.265c-2.147,0-8.589-2.147-8.589,0"/>
	<path style="fill:none;stroke:#000000;stroke-width:5.6693;stroke-linecap:round;stroke-linejoin:round;stroke-miterlimit:10;" d="
		M291.816,53.991c-5.452,9.537-11.429,17.16-18.119,22.172"/>
	<path style="fill:none;stroke:#000000;stroke-width:5.6693;stroke-linecap:round;stroke-linejoin:round;stroke-miterlimit:10;" d="
		M332.345,53.991c7.352,6.766,13.513,14.099,18.119,22.172"/>
</g>
<g id="Layer_1">
</g>
</svg>
