<?xml version="1.0" encoding="iso-8859-1"?>
<!-- Generator: Adobe Illustrator 23.0.4, SVG Export Plug-In . SVG Version: 6.00 Build 0)  -->
<svg version="1.1" xmlns="http://www.w3.org/2000/svg" xmlns:xlink="http://www.w3.org/1999/xlink" x="0px" y="0px"
	 viewBox="0 0 363.166 168.591" style="enable-background:new 0 0 363.166 168.591;" xml:space="preserve">
<g id="stamp-9">
	<path style="fill:none;stroke:#000000;stroke-width:5.6693;stroke-linecap:round;stroke-linejoin:round;stroke-miterlimit:10;" d="
		M14.736,10.632c10.26,9.712,18.057,19.425,23.392,29.137"/>
	<path style="fill:none;stroke:#000000;stroke-width:5.6693;stroke-linecap:round;stroke-linejoin:round;stroke-miterlimit:10;" d="
		M2.835,63.982l28.727,0c0.461,45.926,0.247,89.581-10.67,97.26l34.062-29.958"/>
	<path style="fill:none;stroke:#000000;stroke-width:5.6693;stroke-linecap:round;stroke-linejoin:round;stroke-miterlimit:10;" d="
		M77.934,25.2c2.085-7.698,6.527-15.539,8.618-22.366"/>
	<path style="fill:none;stroke:#000000;stroke-width:5.6693;stroke-linecap:round;stroke-linejoin:round;stroke-miterlimit:10;" d="
		M61.109,51.67c18.482,0,31.056,0,43.5,0"/>
	<path style="fill:none;stroke:#000000;stroke-width:5.6693;stroke-linecap:round;stroke-linejoin:round;stroke-miterlimit:10;" d="
		M61.109,77.114c18.706,0,25.444,0,43.5,0"/>
	<path style="fill:none;stroke:#000000;stroke-width:5.6693;stroke-linecap:round;stroke-linejoin:round;stroke-miterlimit:10;" d="
		M47.977,106.251c0,0,36.779-2.133,56.633,0"/>
	<path style="fill:none;stroke:#000000;stroke-width:5.6693;stroke-linecap:round;stroke-linejoin:round;stroke-miterlimit:10;" d="
		M77.114,165.756c0,0,9.695,0,12.927,0c8.046,0,14.569-6.523,14.569-14.569c0-31.254,0-76.096,0-125.987l-43.5,0
		c0,17.441,0,60.48,0,80.64"/>
	<path style="fill:none;stroke:#000000;stroke-width:5.6693;stroke-linecap:round;stroke-linejoin:round;stroke-miterlimit:10;" d="
		M47.977,160.675c20.947-15.588,37.882-33.309,48.425-54.425"/>
	<path style="fill:none;stroke:#000000;stroke-width:5.6693;stroke-linecap:round;stroke-linejoin:round;stroke-miterlimit:10;" d="
		M118.986,72.7c8.877,14.736,12.726,26.768,15.76,41.701"/>
	<path style="fill:none;stroke:#000000;stroke-width:5.6693;stroke-linecap:round;stroke-linejoin:round;stroke-miterlimit:10;" d="
		M157.534,2.835v148.028c0,8.225-6.668,14.893-14.893,14.893h-14.018"/>
	
		<line style="fill:none;stroke:#000000;stroke-width:5.6693;stroke-linecap:round;stroke-linejoin:round;stroke-miterlimit:10;" x1="115.214" y1="47.56" x2="172.618" y2="47.56"/>
	<path style="fill:none;stroke:#000000;stroke-width:5.6693;stroke-linecap:round;stroke-linejoin:round;stroke-miterlimit:10;" d="
		M202.449,10.632c10.26,9.712,18.057,19.425,23.392,29.137"/>
	<path style="fill:none;stroke:#000000;stroke-width:5.6693;stroke-linecap:round;stroke-linejoin:round;stroke-miterlimit:10;" d="
		M190.548,63.982l28.727,0c0.461,45.926,0.247,89.581-10.67,97.26l34.062-29.958"/>
	<path style="fill:none;stroke:#000000;stroke-width:5.6693;stroke-linecap:round;stroke-linejoin:round;stroke-miterlimit:10;" d="
		M265.648,25.2c2.085-7.698,6.527-15.539,8.618-22.366"/>
	<path style="fill:none;stroke:#000000;stroke-width:5.6693;stroke-linecap:round;stroke-linejoin:round;stroke-miterlimit:10;" d="
		M248.822,51.67c18.482,0,31.056,0,43.5,0"/>
	<path style="fill:none;stroke:#000000;stroke-width:5.6693;stroke-linecap:round;stroke-linejoin:round;stroke-miterlimit:10;" d="
		M248.822,77.114c18.706,0,25.444,0,43.5,0"/>
	<path style="fill:none;stroke:#000000;stroke-width:5.6693;stroke-linecap:round;stroke-linejoin:round;stroke-miterlimit:10;" d="
		M235.69,106.251c0,0,36.779-2.133,56.633,0"/>
	<path style="fill:none;stroke:#000000;stroke-width:5.6693;stroke-linecap:round;stroke-linejoin:round;stroke-miterlimit:10;" d="
		M264.827,165.756c0,0,9.695,0,12.927,0c8.046,0,14.569-6.523,14.569-14.569c0-31.254,0-76.096,0-125.987l-43.5,0
		c0,17.441,0,60.48,0,80.64"/>
	<path style="fill:none;stroke:#000000;stroke-width:5.6693;stroke-linecap:round;stroke-linejoin:round;stroke-miterlimit:10;" d="
		M235.69,160.675c20.947-15.588,37.882-33.309,48.425-54.425"/>
	<path style="fill:none;stroke:#000000;stroke-width:5.6693;stroke-linecap:round;stroke-linejoin:round;stroke-miterlimit:10;" d="
		M306.699,72.7c8.877,14.736,12.726,26.768,15.76,41.701"/>
	<path style="fill:none;stroke:#000000;stroke-width:5.6693;stroke-linecap:round;stroke-linejoin:round;stroke-miterlimit:10;" d="
		M345.247,2.835v148.028c0,8.225-6.668,14.893-14.893,14.893h-14.018"/>
	
		<line style="fill:none;stroke:#000000;stroke-width:5.6693;stroke-linecap:round;stroke-linejoin:round;stroke-miterlimit:10;" x1="302.928" y1="47.56" x2="360.331" y2="47.56"/>
</g>
<g id="Layer_1">
</g>
</svg>
