<?xml version="1.0" encoding="iso-8859-1"?>
<!-- Generator: Adobe Illustrator 23.0.4, SVG Export Plug-In . SVG Version: 6.00 Build 0)  -->
<svg version="1.1" xmlns="http://www.w3.org/2000/svg" xmlns:xlink="http://www.w3.org/1999/xlink" x="0px" y="0px"
	 viewBox="0 0 303.627 142.88" style="enable-background:new 0 0 303.627 142.88;" xml:space="preserve">
<g id="stamp-6">
	
		<polyline style="fill:none;stroke:#000000;stroke-width:3;stroke-linecap:round;stroke-linejoin:round;stroke-miterlimit:10;" points="
		1.5,10.808 7.732,31.629 14.912,13.246 21.685,31.629 28.323,10.808 	"/>
	
		<line style="fill:none;stroke:#000000;stroke-width:3;stroke-linecap:round;stroke-linejoin:round;stroke-miterlimit:10;" x1="35.909" y1="10.808" x2="35.909" y2="31.629"/>
	
		<line style="fill:none;stroke:#000000;stroke-width:3;stroke-linecap:round;stroke-linejoin:round;stroke-miterlimit:10;" x1="35.909" y1="2.95" x2="35.909" y2="7.882"/>
	
		<line style="fill:none;stroke:#000000;stroke-width:3;stroke-linecap:round;stroke-linejoin:round;stroke-miterlimit:10;" x1="87.29" y1="10.808" x2="87.29" y2="31.629"/>
	
		<line style="fill:none;stroke:#000000;stroke-width:3;stroke-linecap:round;stroke-linejoin:round;stroke-miterlimit:10;" x1="87.29" y1="2.95" x2="87.29" y2="7.882"/>
	<path style="fill:none;stroke:#000000;stroke-width:3;stroke-linecap:round;stroke-linejoin:round;stroke-miterlimit:10;" d="
		M55.011,12.84c0,0-7.266-3.085-9.512,1.152c-0.917,1.73-0.746,4.139,0.783,5.363c2.813,2.25,9.068,1.524,8.729,7.033
		c-1.084,6.909-11.786,3.387-11.786,3.387"/>
	<path style="fill:none;stroke:#000000;stroke-width:3;stroke-linecap:round;stroke-linejoin:round;stroke-miterlimit:10;" d="
		M77.228,31.629c0,0-0.034-7.928-0.093-13.723c-0.032-3.153-3.045-6.326-5.843-6.151c-5.688,0.356-8.153,6.969-8.153,6.969v12.905
		V1.189"/>
	<path style="fill:none;stroke:#000000;stroke-width:3;stroke-linecap:round;stroke-linejoin:round;stroke-miterlimit:10;" d="
		M279.051,31.629c0,0-0.034-7.928-0.093-13.723c-0.032-3.153-3.045-6.326-5.843-6.151c-5.688,0.356-8.153,6.969-8.153,6.969v12.905
		V1.189"/>
	<path style="fill:none;stroke:#000000;stroke-width:3;stroke-linecap:round;stroke-linejoin:round;stroke-miterlimit:10;" d="
		M111.441,31.629c0,0-0.034-7.928-0.093-13.723c-0.032-3.153-3.045-6.326-5.843-6.151c-5.688,0.356-8.153,6.969-8.153,6.969v12.905
		V10.808"/>
	<path style="fill:none;stroke:#000000;stroke-width:3;stroke-linecap:round;stroke-linejoin:round;stroke-miterlimit:10;" d="
		M208.429,10.808c0,0,0.034,7.928,0.093,13.723c0.032,3.153,3.045,6.326,5.843,6.151c5.688-0.356,8.153-6.969,8.153-6.969V10.808
		v20.821"/>
	<path style="fill:none;stroke:#000000;stroke-width:3;stroke-linecap:round;stroke-linejoin:round;stroke-miterlimit:10;" d="
		M135.853,10.808c0,0-0.237,21.475-0.782,23.061c-1.351,5.191-6.755,5.191-6.755,5.191c-4.471,0.226-5.161-0.373-8.177-1.594"/>
	<path style="fill:none;stroke:#000000;stroke-width:3;stroke-linecap:round;stroke-linejoin:round;stroke-miterlimit:10;" d="
		M135.635,18.887c0,0-0.549-2.414-1.921-4.011c-1.207-1.404-3.06-2.822-5.763-3.192c-3.873-0.53-7.812,3.25-7.812,9.004
		c0,5.139,1.29,8.565,6.692,9.136c2.371,0,4.445-0.95,5.885-2.328c2.002-1.915,2.918-5.666,2.918-5.666"/>
	<path style="fill:none;stroke:#000000;stroke-width:3;stroke-linecap:round;stroke-linejoin:round;stroke-miterlimit:10;" d="
		M177.753,10.808l-7.804,20.821c-2.473,4.579-4.453,6.094-8.345,7.906"/>
	
		<line style="fill:none;stroke:#000000;stroke-width:3;stroke-linecap:round;stroke-linejoin:round;stroke-miterlimit:10;" x1="169.949" y1="31.629" x2="162.145" y2="10.808"/>
	<path style="fill:none;stroke:#000000;stroke-width:3;stroke-linecap:round;stroke-linejoin:round;stroke-miterlimit:10;" d="
		M199.93,21.218c0,5.507-4.17,9.354-8.422,9.354c-4.252,0-8.422-3.846-8.422-9.354s4.325-9.584,8.577-9.584
		C195.914,11.635,199.93,15.711,199.93,21.218z"/>
	<path style="fill:none;stroke:#000000;stroke-width:3;stroke-linecap:round;stroke-linejoin:round;stroke-miterlimit:10;" d="
		M251.313,5.126l-0.016,21.328c0.02,1.167,0.444,2.335,1.31,3.117c1.319,1.192,3.189,1.397,5.526,0.769"/>
	
		<line style="fill:none;stroke:#000000;stroke-width:3;stroke-linecap:round;stroke-linejoin:round;stroke-miterlimit:10;" x1="246.006" y1="12.158" x2="258.345" y2="12.158"/>
	<path style="fill:none;stroke:#000000;stroke-width:3;stroke-linecap:round;stroke-linejoin:round;stroke-miterlimit:10;" d="
		M287.565,20.729"/>
	<path style="fill:none;stroke:#000000;stroke-width:3;stroke-linecap:round;stroke-linejoin:round;stroke-miterlimit:10;" d="
		M294.859,11.65c4.929,0.535,7.549,3.289,7.244,8.894h-14.97C287.554,14.711,290.146,11.5,294.859,11.65z M287.133,20.544
		c-0.039,9.125,5.539,11.394,14.703,8.955"/>
	<path style="fill:none;stroke:#1D1D1B;stroke-width:3;stroke-linecap:round;stroke-linejoin:round;stroke-miterlimit:10;" d="
		M74.952,127.811c14.913-11.96,28.444-25.631,40.637-40.958c1.046-1.065,2.533-3.164,6.462-9.005
		c0.414-0.616,0.784-1.277,1.082-1.956c2.655-6.046,4.335-11.196,4.335-11.196c0-1.99-0.598-5.749-5.942-3.929
		c0,0-3.758,2.058-4.531,2.534c-1.622,0.999-3.564,2.555-4.566,3.472c-9.809,8.98-17.685,20.53-24.235,33.843
		c-0.552,1.121-3.265,8.966-4.724,12.91c-0.161,0.435-2.946,8.967-3.947,13.383c-2.033,8.964-2.481,14.471-1.585,13.247
		l10.059-13.529c4.867-6.703,17.585-20.013,26.485-20.029c8.9-0.016,0.29,15.076-1.317,18.692
		c-1.592,3.583-5.762,11.551-13.361,11.706c-7.469,0.152-12.369-3.994-7.855-5.528c4.514-1.534,13.521-0.87,13.521-0.87
		s13.799,0.929,20.168-0.133c6.369-1.061,11.294-4.514,11.294-4.514s8.775-5.38,14.447-9.816c3.015-2.358,8.359-9.568,5.042-12.074
		c-3.317-2.506-6.502-1.858-10.217,1.194s-8.094,9.686-9.421,13.534c-1.327,3.848-2.716,9.549-2.256,12.87
		c0.367,2.649,2.65,5.699,4.511,6.9c2.191,1.413,5.204,0.781,7.027,0.65c1.283-0.092,5.205-1.372,6.327-2
		c3.921-1.942,3.256-2.043,7.112-3.952c0.654-0.324,1.275-0.734,1.826-1.212c2.173-1.885,3.406-3.041,3.955-3.564l10.109-10.222
		l11.411-12.34c0,0,3.618-3.395,1.644-5.298s-5.428,1.384-6.909,3.997c-1.48,2.612-1.48,2.983-1.851,5.45s0,3.948,1.357,8.266
		c1.357,4.318,2.467,5.428,1.974,11.35s-2.714,9.13-4.811,10.24c-2.097,1.11-5.798,1.851-8.389,1.234
		c-1.184-0.282-2.674-1.018-3.944-1.735c-2.319-1.309-4.178-3.294-5.333-5.693c-1.754-3.645-2.852-8.05-0.05-6.774
		c6.886,3.137,23.392,4.524,27.956,3.592c2.587-0.528,6.917-2.874,10.184-4.809c2.798-1.656,5.189-3.909,7.023-6.593
		c9.095-10.687,25.078-36.563,31.772-56.922"/>
	<path style="fill:none;stroke:#1D1D1B;stroke-width:3;stroke-linecap:round;stroke-linejoin:round;stroke-miterlimit:10;" d="
		M208.637,85.146l13.916-1.469c5.46-0.576,10.981,0.055,16.17,1.849l5.322,1.84"/>
	<path style="fill:none;stroke:#1D1D1B;stroke-width:3;stroke-linecap:round;stroke-linejoin:round;stroke-miterlimit:10;" d="
		M205.124,119.924c-1.465,9.517-1.782,15.995,0,16.914l0,0c2.647,1.564,5.85,1.876,8.749,0.853l5.913-2.087"/>
	<path style="fill:none;stroke:#1D1D1B;stroke-width:3;stroke-linecap:round;stroke-linejoin:round;stroke-miterlimit:10;" d="
		M16.725,86.015c0,0,25.162,7.625,28.728,8.715"/>
	<path style="fill:none;stroke:#1D1D1B;stroke-width:3;stroke-linecap:round;stroke-linejoin:round;stroke-miterlimit:10;" d="
		M16.725,114.892c0,0,26.212-8.578,28.728-9.371"/>
	<path style="fill:none;stroke:#1D1D1B;stroke-width:3;stroke-linecap:round;stroke-linejoin:round;stroke-miterlimit:10;" d="
		M263.136,94.73c3.82-1.19,27.621-8.715,27.621-8.715"/>
	<path style="fill:none;stroke:#1D1D1B;stroke-width:3;stroke-linecap:round;stroke-linejoin:round;stroke-miterlimit:10;" d="
		M263.136,105.521c3.159,1.127,27.621,9.371,27.621,9.371"/>
</g>
<g id="Layer_1">
</g>
</svg>
