<?xml version="1.0" encoding="iso-8859-1"?>
<!-- Generator: Adobe Illustrator 23.0.4, SVG Export Plug-In . SVG Version: 6.00 Build 0)  -->
<svg version="1.1" xmlns="http://www.w3.org/2000/svg" xmlns:xlink="http://www.w3.org/1999/xlink" x="0px" y="0px"
	 viewBox="0 0 310.608 143.186" style="enable-background:new 0 0 310.608 143.186;" xml:space="preserve">
<g id="stamp-9">
	<path style="fill:none;stroke:#000000;stroke-width:3;stroke-linecap:round;stroke-linejoin:round;stroke-miterlimit:10;" d="
		M11.74,8.209c8.828,8.357,15.537,16.714,20.127,25.071"/>
	<path style="fill:none;stroke:#000000;stroke-width:3;stroke-linecap:round;stroke-linejoin:round;stroke-miterlimit:10;" d="
		M1.5,54.114l24.718,0c0.397,39.517,0.212,77.08-9.181,83.688l29.308-25.777"/>
	<path style="fill:none;stroke:#000000;stroke-width:3;stroke-linecap:round;stroke-linejoin:round;stroke-miterlimit:10;" d="
		M65.413,141.686c0,0,8.342,0,11.123,0c6.923,0,12.535-5.612,12.535-12.535c0-26.892,0-65.477,0-108.405l-37.43,0
		c0,15.007,0,52.04,0,69.387"/>
	<path style="fill:none;stroke:#000000;stroke-width:3;stroke-linecap:round;stroke-linejoin:round;stroke-miterlimit:10;" d="
		M40.342,90.484c0,0,31.646-1.836,48.729,0"/>
	<path style="fill:none;stroke:#000000;stroke-width:3;stroke-linecap:round;stroke-linejoin:round;stroke-miterlimit:10;" d="
		M51.642,43.52c15.903,0,26.722,0,37.43,0"/>
	<path style="fill:none;stroke:#000000;stroke-width:3;stroke-linecap:round;stroke-linejoin:round;stroke-miterlimit:10;" d="
		M51.642,65.413c16.096,0,21.893,0,37.43,0"/>
	<path style="fill:none;stroke:#000000;stroke-width:3;stroke-linecap:round;stroke-linejoin:round;stroke-miterlimit:10;" d="
		M66.12,20.745c1.794-6.624,5.616-13.37,7.415-19.245"/>
	<path style="fill:none;stroke:#000000;stroke-width:3;stroke-linecap:round;stroke-linejoin:round;stroke-miterlimit:10;" d="
		M40.342,137.314c18.024-13.413,32.595-28.661,41.667-46.83"/>
	<path style="fill:none;stroke:#000000;stroke-width:3;stroke-linecap:round;stroke-linejoin:round;stroke-miterlimit:10;" d="
		M101.442,61.616c7.638,12.679,10.95,23.032,13.561,35.881"/>
	<path style="fill:none;stroke:#000000;stroke-width:3;stroke-linecap:round;stroke-linejoin:round;stroke-miterlimit:10;" d="
		M134.611,1.5v127.371c0,7.077-5.737,12.815-12.815,12.815h-12.062"/>
	
		<line style="fill:none;stroke:#000000;stroke-width:3;stroke-linecap:round;stroke-linejoin:round;stroke-miterlimit:10;" x1="98.197" y1="39.984" x2="147.59" y2="39.984"/>
	<path style="fill:none;stroke:#000000;stroke-width:3;stroke-linecap:round;stroke-linejoin:round;stroke-miterlimit:10;" d="
		M173.258,8.209c8.828,8.357,15.537,16.714,20.127,25.071"/>
	<path style="fill:none;stroke:#000000;stroke-width:3;stroke-linecap:round;stroke-linejoin:round;stroke-miterlimit:10;" d="
		M163.018,54.114l24.718,0c0.397,39.517,0.212,77.08-9.181,83.688l29.308-25.777"/>
	<path style="fill:none;stroke:#000000;stroke-width:3;stroke-linecap:round;stroke-linejoin:round;stroke-miterlimit:10;" d="
		M226.931,141.686c0,0,8.342,0,11.123,0c6.923,0,12.535-5.612,12.535-12.535c0-26.892,0-65.477,0-108.405l-37.43,0
		c0,15.007,0,52.04,0,69.387"/>
	<path style="fill:none;stroke:#000000;stroke-width:3;stroke-linecap:round;stroke-linejoin:round;stroke-miterlimit:10;" d="
		M201.86,90.484c0,0,31.646-1.836,48.73,0"/>
	<path style="fill:none;stroke:#000000;stroke-width:3;stroke-linecap:round;stroke-linejoin:round;stroke-miterlimit:10;" d="
		M213.16,43.52c15.903,0,26.722,0,37.43,0"/>
	<path style="fill:none;stroke:#000000;stroke-width:3;stroke-linecap:round;stroke-linejoin:round;stroke-miterlimit:10;" d="
		M213.16,65.413c16.096,0,21.893,0,37.43,0"/>
	<path style="fill:none;stroke:#000000;stroke-width:3;stroke-linecap:round;stroke-linejoin:round;stroke-miterlimit:10;" d="
		M227.637,20.745c1.794-6.624,5.616-13.37,7.415-19.245"/>
	<path style="fill:none;stroke:#000000;stroke-width:3;stroke-linecap:round;stroke-linejoin:round;stroke-miterlimit:10;" d="
		M201.86,137.314c18.024-13.413,32.595-28.661,41.667-46.83"/>
	<path style="fill:none;stroke:#000000;stroke-width:3;stroke-linecap:round;stroke-linejoin:round;stroke-miterlimit:10;" d="
		M262.96,61.616c7.638,12.679,10.95,23.032,13.561,35.881"/>
	<path style="fill:none;stroke:#000000;stroke-width:3;stroke-linecap:round;stroke-linejoin:round;stroke-miterlimit:10;" d="
		M296.128,1.5v127.371c0,7.077-5.737,12.815-12.815,12.815h-12.062"/>
	
		<line style="fill:none;stroke:#000000;stroke-width:3;stroke-linecap:round;stroke-linejoin:round;stroke-miterlimit:10;" x1="259.715" y1="39.984" x2="309.108" y2="39.984"/>
</g>
<g id="Layer_1">
</g>
</svg>
