<?xml version="1.0" encoding="iso-8859-1"?>
<!-- Generator: Adobe Illustrator 23.0.4, SVG Export Plug-In . SVG Version: 6.00 Build 0)  -->
<svg version="1.1" xmlns="http://www.w3.org/2000/svg" xmlns:xlink="http://www.w3.org/1999/xlink" x="0px" y="0px"
	 viewBox="0 0 304.145 132.846" style="enable-background:new 0 0 304.145 132.846;" xml:space="preserve">
<g id="stamp-2">
	<path style="fill:none;stroke:#000000;stroke-width:3;stroke-linecap:round;stroke-linejoin:round;stroke-miterlimit:10;" d="
		M14.966,35.981c9.45-1.753,31.144-17.179,25.953-20.639c-4.202-0.742-8.651,5.438-4.202,10.32
		c13.623,9.534,15.078,15.51,8.033,20.083c-4.623,3.089-8.018,3.762-10.412,2.468c-2.342-1.266-2.734-4.288-0.658-5.956
		c5.825-4.682,24.364-4.548,28.372-5.782c10.134-3.09,15.078-6.921,9.516-9.022c-8.44-0.991-14.213,13.1-5.314,15.201
		c12.322,4.307,54.342-17.617,51.636-38.642c-0.226-1.759-2.026-2.949-3.699-2.362c-8.651,3.034-20.702,31.19-1.469,41.622
		c7.142,1.816,11.495-0.955,17.059-8.329c0.23-0.305,1.643-2.042,1.957-2.259c4.27-2.953,7.423-2.903,9.267,0.667"/>
	<path style="fill:none;stroke:#000000;stroke-width:3;stroke-linecap:round;stroke-linejoin:round;stroke-miterlimit:10;" d="
		M126.535,38.839c-2.209,4.827,1.274,6.445,4.49,6.049c4.582-0.409,8.591-9,11.7-11.7c1.125,7.075,5.419,10.494,12.764,10.391
		c6.055,0.655,20.291-17.428,25.201-13.664c4.418,2.536-2.045,11.373,1.064,13.664c3.518,1.366,9.164-13.091,12.109-11.7
		c3.846-0.982,2.7,8.837,6.136,11.046c3.518,2.021,8.591-12.355,11.046-10.146c2.782,0.818,3.027,10.8,7.446,10.718
		c6.256,0.394,11.271-2.918,15.47-8.668c0.158-0.217,0.344-0.435,0.538-0.621c6.535-6.234,8.966-3.222,11.32-0.039"/>
	<path style="fill:none;stroke:#000000;stroke-width:3;stroke-linecap:round;stroke-linejoin:round;stroke-miterlimit:10;" d="
		M230.458,38.847c-1.082,4.065,1.14,5.961,3.333,6.099c5.809,0.679,10.391-10.448,12.764-10.448
		c3.545,6.778,6.705,9.077,9.655,8.918c12.572-1.171,19.882-14.016,24.71-27.492"/>
	<path style="fill:none;stroke:#000000;stroke-width:3;stroke-linecap:round;stroke-linejoin:round;stroke-miterlimit:10;" d="
		M269.792,23.042c4.092,0.367,10.404-0.434,16.855-1.309"/>
	<path style="fill:none;stroke:#000000;stroke-width:3;stroke-linecap:round;stroke-linejoin:round;stroke-miterlimit:10;" d="
		M276.144,26.993c-0.494,13.33,0.602,15.768,6.411,16.341c5.279,0.845,8.198-1.401,10.555-4.009"/>
	<path style="fill:none;stroke:#000000;stroke-width:3;stroke-linecap:round;stroke-linejoin:round;" d="M201.728,89.39
		c0,4.305,0.137,25.045,0.137,31.512c0,6.496-4.051,10.209-10.193,10.209c-5.363,0-10.003-2.581-10.003-12.871"/>
	<path style="fill:none;stroke:#000000;stroke-width:3;stroke-linecap:round;stroke-linejoin:round;" d="M302.645,87.538
		c0,10.904,0,43.617,0,43.617"/>
	<path style="fill:none;stroke:#000000;stroke-width:3;stroke-linecap:round;stroke-linejoin:round;" d="M131.207,97.425
		c0,1.228,0,33.668,0,33.668h10.311c0-3.3,0-33.668,0-33.668H131.207z"/>
	<path style="fill:none;stroke:#000000;stroke-width:3;stroke-linecap:round;stroke-linejoin:round;" d="M131.207,103.589
		c0,0,8.237-4.876,10.311-6.164"/>
	<path style="fill:none;stroke:#000000;stroke-width:3;stroke-linecap:round;stroke-linejoin:round;" d="M131.207,112.303
		c0,0,8.097-5.011,10.311-6.388"/>
	<path style="fill:none;stroke:#000000;stroke-width:3;stroke-linecap:round;stroke-linejoin:round;" d="M141.517,108.325"/>
	<path style="fill:none;stroke:#000000;stroke-width:3;stroke-linecap:round;stroke-linejoin:round;" d="M131.207,114.736"/>
	<path style="fill:none;stroke:#000000;stroke-width:3;stroke-linecap:round;stroke-linejoin:round;" d="M131.207,121.909
		c0,0,8.167-5.132,10.311-6.411"/>
	<path style="fill:none;stroke:#000000;stroke-width:3;stroke-linecap:round;stroke-linejoin:round;" d="M141.517,119.709"/>
	<path style="fill:none;stroke:#000000;stroke-width:3;stroke-linecap:round;stroke-linejoin:round;" d="M131.207,126.121"/>
	<path style="fill:none;stroke:#000000;stroke-width:3;stroke-linecap:round;stroke-linejoin:round;" d="M131.207,131.094
		c0,0,8.307-5.179,10.311-6.411"/>
	<path style="fill:none;stroke:#000000;stroke-width:3;stroke-linecap:round;stroke-linejoin:round;" d="M138.828,68.916
		c-6.724,5.043-8.63,12.105-8.63,15.69c0,3.585,3.026,6.388,6.164,6.388s5.239-1.876,5.687-6.471
		C142.498,79.928,139.052,76.537,138.828,68.916z"/>
	<path style="fill:none;stroke:#000000;stroke-width:3;stroke-linecap:round;stroke-linejoin:round;" d="M257.628,88.918v41.512
		h16.501c2.502,0,4.942-0.744,6.998-2.169c3.822-2.649,8.888-8.132,8.888-18.587c0-10.25-4.602-15.72-8.187-18.427
		c-2.056-1.552-4.586-2.329-7.162-2.329H257.628z"/>
	<path style="fill:none;stroke:#000000;stroke-width:3;stroke-linecap:round;stroke-linejoin:round;" d="M212.849,131.014
		c1.743-4.374,17.039-42.504,17.039-42.504s15.624,39.046,17.039,42.504"/>
	<path style="fill:none;stroke:#000000;stroke-width:3;stroke-linecap:round;stroke-linejoin:round;" d="M240.975,116.169
		c0,0-20.809,0.09-22.213,0.095"/>
	<path style="fill:none;stroke:#000000;stroke-width:3;stroke-linecap:round;stroke-linejoin:round;" d="M86.754,131.346V88.372
		h20.367c1.535,0,3.057,0.379,4.364,1.185c2.213,1.365,5.092,4.06,5.092,8.851c0,3.054-1.027,5.279-2.276,6.855
		c-1.719,2.171-4.421,3.325-7.19,3.325H87.158"/>
	<path style="fill:none;stroke:#000000;stroke-width:3;stroke-linecap:round;stroke-linejoin:round;" d="M101.54,108.582
		c8.991,0.857,14.277,5.032,13.273,22.695"/>
	<path style="fill:none;stroke:#000000;stroke-width:3;stroke-linecap:round;stroke-linejoin:round;" d="M42.646,131.014
		c1.743-4.374,17.039-42.504,17.039-42.504s15.624,39.046,17.039,42.504"/>
	<path style="fill:none;stroke:#000000;stroke-width:3;stroke-linecap:round;stroke-linejoin:round;" d="M70.772,116.169
		c0,0-20.809,0.09-22.213,0.095"/>
	<path style="fill:none;stroke:#000000;stroke-width:3;stroke-linecap:round;stroke-linejoin:round;" d="M33.593,87.435
		c0,0,0,39.921,0,43.288"/>
	<path style="fill:none;stroke:#000000;stroke-width:3;stroke-linecap:round;stroke-linejoin:round;" d="M1.5,87.435
		c0,0,0,39.219,0,43.288"/>
	<path style="fill:none;stroke:#000000;stroke-width:3;stroke-linecap:round;stroke-linejoin:round;" d="M1.5,106.98
		c2.254,0.004,32.093,0,32.093,0"/>
</g>
<g id="Layer_1">
</g>
</svg>
