<?xml version="1.0" encoding="iso-8859-1"?>
<!-- Generator: Adobe Illustrator 23.0.4, SVG Export Plug-In . SVG Version: 6.00 Build 0)  -->
<svg version="1.1" xmlns="http://www.w3.org/2000/svg" xmlns:xlink="http://www.w3.org/1999/xlink" x="0px" y="0px"
	 viewBox="0 0 115.832 117.251" style="enable-background:new 0 0 115.832 117.251;" xml:space="preserve">
<g id="fig-26">
	<g>
		<circle style="fill:none;stroke:#1D1D1B;stroke-width:0.5;stroke-miterlimit:10;" cx="57.96" cy="57.961" r="34.766"/>
		<path style="fill:none;stroke:#1D1D1B;stroke-width:0.5;stroke-miterlimit:10;" d="M57.96,0c0,4.301,0,12.904,0,17.205"/>
		<path style="fill:none;stroke:#1D1D1B;stroke-width:0.5;stroke-miterlimit:10;" d="M57.96,100.046c0,4.301,0,12.904,0,17.205"/>
		
			<line style="fill:none;stroke:#1D1D1B;stroke-width:0.5;stroke-miterlimit:10;" x1="115.832" y1="57.961" x2="98.627" y2="57.961"/>
		<path style="fill:none;stroke:#1D1D1B;stroke-width:0.5;stroke-miterlimit:10;" d="M98.808,99.919
			c0-4.301-12.166-7.865-12.166-12.166"/>
		<path style="fill:none;stroke:#1D1D1B;stroke-width:0.5;stroke-miterlimit:10;" d="M29.371,87.753
			c0,4.301-12.166,7.865-12.166,12.166"/>
		<path style="fill:none;stroke:#1D1D1B;stroke-width:0.5;stroke-miterlimit:10;" d="M30.275,29.278
			c0-4.301-12.166-7.865-12.166-12.166"/>
		<path style="fill:none;stroke:#1D1D1B;stroke-width:0.5;stroke-miterlimit:10;" d="M98.808,17.112
			c0,4.301-12.166,7.865-12.166,12.166"/>
		<line style="fill:none;stroke:#1D1D1B;stroke-width:0.5;stroke-miterlimit:10;" x1="17.205" y1="57.961" x2="0" y2="57.961"/>
	</g>
</g>
<g id="Layer_1">
</g>
</svg>
