<?xml version="1.0" encoding="iso-8859-1"?>
<!-- Generator: Adobe Illustrator 23.0.4, SVG Export Plug-In . SVG Version: 6.00 Build 0)  -->
<svg version="1.1" xmlns="http://www.w3.org/2000/svg" xmlns:xlink="http://www.w3.org/1999/xlink" x="0px" y="0px"
	 viewBox="0 0 105.833 120.48" style="enable-background:new 0 0 105.833 120.48;" xml:space="preserve">
<g id="fig-10">
	<path style="fill:none;stroke:#1D1E1C;stroke-width:0.3781;stroke-miterlimit:10;" d="M0.189,45.776v11.417
		c0,2.576,2.077,4.671,4.653,4.694l96.067,0.837c2.608,0.023,4.735-2.085,4.735-4.694V45.776c0-2.592-2.102-4.694-4.694-4.694H4.883
		C2.291,41.082,0.189,43.183,0.189,45.776z"/>
	<path style="fill:none;stroke:#1D1E1C;stroke-width:0.3781;stroke-miterlimit:10;" d="M9.059,61.845l-0.118,52.502
		c-0.007,3.28,2.65,5.943,5.93,5.943h77.367c3.312,0,5.988-2.702,5.956-6.014l-0.499-51.464"/>
	<path style="fill:none;stroke:#1D1E1C;stroke-width:0.3781;stroke-miterlimit:10;" d="M42.075,120.291c0,0,0-59.407,0-79.21
		s24.066-15.61,22.668,0v79.21"/>
	<path style="fill:none;stroke:#1D1E1C;stroke-width:0.3781;stroke-miterlimit:10;" d="M42.075,41.082
		c0,0-33.451-9.922-24.725-26.301C22.7,4.739,36.759,3.318,44.202,11.923c2.93,3.387,5.734,8.432,8.058,15.833"/>
	<path style="fill:none;stroke:#1D1E1C;stroke-width:0.3781;stroke-miterlimit:10;" d="M54.395,27.756
		c0,0,6.288-30.995,25.971-27.253c6.199,1.178,11.555,5.29,13.834,11.174c2.998,7.743,1.24,19.857-29.456,29.405"/>
</g>
<g id="Layer_1">
</g>
</svg>
