<?xml version="1.0" encoding="iso-8859-1"?>
<!-- Generator: Adobe Illustrator 23.0.4, SVG Export Plug-In . SVG Version: 6.00 Build 0)  -->
<svg version="1.1" xmlns="http://www.w3.org/2000/svg" xmlns:xlink="http://www.w3.org/1999/xlink" x="0px" y="0px"
	 viewBox="0 0 60.303 112.871" style="enable-background:new 0 0 60.303 112.871;" xml:space="preserve">
<g id="fig-9">
	<path style="fill:none;stroke:#1D1E1C;stroke-width:0.3472;stroke-miterlimit:10;" d="M23.536,76.323
		c0.822,0,2.74-9.314,1.918-10.958c0,0,11.456-0.249,12.523-13.095c0.088-1.058-0.735-1.973-1.797-1.973l-13.856,0
		c-0.976,0-1.893,0.45-2.486,1.226C16.683,55.651,6.849,69.338,7.068,79.227c0.01,0.441,0.113,0.87,0.278,1.279
		c1.212,3.003,6.632,15.991,10.984,19.377l-0.274,10.136c0,0,13.15,6.027,29.587,0v-7.671c0,0,6.553-5.34,7.78-8.937
		c0.201-0.589,0.452-1.157,0.7-1.729c1.127-2.601,2.697-9.472,2.478-16.73"/>
	<path style="fill:none;stroke:#1D1E1C;stroke-width:0.3472;stroke-miterlimit:10;" d="M60.112,67.528
		c-0.124-1.773-0.896-5.917-5.434-5.173c-1.903,0.312-3.572,1.44-4.699,3.004c-1.863,2.587-4.939,7.609-6.115,13.883
		c-0.32,1.708,0.077,3.477,1.175,4.824c1.506,1.847,4.128,3.414,7.81-0.348c0,0,6.414-6.433,7.246-14.985
		C60.134,68.333,60.14,67.93,60.112,67.528z"/>
	<path style="fill:none;stroke:#1D1E1C;stroke-width:0.3472;stroke-miterlimit:10;" d="M43.006,49.443"/>
	<path style="fill:none;stroke:#1D1E1C;stroke-width:0.3472;stroke-miterlimit:10;" d="M31.183,73.032
		c0.056-0.314,0.136-0.624,0.231-0.929c0.899-2.874,5.84-18.206,9.757-20.918c4.326-2.995,12.896-2.246,10.233,7.737
		c0,0-4.853,13.552-9.118,20.592c-1.57,2.591-4.756,3.85-7.584,2.766C32.27,81.347,30.134,78.932,31.183,73.032z"/>
	<path style="fill:none;stroke:#1D1E1C;stroke-width:0.3472;stroke-miterlimit:10;" d="M9.516,68.725L8.934,50.297
		c0,0-7.024-27.004-8.532-34.01c-0.229-1.063-0.289-2.152-0.168-3.233C0.583,9.938,2.036,3.989,8.1,6.634
		c2.813,1.228,4.93,3.653,5.963,6.544l10.777,30.13l9.437-35.12c0.454-1.69,1.324-3.237,2.543-4.492
		c2.689-2.768,7.524-6.331,10.323,0.059c1.174,2.681,1.328,5.699,0.602,8.535l-9.08,35.423l0.761,5.367"/>
</g>
<g id="Layer_1">
</g>
</svg>
