<?xml version="1.0" encoding="iso-8859-1"?>
<!-- Generator: Adobe Illustrator 23.0.4, SVG Export Plug-In . SVG Version: 6.00 Build 0)  -->
<svg version="1.1" xmlns="http://www.w3.org/2000/svg" xmlns:xlink="http://www.w3.org/1999/xlink" x="0px" y="0px"
	 viewBox="0 0 113.727 89.908" style="enable-background:new 0 0 113.727 89.908;" xml:space="preserve">
<g id="fig-22">
	<g>
		<g>
			<path style="fill:none;stroke:#1D1E1C;stroke-width:0.3994;" d="M56.949,29.077c0,0-1.823-1.929-5.083-3.977
				c-4.481-2.815-10.721-4.457-15.771,3.522c-7.648,12.083,20.842,32.785,20.842,32.785"/>
			<path style="fill:none;stroke:#1D1E1C;stroke-width:0.3994;" d="M56.936,61.407"/>
			<path style="fill:none;stroke:#1D1E1C;stroke-width:0.3994;" d="M56.936,31.762"/>
		</g>
		<g>
			<path style="fill:none;stroke:#1D1E1C;stroke-width:0.3994;" d="M56.949,29.077c0,0,1.771-1.971,5.057-3.977
				c4.524-2.761,11.387-3.602,15.771,3.522c7.494,12.178-20.842,32.785-20.842,32.785"/>
			<path style="fill:none;stroke:#1D1E1C;stroke-width:0.3994;" d="M56.936,61.407"/>
			<path style="fill:none;stroke:#1D1E1C;stroke-width:0.3994;" d="M56.936,31.762"/>
		</g>
	</g>
	<path style="fill:none;stroke:#1D1E1C;stroke-width:0.3994;" d="M104.959,77H67.816L56.778,89.606L45.698,77H8.596
		C3.959,77,0.2,73.24,0.2,68.603L0.371,8.596C0.371,3.959,4.13,0.2,8.768,0.2h96.363c4.637,0,8.396,3.759,8.396,8.396l-0.171,60.007
		C113.356,73.24,109.596,77,104.959,77z"/>
</g>
<g id="Layer_1">
</g>
</svg>
