<?xml version="1.0" encoding="iso-8859-1"?>
<!-- Generator: Adobe Illustrator 23.0.4, SVG Export Plug-In . SVG Version: 6.00 Build 0)  -->
<svg version="1.1" xmlns="http://www.w3.org/2000/svg" xmlns:xlink="http://www.w3.org/1999/xlink" x="0px" y="0px"
	 viewBox="0 0 83.39 125.571" style="enable-background:new 0 0 83.39 125.571;" xml:space="preserve">
<g id="fig-11">
	
		<line style="fill:none;stroke:#1D1D1B;stroke-width:0.4119;stroke-miterlimit:10;" x1="37.646" y1="56.21" x2="36.568" y2="30.961"/>
	<path style="fill:none;stroke:#1D1D1B;stroke-width:0.4119;stroke-miterlimit:10;" d="M34.736,63.445l-2.065,58.073l0,0
		c0.509,4.929,7.082,5.332,7.705-0.013l0.058-0.053l-2.304-53.935"/>
	<polyline style="fill:none;stroke:#1D1D1B;stroke-width:0.4119;stroke-miterlimit:10;" points="45.038,23.117 36.934,30.917 
		32.278,25.456 35.891,30.958 34.907,58.622 	"/>
	<path style="fill:none;stroke:#1D1D1B;stroke-width:0.4119;stroke-miterlimit:10;" d="M58.186,68.94l-1.546,0.567l-2.267,51.219h0
		c0.409,3.184,5.697,3.445,6.198-0.009l0.046-0.034L58.186,68.94"/>
	<path style="fill:none;stroke:#1D1D1B;stroke-width:0.4119;stroke-miterlimit:10;" d="M15.233,81.16l2.404,2.854l-1.433,29.831l0,0
		c0.313,1.875,4.361,2.029,4.744-0.005l0.036-0.02l-1.649-26.998l3.059-2.958l-3.059,2.958l-0.847-6.463"/>
	<path style="fill:none;stroke:#1D1D1B;stroke-width:0.4119;stroke-miterlimit:10;" d="M33.934,85.996
		c-2.019,2.233-4.231,3.232-7.118,2.88c-1.794,2.195-4.285,4.023-7.118,3.896"/>
	<path style="fill:none;stroke:#1D1D1B;stroke-width:0.4119;stroke-miterlimit:10;" d="M17.216,92.771
		c-2.086,0.217-3.947-0.686-5.58-2.713C-1.632,93.27-3.829,74.509,7.579,73.103c-3.38-12.961,10.395-17.778,16.479-9.658
		c6.979-0.767,9.888,3.374,8.612,9.658c0.813,0.465,1.516,0.989,1.631,1.829"/>
	<path style="fill:none;stroke:#1D1D1B;stroke-width:0.4119;stroke-miterlimit:10;" d="M35.657,37.537
		c-11.389,9.508-22.467,1.116-23.362-8.396C2.783,20.414,10.84,2.734,24.604,5.979C32.02-2.938,44.18-1.154,48.103,8.776
		c19.359-2.35,21.932,23.051,5.371,26.856c-4.208,4.634-9.712,5.544-16.601,2.478"/>
	<path style="fill:none;stroke:#1D1D1B;stroke-width:0.4119;stroke-miterlimit:10;" d="M56.485,72.99
		c-1.735-0.239-3.409-0.679-4.227-2.669c-3.917,1.121-7.113,0.124-10.482-2.391c-9.499-0.663-9.499-11.544-2.515-12.06
		c2.393-4.868,6.477-7.236,11.492-6.432c1.976-5.248,9.125-5.511,11.543-0.359c3.732-3.207,8.463-1.787,10.092,2.621
		c3.142-0.179,4.877,0.937,5.7,3.902c7.231,1.625,6.337,11.087,0,12.06c-1.781,3.494-4.538,4.272-8.801,2.233
		c-1.948,1.244-4.313,1.387-6.571,0.263c-0.429,1.869-2.02,2.585-4.336,2.945"/>
</g>
<g id="Layer_1">
</g>
</svg>
