<?xml version="1.0" encoding="iso-8859-1"?>
<!-- Generator: Adobe Illustrator 23.0.4, SVG Export Plug-In . SVG Version: 6.00 Build 0)  -->
<svg version="1.1" xmlns="http://www.w3.org/2000/svg" xmlns:xlink="http://www.w3.org/1999/xlink" x="0px" y="0px"
	 viewBox="0 0 88.654 127.012" style="enable-background:new 0 0 88.654 127.012;" xml:space="preserve">
<g id="fig-12">
	<path style="fill:none;stroke:#1D1D1B;stroke-width:0.4334;stroke-miterlimit:10;" d="M44.706,126.704
		C20.518,102.831,4.327,78.742,0.695,54.314C-0.211,48.22,0.19,42.013,1.721,36.045C7.214,14.627,20.333,0.357,44.706,0.217
		c25.917,1.108,40.102,15.874,43.388,43.328C91.109,68.393,74.084,96.384,44.706,126.704z"/>
	<path style="fill:none;stroke:#1D1D1B;stroke-width:0.4334;stroke-miterlimit:10;" d="M44.694,62.917
		C32.321,55.02,23.329,48.143,21.129,38.449c-0.541-2.384-0.083-6.201,0.976-8.404c2.477-5.154,6.17-7.93,12.35-8.341
		c4.216,0.427,7.933,1.772,10.239,4.442c2.513-2.622,6.193-4.002,9.859-4.473c4.631-0.64,14.191,2.956,13.787,13.132
		C68.744,42.871,60.619,51.288,44.694,62.917z"/>
</g>
<g id="Layer_1">
</g>
</svg>
