<?xml version="1.0" encoding="iso-8859-1"?>
<!-- Generator: Adobe Illustrator 23.0.4, SVG Export Plug-In . SVG Version: 6.00 Build 0)  -->
<svg version="1.1" xmlns="http://www.w3.org/2000/svg" xmlns:xlink="http://www.w3.org/1999/xlink" x="0px" y="0px"
	 viewBox="0 0 113.011 109.261" style="enable-background:new 0 0 113.011 109.261;" xml:space="preserve">
<g id="fig-20">
	<path style="fill:none;stroke:#1D1D1B;stroke-width:0.4577;" d="M112.782,50.353V9.819c0-5.297-4.182-9.59-9.341-9.59H84.054
		c-5.159,0-9.341,4.294-9.341,9.59v40.533c0,5.297,4.182,9.59,9.341,9.59h19.387C108.6,59.943,112.782,55.649,112.782,50.353z"/>
	<path style="fill:none;stroke:#1D1D1B;stroke-width:0.4577;" d="M74.713,52.358c0,0-25.852,29.402-27.475,35.174
		c-1.623,5.772-2.048,18.934-2.048,18.934c-0.077,2.039-1.613,2.62-3.653,2.562c-9.858-0.279-11.573-5.245-13.463-12.511
		c-0.285-1.097-2.351-9.959,4.235-25.813c0.127-0.305,0.108-0.656-0.058-0.941l0,0c-0.968-1.662-2.713-2.718-4.634-2.806
		L6.044,65.971c-1.265-0.058-2.956-0.912-3.679-1.952c-3.144-4.529-2.66-9.183,0.414-13.924c0.692-1.067,2.046-1.525,3.317-1.525
		l13.981-0.211l-13.5-0.746c-0.858-0.089-1.686-0.454-2.253-1.104c-2.892-3.317-2.761-9.894-0.052-13.883
		c0.601-0.884,1.624-1.39,2.692-1.44l15.055-0.395L9.735,30.184c-1.117-0.076-2.144-0.692-2.684-1.673
		c-1.655-3.005-1.363-7.766-0.032-10.885c0.634-1.486,2.04-2.493,3.652-2.597l13.223-0.456l-11.433-0.408
		c-2.388-2.891-1.909-7.551,0.436-11.158c0.562-0.864,1.529-1.395,2.557-1.454c21.563-1.24,40.26-1.195,60.127,4.248"/>
</g>
<g id="Layer_1">
</g>
</svg>
