<?xml version="1.0" encoding="iso-8859-1"?>
<!-- Generator: Adobe Illustrator 23.0.4, SVG Export Plug-In . SVG Version: 6.00 Build 0)  -->
<svg version="1.1" xmlns="http://www.w3.org/2000/svg" xmlns:xlink="http://www.w3.org/1999/xlink" x="0px" y="0px"
	 viewBox="0 0 101.814 93.424" style="enable-background:new 0 0 101.814 93.424;" xml:space="preserve">
<g id="fig-5">
	<path style="fill:none;stroke:#1D1E1C;stroke-width:0.3342;stroke-miterlimit:10;" d="M18.73,88.079
		c-6.859-5.153-10.768-14.417,5.664-30.158c0.455-0.436,0.927-0.858,1.407-1.267c1.699-1.45,6.792-6.054,8.415-10.437
		c0.806-2.178,1.945-4.219,3.563-5.885c4.593-4.729,13.768-11.413,23.553-2.913c2.443,2.122,4.336,4.799,5.718,7.726
		c1.655,3.504,4.874,9.541,8.623,12.517c2.133,1.694,4.102,3.58,5.708,5.78c5.748,7.875,14.612,23.816-3.271,28.811
		c-5.485,1.532-11.304,1.263-16.728-0.471c-4.906-1.568-13.24-3.059-23.369-0.192C31.405,93.46,24.221,92.205,18.73,88.079z"/>
	<path style="fill:none;stroke:#1D1E1C;stroke-width:0.3342;stroke-miterlimit:10;" d="M3.55,29.28
		c2.436-2.932,6.164-5.06,11.5-2.43c2.521,1.242,4.615,3.209,6.125,5.579c1.162,1.824,2.418,4.344,2.978,7.314
		c1.799,9.534-4.608,16.184-14.1,14.176c-3.962-0.838-7.802-3.78-9.483-11.325C-0.469,37.925,0.493,32.959,3.55,29.28z"/>
	<path style="fill:none;stroke:#1D1E1C;stroke-width:0.3342;stroke-miterlimit:10;" d="M98.264,29.28
		c-2.436-2.932-6.164-5.06-11.5-2.43c-2.521,1.242-4.615,3.209-6.125,5.579c-1.162,1.824-2.418,4.344-2.978,7.314
		c-1.799,9.534,4.608,16.184,14.1,14.176c3.962-0.838,7.802-3.78,9.483-11.325C102.284,37.925,101.321,32.959,98.264,29.28z"/>
	<path style="fill:none;stroke:#1D1E1C;stroke-width:0.3342;stroke-miterlimit:10;" d="M77.748,4.194
		C75.04,0.935,70.896-1.43,64.965,1.493c-2.802,1.381-5.13,3.567-6.807,6.201c-1.291,2.028-2.688,4.828-3.311,8.13
		c-2,10.597,5.121,17.988,15.672,15.756c4.403-0.931,8.672-4.202,10.54-12.588C82.215,13.803,81.146,8.283,77.748,4.194z"/>
	<path style="fill:none;stroke:#1D1E1C;stroke-width:0.3342;stroke-miterlimit:10;" d="M24.183,4.194
		c2.708-3.259,6.852-5.624,12.783-2.701c2.802,1.381,5.13,3.567,6.807,6.201c1.291,2.028,2.688,4.828,3.311,8.13
		c2,10.597-5.121,17.988-15.672,15.756c-4.403-0.931-8.672-4.202-10.54-12.588C19.716,13.803,20.785,8.283,24.183,4.194z"/>
</g>
<g id="Layer_1">
</g>
</svg>
