<?xml version="1.0" encoding="iso-8859-1"?>
<!-- Generator: Adobe Illustrator 23.0.4, SVG Export Plug-In . SVG Version: 6.00 Build 0)  -->
<svg version="1.1" xmlns="http://www.w3.org/2000/svg" xmlns:xlink="http://www.w3.org/1999/xlink" x="0px" y="0px"
	 viewBox="0 0 52.547 106.321" style="enable-background:new 0 0 52.547 106.321;" xml:space="preserve">
<g id="fig-16">
	
		<line style="fill:none;stroke:#1D1D1B;stroke-width:0.4271;stroke-miterlimit:10;" x1="25.474" y1="0.214" x2="25.474" y2="66.798"/>
	<path style="fill:none;stroke:#1D1D1B;stroke-width:0.4271;stroke-miterlimit:10;" d="M40.527,66.798H10.591
		c-0.854,0-1.576-0.63-1.692-1.476L0.23,2.154C0.089,1.128,0.886,0.214,1.922,0.214h48.703c1.051,0,1.853,0.94,1.687,1.978
		L42.214,65.359C42.082,66.188,41.367,66.798,40.527,66.798z"/>
	<path style="fill:none;stroke:#1D1D1B;stroke-width:0.4271;stroke-miterlimit:10;" d="M12.446,105.005l4.07-13.481
		c0.102-0.339-0.016-0.707-0.297-0.923l-10.819-8.31c-0.646-0.496-0.295-1.529,0.519-1.529h13.703c0.367,0,0.693-0.235,0.809-0.583
		l4.258-12.798c0.256-0.77,1.342-0.78,1.613-0.015l4.54,12.829c0.121,0.341,0.443,0.568,0.804,0.568h13.383
		c0.817,0,1.166,1.038,0.516,1.532c0,0-8.2,6.226-10.933,8.301c-0.288,0.219-0.407,0.595-0.296,0.939l4.31,13.438
		c0.247,0.772-0.62,1.421-1.29,0.966l-11.368-7.705c-0.29-0.197-0.671-0.196-0.96,0.003l-11.262,7.719
		C13.08,106.41,12.213,105.776,12.446,105.005z"/>
</g>
<g id="Layer_1">
</g>
</svg>
