<?xml version="1.0" encoding="iso-8859-1"?>
<!-- Generator: Adobe Illustrator 23.0.4, SVG Export Plug-In . SVG Version: 6.00 Build 0)  -->
<svg version="1.1" xmlns="http://www.w3.org/2000/svg" xmlns:xlink="http://www.w3.org/1999/xlink" x="0px" y="0px"
	 viewBox="0 0 117.175 122.477" style="enable-background:new 0 0 117.175 122.477;" xml:space="preserve">
<g id="fig-15">
	<path style="fill:none;stroke:#1D1D1B;stroke-width:0.4347;stroke-miterlimit:10;" d="M62.89,85.316
		c8.713,1.877,13.541,7.316,11.917,18.67c-2.965,13.287-15.415,17.547-31.58,18.273C23.39,122.365,14.229,111.967,10.68,96.05
		c-1.076-4.825-1.128-9.814-0.106-14.652c3.681-17.421,13.997-27.079,31.561-28.258C52.2,52.031,61.3,53.545,68.712,58.413
		c0.323-3.743,1.315-6.751,3.872-9.602c-7.103-4.274-12.749-10.29-17.44-17.916c-4.144-6.678-4.39-14.9-3.575-23.542
		c11.977,2.245,21.195,15.523,28.998,34.466c-3.314-8.356-6.754-15.055-11.479-21.59c-0.508-9.242,2.157-16.133,5.006-19.95
		c11.661,6.145,14.392,23.972,15.159,41.547c-2.95-0.239-5.846-0.243-8.687-0.007c18.933-1.447,31.094,5.434,36.051,20.979
		c0.084,0.264,0.146,0.545,0.179,0.821c1.501,12.707-7.714,17.782-19.94,18.297l-7.988,26.479c4.398,0.835,7.053,2.514,6.992,6.118
		c0.047,3.156-2.876,4.496-6.377,4.608c-7.651,0.246-19.83,0.32-29.245,0.302"/>
	<path style="fill:none;stroke:#1D1D1B;stroke-width:0.4347;stroke-miterlimit:10;" d="M11.342,98.714
		c-6.667-0.43-10.904-3.095-11.124-9.451c0.44-5.825,4.222-8.804,10.72-9.473"/>
	<circle style="fill:#1D1D1B;stroke:#1D1D1B;stroke-width:0.4347;stroke-miterlimit:10;" cx="94.03" cy="55.682" r="2.377"/>
</g>
<g id="Layer_1">
</g>
</svg>
