<?xml version="1.0" encoding="iso-8859-1"?>
<!-- Generator: Adobe Illustrator 23.0.4, SVG Export Plug-In . SVG Version: 6.00 Build 0)  -->
<svg version="1.1" xmlns="http://www.w3.org/2000/svg" xmlns:xlink="http://www.w3.org/1999/xlink" x="0px" y="0px"
	 viewBox="0 0 156.876 144.485" style="enable-background:new 0 0 156.876 144.485;" xml:space="preserve">
<g id="icon-5">
	<path style="fill:none;stroke:#1D1E1C;stroke-width:7;stroke-linecap:round;stroke-linejoin:round;stroke-miterlimit:10;" d="
		M30.916,133.338c-10.129-7.61-15.903-21.293,8.366-44.54c0.672-0.644,1.37-1.267,2.078-1.872
		c2.509-2.141,10.032-8.94,12.428-15.414c1.191-3.217,2.872-6.231,5.262-8.691c6.784-6.984,20.335-16.856,34.785-4.303
		c3.608,3.135,6.404,7.088,8.446,11.41c2.444,5.176,7.199,14.091,12.735,18.487c3.15,2.501,6.058,5.287,8.43,8.536
		c8.489,11.631,21.58,35.174-4.831,42.551c-8.101,2.263-16.694,1.865-24.706-0.696c-7.246-2.316-19.553-4.518-34.514-0.284
		C49.635,141.284,39.026,139.43,30.916,133.338z"/>
	<path style="fill:none;stroke:#1D1E1C;stroke-width:7;stroke-linecap:round;stroke-linejoin:round;stroke-miterlimit:10;" d="
		M8.496,46.497c3.598-4.33,9.104-7.473,16.985-3.589c3.723,1.835,6.816,4.739,9.045,8.24c1.716,2.694,3.571,6.416,4.399,10.803
		c2.657,14.08-6.805,23.902-20.824,20.936c-5.851-1.238-11.523-5.583-14.006-16.726C2.56,59.265,3.981,51.931,8.496,46.497z"/>
	<path style="fill:none;stroke:#1D1E1C;stroke-width:7;stroke-linecap:round;stroke-linejoin:round;stroke-miterlimit:10;" d="
		M148.379,46.497c-3.598-4.33-9.104-7.473-16.985-3.589c-3.723,1.835-6.816,4.739-9.045,8.24c-1.716,2.694-3.571,6.416-4.399,10.803
		c-2.657,14.08,6.805,23.902,20.824,20.936c5.851-1.238,11.523-5.583,14.006-16.726C154.316,59.265,152.895,51.931,148.379,46.497z"
		/>
	<path style="fill:none;stroke:#1D1E1C;stroke-width:7;stroke-linecap:round;stroke-linejoin:round;stroke-miterlimit:10;" d="
		M118.079,9.447c-3.999-4.813-10.119-8.306-18.879-3.989c-4.138,2.039-7.576,5.267-10.054,9.158
		c-1.907,2.995-3.969,7.131-4.889,12.007c-2.953,15.65,7.564,26.567,23.145,23.271c6.503-1.376,12.808-6.206,15.567-18.59
		C124.677,23.638,123.097,15.487,118.079,9.447z"/>
	<path style="fill:none;stroke:#1D1E1C;stroke-width:7;stroke-linecap:round;stroke-linejoin:round;stroke-miterlimit:10;" d="
		M38.97,9.447c3.999-4.813,10.119-8.306,18.879-3.989c4.138,2.039,7.576,5.267,10.054,9.158c1.907,2.995,3.969,7.131,4.889,12.007
		c2.953,15.65-7.564,26.567-23.145,23.271c-6.503-1.376-12.808-6.206-15.567-18.59C32.372,23.638,33.951,15.487,38.97,9.447z"/>
</g>
<g id="Layer_1">
</g>
</svg>
