<?xml version="1.0" encoding="iso-8859-1"?>
<!-- Generator: Adobe Illustrator 23.0.4, SVG Export Plug-In . SVG Version: 6.00 Build 0)  -->
<svg version="1.1" xmlns="http://www.w3.org/2000/svg" xmlns:xlink="http://www.w3.org/1999/xlink" x="0px" y="0px"
	 viewBox="0 0 179.413 187.153" style="enable-background:new 0 0 179.413 187.153;" xml:space="preserve">
<g id="icon-15">
	<path style="fill:none;stroke:#1D1D1B;stroke-width:7;stroke-linecap:round;stroke-linejoin:round;stroke-miterlimit:10;" d="
		M96.06,129.091c12.868,2.772,19.999,10.804,17.6,27.574c-4.378,19.624-22.767,25.915-46.64,26.987
		c-29.297,0.157-42.826-15.199-48.069-38.707c-1.589-7.127-1.666-14.495-0.157-21.639c5.436-25.73,20.673-39.993,46.613-41.735
		c14.866-1.638,28.306,0.598,39.252,7.787c0.477-5.528,1.942-9.97,5.718-14.181C99.887,68.865,91.549,59.98,84.62,48.717
		c-6.12-9.862-6.483-22.005-5.28-34.769c17.688,3.316,31.304,22.926,42.827,50.902c-4.894-12.341-9.975-22.234-16.953-31.887
		c-0.75-13.649,3.186-23.827,7.393-29.464c17.223,9.076,21.255,35.404,22.389,61.36c-4.356-0.353-8.634-0.36-12.829-0.01
		c27.962-2.137,45.922,8.025,53.244,30.984c0.125,0.39,0.216,0.805,0.264,1.212c2.217,18.767-11.393,26.262-29.449,27.022
		l-11.798,39.107c6.495,1.234,10.417,3.713,10.326,9.035c0.07,4.661-4.247,6.639-9.418,6.806c-11.3,0.363-29.288,0.473-43.192,0.446
		"/>
	<path style="fill:none;stroke:#1D1D1B;stroke-width:7;stroke-linecap:round;stroke-linejoin:round;stroke-miterlimit:10;" d="
		M19.929,148.878c-9.847-0.636-16.104-4.571-16.429-13.959c0.65-8.602,6.236-13.003,15.833-13.99"/>
	<path style="fill:none;stroke:#1D1D1B;stroke-width:7;stroke-linecap:round;stroke-linejoin:round;stroke-miterlimit:10;" d="
		M146.174,85.326c0,1.939-1.768,3.926-3.707,3.926s-3.926-1.987-3.926-3.926s1.87-3.809,3.809-3.809S146.174,83.387,146.174,85.326z
		"/>
</g>
<g id="Layer_1">
</g>
</svg>
