<?xml version="1.0" encoding="iso-8859-1"?>
<!-- Generator: Adobe Illustrator 23.0.4, SVG Export Plug-In . SVG Version: 6.00 Build 0)  -->
<svg version="1.1" xmlns="http://www.w3.org/2000/svg" xmlns:xlink="http://www.w3.org/1999/xlink" x="0px" y="0px"
	 viewBox="0 0 137.293 193.81" style="enable-background:new 0 0 137.293 193.81;" xml:space="preserve">
<g id="icon-12">
	<path style="fill:none;stroke:#1D1D1B;stroke-width:7;stroke-linecap:round;stroke-linejoin:round;stroke-miterlimit:10;" d="
		M69.207,190.31C33.482,155.051,9.571,119.474,4.207,83.396c-1.338-9-0.746-18.168,1.514-26.981
		C13.835,24.782,33.21,3.707,69.207,3.5c38.276,1.637,59.226,23.445,64.079,63.991C137.739,104.19,112.594,145.529,69.207,190.31z"
		/>
	<path style="fill:none;stroke:#1D1D1B;stroke-width:7;stroke-linecap:round;stroke-linejoin:round;stroke-miterlimit:10;" d="
		M69.189,96.101C50.915,84.439,37.635,74.282,34.386,59.965c-0.799-3.521-0.122-9.158,1.441-12.412
		c3.658-7.613,9.112-11.711,18.24-12.319c6.227,0.631,11.716,2.616,15.122,6.56c3.711-3.872,9.146-5.91,14.56-6.607
		c6.84-0.945,20.959,4.366,20.362,19.395C104.708,66.496,92.709,78.926,69.189,96.101z"/>
</g>
<g id="Layer_1">
</g>
</svg>
