<?xml version="1.0" encoding="iso-8859-1"?>
<!-- Generator: Adobe Illustrator 23.0.4, SVG Export Plug-In . SVG Version: 6.00 Build 0)  -->
<svg version="1.1" xmlns="http://www.w3.org/2000/svg" xmlns:xlink="http://www.w3.org/1999/xlink" x="0px" y="0px"
	 viewBox="0 0 147.902 219.529" style="enable-background:new 0 0 147.902 219.529;" xml:space="preserve">
<g id="icon-11">
	
		<line style="fill:none;stroke:#1D1D1B;stroke-width:7;stroke-linecap:round;stroke-linejoin:round;stroke-miterlimit:10;" x1="67.077" y1="98.599" x2="65.245" y2="55.724"/>
	<path style="fill:none;stroke:#1D1D1B;stroke-width:7;stroke-linecap:round;stroke-linejoin:round;stroke-miterlimit:10;" d="
		M62.134,110.884l-3.506,98.612l0,0c0.864,8.369,12.026,9.054,13.083-0.022l0.098-0.09l-3.912-91.585"/>
	
		<polyline style="fill:none;stroke:#1D1D1B;stroke-width:7;stroke-linecap:round;stroke-linejoin:round;stroke-miterlimit:10;" points="
		79.628,42.404 65.866,55.65 57.96,46.377 64.096,55.719 62.426,102.694 	"/>
	<path style="fill:none;stroke:#1D1D1B;stroke-width:7;stroke-linecap:round;stroke-linejoin:round;stroke-miterlimit:10;" d="
		M101.954,120.215l-2.626,0.963l-3.85,86.973l0,0c0.695,5.407,9.674,5.85,10.525-0.014l0.079-0.058L101.954,120.215"/>
	<path style="fill:none;stroke:#1D1D1B;stroke-width:7;stroke-linecap:round;stroke-linejoin:round;stroke-miterlimit:10;" d="
		M29.017,140.966l4.082,4.847l-2.433,50.655h0c0.532,3.184,7.405,3.445,8.056-0.008l0.06-0.034l-2.799-45.845l5.194-5.023
		l-5.194,5.023l-1.438-10.975"/>
	<path style="fill:none;stroke:#1D1D1B;stroke-width:7;stroke-linecap:round;stroke-linejoin:round;stroke-miterlimit:10;" d="
		M60.773,149.177c-3.429,3.792-7.185,5.488-12.087,4.89c-3.046,3.728-7.277,6.831-12.087,6.615"/>
	<path style="fill:none;stroke:#1D1D1B;stroke-width:7;stroke-linecap:round;stroke-linejoin:round;stroke-miterlimit:10;" d="
		M32.385,160.682c-3.543,0.369-6.702-1.166-9.476-4.606c-22.53,5.453-26.261-26.405-6.888-28.792
		c-5.74-22.008,17.651-30.188,27.983-16.4c11.851-1.303,16.79,5.729,14.624,16.4c1.38,0.79,2.575,1.679,2.77,3.105"/>
	<path style="fill:none;stroke:#1D1D1B;stroke-width:7;stroke-linecap:round;stroke-linejoin:round;stroke-miterlimit:10;" d="
		M63.699,66.891c-19.339,16.146-38.151,1.895-39.671-14.256C7.877,37.814,21.557,7.792,44.929,13.303
		C57.522-1.838,78.171,1.19,84.832,18.053c32.872-3.99,37.243,39.143,9.121,45.603c-7.145,7.87-16.492,9.415-28.189,4.208"/>
	<path style="fill:none;stroke:#1D1D1B;stroke-width:7;stroke-linecap:round;stroke-linejoin:round;stroke-miterlimit:10;" d="
		M99.066,127.093c-2.946-0.406-5.79-1.153-7.177-4.533c-6.652,1.904-12.078,0.21-17.799-4.061
		c-16.13-1.126-16.13-19.603-4.27-20.478c4.063-8.267,10.998-12.287,19.515-10.922c3.355-8.911,15.494-9.357,19.6-0.61
		c6.337-5.445,14.371-3.035,17.138,4.451c5.336-0.304,8.282,1.591,9.679,6.626c12.279,2.759,10.761,18.826,0,20.478
		c-3.024,5.934-7.706,7.254-14.946,3.792c-3.309,2.112-7.324,2.355-11.158,0.446c-0.728,3.174-3.431,4.39-7.363,5.001"/>
</g>
<g id="Layer_1">
</g>
</svg>
