<?xml version="1.0" encoding="iso-8859-1"?>
<!-- Generator: Adobe Illustrator 23.0.4, SVG Export Plug-In . SVG Version: 6.00 Build 0)  -->
<svg version="1.1" xmlns="http://www.w3.org/2000/svg" xmlns:xlink="http://www.w3.org/1999/xlink" x="0px" y="0px"
	 viewBox="0 0 97.431 190.732" style="enable-background:new 0 0 97.431 190.732;" xml:space="preserve">
<g id="icon-16">
	
		<line style="fill:none;stroke:#1D1D1B;stroke-width:7;stroke-linecap:round;stroke-linejoin:round;stroke-miterlimit:10;" x1="47.328" y1="3.5" x2="47.328" y2="119.028"/>
	<path style="fill:none;stroke:#1D1D1B;stroke-width:7;stroke-linecap:round;stroke-linejoin:round;stroke-miterlimit:10;" d="
		M73.447,119.028H21.506c-1.481,0-2.735-1.094-2.936-2.561L3.528,6.867C3.284,5.087,4.667,3.5,6.465,3.5h84.502
		c1.824,0,3.215,1.631,2.927,3.432l-17.52,109.6C76.144,117.97,74.903,119.028,73.447,119.028z"/>
	<path style="fill:none;stroke:#1D1D1B;stroke-width:7;stroke-linecap:round;stroke-linejoin:round;stroke-miterlimit:10;" d="
		M24.723,185.32l7.061-23.39c0.178-0.589-0.027-1.226-0.515-1.601L12.498,145.91c-1.121-0.861-0.512-2.652,0.901-2.652h23.775
		c0.637,0,1.203-0.408,1.404-1.012l7.389-22.205c0.445-1.336,2.328-1.354,2.798-0.026l7.877,22.258
		c0.209,0.591,0.768,0.986,1.395,0.986h23.22c1.417,0,2.023,1.801,0.895,2.658c0,0-14.227,10.802-18.97,14.403
		c-0.5,0.379-0.706,1.033-0.514,1.63l7.478,23.315c0.429,1.339-1.075,2.465-2.239,1.676L48.182,173.57
		c-0.504-0.341-1.165-0.34-1.666,0.004l-19.54,13.393C25.824,187.757,24.32,186.657,24.723,185.32z"/>
</g>
<g id="Layer_1">
</g>
</svg>
