<?xml version="1.0" encoding="iso-8859-1"?>
<!-- Generator: Adobe Illustrator 23.0.4, SVG Export Plug-In . SVG Version: 6.00 Build 0)  -->
<svg version="1.1" xmlns="http://www.w3.org/2000/svg" xmlns:xlink="http://www.w3.org/1999/xlink" x="0px" y="0px"
	 viewBox="0 0 174.373 139.043" style="enable-background:new 0 0 174.373 139.043;" xml:space="preserve">
<g id="icon-22">
	<g>
		<path style="fill:none;stroke:#1D1E1C;stroke-width:7;stroke-linecap:round;stroke-linejoin:round;" d="M87.313,46.149
			c0,0-2.693-2.849-7.508-5.874c-6.618-4.158-15.833-6.583-23.293,5.202C45.218,63.322,87.294,93.898,87.294,93.898"/>
		<path style="fill:none;stroke:#1D1E1C;stroke-width:7;stroke-linecap:round;stroke-linejoin:round;" d="M87.294,93.898"/>
		<path style="fill:none;stroke:#1D1E1C;stroke-width:7;stroke-linecap:round;stroke-linejoin:round;" d="M87.294,50.114"/>
	</g>
	<g>
		<path style="fill:none;stroke:#1D1E1C;stroke-width:7;stroke-linecap:round;stroke-linejoin:round;" d="M87.313,46.149
			c0,0,2.616-2.912,7.469-5.874c6.681-4.078,16.818-5.32,23.292,5.202c11.068,17.986-30.781,48.421-30.781,48.421"/>
		<path style="fill:none;stroke:#1D1E1C;stroke-width:7;stroke-linecap:round;stroke-linejoin:round;" d="M87.294,93.898"/>
		<path style="fill:none;stroke:#1D1E1C;stroke-width:7;stroke-linecap:round;stroke-linejoin:round;" d="M87.294,50.114"/>
	</g>
	<path style="fill:none;stroke:#1D1E1C;stroke-width:7;stroke-linecap:round;stroke-linejoin:round;" d="M158.219,116.926h-54.856
		L87.06,135.543l-16.363-18.618H15.901c-6.849,0-12.401-5.552-12.401-12.401l0.253-88.624C3.753,9.052,9.305,3.5,16.154,3.5h142.318
		c6.849,0,12.401,5.552,12.401,12.401l-0.253,88.624C170.62,111.374,165.068,116.926,158.219,116.926z"/>
</g>
<g id="Layer_1">
</g>
</svg>
