<?xml version="1.0" encoding="iso-8859-1"?>
<!-- Generator: Adobe Illustrator 23.0.4, SVG Export Plug-In . SVG Version: 6.00 Build 0)  -->
<svg version="1.1" xmlns="http://www.w3.org/2000/svg" xmlns:xlink="http://www.w3.org/1999/xlink" x="0px" y="0px"
	 viewBox="0 0 135.885 190.754" style="enable-background:new 0 0 135.885 190.754;" xml:space="preserve">
<g id="icon-14">
	<path style="fill:none;stroke:#1D1D1B;stroke-width:7;stroke-linecap:round;stroke-linejoin:round;stroke-miterlimit:10;" d="
		M75.345,159.862c-2.467,1.795-17.528,2.221-23.867,1.9c-1.236-0.063-2.466-0.246-3.662-0.562
		c-24.828-6.56-34.909-18.933-42.706-41.823c-0.579-1.699-0.957-3.459-1.137-5.245c-0.498-4.933-0.615-10.489-0.292-13.725
		C7.248,64.655,27.738,32.89,58.309,3.5c16.908,17.017,30.864,33.709,39.243,48.977"/>
	<path style="fill:none;stroke:#1D1D1B;stroke-width:7;stroke-linecap:round;stroke-linejoin:round;stroke-miterlimit:10;" d="
		M95.009,187.254l19.284-140.035c-24.387,26.42-38.015,52.612-40.682,83.368c-0.277,3.191,0.034,6.425,1.031,9.469
		c4.05,12.363,12.253,19.807,23.814,23.273c15.705-0.693,25.742-7.353,30.967-19.081c0.809-1.815,1.314-3.765,1.554-5.738
		c4.508-37.051-2.027-67.019-16.318-91.291"/>
</g>
<g id="Layer_1">
</g>
</svg>
