<?xml version="1.0" encoding="iso-8859-1"?>
<!-- Generator: Adobe Illustrator 23.0.4, SVG Export Plug-In . SVG Version: 6.00 Build 0)  -->
<svg version="1.1" xmlns="http://www.w3.org/2000/svg" xmlns:xlink="http://www.w3.org/1999/xlink" x="0px" y="0px"
	 viewBox="0 0 111.111 108.174" style="enable-background:new 0 0 111.111 108.174;" xml:space="preserve">
<g id="fig-8">
	<path style="fill:none;stroke:#1D1E1C;stroke-width:0.364;stroke-miterlimit:10;" d="M56.204,44.641L16.16,44.757
		c0,0-9.837,62.883,40.4,61.127"/>
	<path style="fill:none;stroke:#1D1E1C;stroke-width:0.364;stroke-miterlimit:10;" d="M53.073,44.64l40.044,0.116
		c0,0,9.837,62.883-40.4,61.127"/>
	<path style="fill:none;stroke:#1D1E1C;stroke-width:0.364;stroke-miterlimit:10;" d="M93.518,48.264c0,0,11.827-2.974,16.044,4.36
		c2.035,3.539,1.792,8.036-0.686,11.279c-2.214,2.898-6.721,5.797-15.891,5.797"/>
	<line style="fill:none;stroke:#1D1E1C;stroke-width:0.364;stroke-miterlimit:10;" x1="0" y1="107.992" x2="111.018" y2="107.992"/>
	<path style="fill:none;stroke:#1D1E1C;stroke-width:0.364;stroke-miterlimit:10;" d="M59.192,0.169c0,0-12.883,5.041-8.642,11.622
		c0.891,1.383,2.279,2.364,3.83,2.911c4.458,1.572,16.254,6.983,0.062,16.03"/>
	<path style="fill:none;stroke:#1D1E1C;stroke-width:0.364;stroke-miterlimit:10;" d="M40.167,9.339c0,0-9.018,3.529-6.049,8.136
		c0.624,0.968,1.595,1.655,2.681,2.038c3.12,1.101,11.378,4.888,0.044,11.221"/>
	<path style="fill:none;stroke:#1D1E1C;stroke-width:0.364;stroke-miterlimit:10;" d="M77.319,9.339c0,0-9.018,3.529-6.049,8.136
		c0.624,0.968,1.595,1.655,2.681,2.038c3.12,1.101,11.378,4.888,0.044,11.221"/>
</g>
<g id="Layer_1">
</g>
</svg>
