<?xml version="1.0" encoding="iso-8859-1"?>
<!-- Generator: Adobe Illustrator 23.0.4, SVG Export Plug-In . SVG Version: 6.00 Build 0)  -->
<svg version="1.1" xmlns="http://www.w3.org/2000/svg" xmlns:xlink="http://www.w3.org/1999/xlink" x="0px" y="0px"
	 viewBox="0 0 124.279 119.704" style="enable-background:new 0 0 124.279 119.704;" xml:space="preserve">
<g id="fig-24">
	<path style="fill:none;stroke:#1D1D1B;stroke-width:0.5;stroke-miterlimit:10;" d="M22.633,116.111l12.341-40.88
		c0.311-1.029-0.048-2.143-0.9-2.798L1.266,47.234c-1.959-1.504-0.895-4.636,1.575-4.636h41.552c1.113,0,2.102-0.713,2.453-1.769
		L59.76,2.019c0.777-2.335,4.069-2.367,4.891-0.046l13.768,38.902c0.365,1.033,1.342,1.723,2.437,1.723h40.583
		c2.477,0,3.536,3.147,1.563,4.645L89.848,72.414c-0.873,0.663-1.233,1.805-0.898,2.849l13.07,40.749
		c0.75,2.34-1.879,4.308-3.912,2.93L63.633,95.576c-0.88-0.596-2.035-0.593-2.912,0.008L26.57,118.991
		C24.556,120.371,21.927,118.448,22.633,116.111z"/>
</g>
<g id="Layer_1">
</g>
</svg>
