<?xml version="1.0" encoding="iso-8859-1"?>
<!-- Generator: Adobe Illustrator 23.0.4, SVG Export Plug-In . SVG Version: 6.00 Build 0)  -->
<svg version="1.1" xmlns="http://www.w3.org/2000/svg" xmlns:xlink="http://www.w3.org/1999/xlink" x="0px" y="0px"
	 viewBox="0 0 113.011 109.261" style="enable-background:new 0 0 113.011 109.261;" xml:space="preserve">
<g id="fig-21">
	<path style="fill:none;stroke:#1D1D1B;stroke-width:0.4577;" d="M0.229,58.908v40.533c0,5.297,4.182,9.59,9.341,9.59h19.387
		c5.159,0,9.341-4.294,9.341-9.59V58.908c0-5.297-4.182-9.59-9.341-9.59H9.57C4.411,49.318,0.229,53.612,0.229,58.908z"/>
	<path style="fill:none;stroke:#1D1D1B;stroke-width:0.4577;" d="M38.298,56.903c0,0,25.852-29.402,27.475-35.174
		s2.048-18.934,2.048-18.934c0.077-2.039,1.613-2.62,3.653-2.562c9.858,0.279,11.573,5.245,13.463,12.511
		c0.285,1.097,2.351,9.959-4.235,25.813c-0.127,0.305-0.108,0.656,0.058,0.941l0,0c0.968,1.662,2.713,2.718,4.634,2.806
		l21.571,0.986c1.265,0.058,2.956,0.912,3.679,1.952c3.144,4.529,2.66,9.183-0.414,13.924c-0.692,1.067-2.046,1.525-3.317,1.525
		l-11.589,0.214l11.107,0.743c0.858,0.089,1.686,0.454,2.253,1.104c2.892,3.317,2.761,9.894,0.052,13.883
		c-0.601,0.884-1.624,1.39-2.692,1.44l-12.507,0.498l9.737,0.504c1.117,0.076,2.144,0.692,2.684,1.673
		c1.655,3.005,1.363,7.766,0.032,10.885c-0.634,1.486-2.04,2.493-3.652,2.597l-10.675,0.559l8.885,0.305
		c2.388,2.891,1.909,7.551-0.436,11.158c-0.562,0.864-1.529,1.395-2.557,1.454c-21.563,1.24-40.26,1.195-60.127-4.248"/>
</g>
<g id="Layer_1">
</g>
</svg>
