<?xml version="1.0" encoding="iso-8859-1"?>
<!-- Generator: Adobe Illustrator 23.0.4, SVG Export Plug-In . SVG Version: 6.00 Build 0)  -->
<svg version="1.1" xmlns="http://www.w3.org/2000/svg" xmlns:xlink="http://www.w3.org/1999/xlink" x="0px" y="0px"
	 viewBox="0 0 115.057 85.942" style="enable-background:new 0 0 115.057 85.942;" xml:space="preserve">
<g id="fig-7">
	<path style="fill:none;stroke:#1D1E1C;stroke-width:0.3734;stroke-miterlimit:10;" d="M1.61,61.368
		c-0.794,0.42-1.681-0.369-1.353-1.206c3.786-9.641,19.394-47.803,29.594-48.755c0,0,5.004-2.34,16.681,1.83
		c0,0,8.333-11.763,14.596-12.804c0,0,6.255-3.877,52.544,19.059c0,0,6.138,4.441-36.31,2.933c-0.627-0.022-1.257-0.092-1.879-0.172
		c-1.821-0.234-7.299-0.163-14.82,6.962c-0.906,0.858-1.716,1.816-2.501,2.787c-0.923,1.143-3.534,3.32-10.397,4.281
		c-1.804,0.252-3.622-0.073-5.316-0.741c-2.399-0.946-7.799-0.832-17.988,9.317c-1.247,1.242-2.558,2.411-3.958,3.478
		C16.213,51.606,6.848,58.595,1.61,61.368z"/>
	<path style="fill:none;stroke:#1D1E1C;stroke-width:0.3734;stroke-miterlimit:10;" d="M3.44,65.985
		c9.04-5.685,34.581-20.739,46.388-17.247c1.476,0.437,2.999,0.695,4.534,0.572c2.732-0.219,6.861-1.183,10.967-4.545
		c0.97-0.794,1.811-1.738,2.491-2.792c2.346-3.636,12.341-15.355,43.996-15.948c2.021-0.038,3.504,1.883,2.929,3.821
		c-3.224,10.873-14.196,41.318-36.715,44.6c-0.632,0.092-1.272,0.12-1.911,0.135c-2.253,0.051-8.74,0.605-13.55,5.072
		c0,0-2.547,2.91-8.118,4.792c-5.248,1.773-10.942,1.703-16.23,0.053c-8.584-2.678-26.205-8.535-34.796-13.972
		C1.757,69.472,1.77,67.036,3.44,65.985z"/>
</g>
<g id="Layer_1">
</g>
</svg>
