<?xml version="1.0" encoding="iso-8859-1"?>
<!-- Generator: Adobe Illustrator 23.0.4, SVG Export Plug-In . SVG Version: 6.00 Build 0)  -->
<svg version="1.1" xmlns="http://www.w3.org/2000/svg" xmlns:xlink="http://www.w3.org/1999/xlink" x="0px" y="0px"
	 viewBox="0 0 123.297 88.434" style="enable-background:new 0 0 123.297 88.434;" xml:space="preserve">
<g id="fig-17">
	<path style="fill:none;stroke:#1D1D1B;stroke-width:0.4668;stroke-miterlimit:10;" d="M99.498,88.039l-22.938,0
		c-1.005,0-1.7-1.005-1.353-1.947c8.722-15.611,1.11-23.892-13.94-24.22C45.759,62.22,38.886,70.603,48.08,86.544
		c0.308,0.797-0.286,1.657-1.141,1.657l-23.902-0.161l0-30.163c0-1.088-1.241-1.72-2.115-1.072
		C9.268,65.426,0.245,58.495,0.245,44.217c-0.367-14.543,8.037-21.903,20.689-13.152c0.888,0.614,2.103-0.042,2.103-1.122l0-29.709
		l22.378,0c1.177,0,1.995,1.159,1.621,2.275c-8.028,14.628-0.969,23.214,14.232,23.034c15.073,0.519,23.516-8.161,14.494-22.632
		C75.3,1.606,76.247,0.233,77.63,0.233l21.868,0l0,30.625c0,0.662,0.757,1.039,1.286,0.641c11.354-8.546,22.28-4.061,22.28,12.717
		c0,16.682-10.489,21.051-21.962,12.665c-0.666-0.487-1.604-0.023-1.604,0.802L99.498,88.039z"/>
</g>
<g id="Layer_1">
</g>
</svg>
