<?xml version="1.0" encoding="iso-8859-1"?>
<!-- Generator: Adobe Illustrator 23.0.4, SVG Export Plug-In . SVG Version: 6.00 Build 0)  -->
<svg version="1.1" xmlns="http://www.w3.org/2000/svg" xmlns:xlink="http://www.w3.org/1999/xlink" x="0px" y="0px"
	 viewBox="0 0 176.376 133.376" style="enable-background:new 0 0 176.376 133.376;" xml:space="preserve">
<g id="icon-7">
	<path style="fill:none;stroke:#1D1E1C;stroke-width:7;stroke-linecap:round;stroke-linejoin:round;stroke-miterlimit:10;" d="
		M5.602,93.859c-1.173,0.621-2.483-0.545-1.998-1.781C9.195,77.84,32.247,21.478,47.311,20.073c0,0,7.391-3.456,24.636,2.703
		c0,0,12.307-17.372,21.556-18.91c0,0,9.238-5.725,77.603,28.149c0,0,9.065,6.559-53.626,4.332
		c-0.926-0.033-1.856-0.136-2.775-0.254c-2.689-0.345-10.78-0.24-21.888,10.282c-1.338,1.268-2.534,2.682-3.693,4.116
		c-1.364,1.688-5.22,4.904-15.355,6.323c-2.664,0.373-5.35-0.108-7.852-1.095c-3.543-1.398-11.519-1.229-26.567,13.76
		c-1.842,1.834-3.778,3.561-5.846,5.136C27.17,79.442,13.337,89.763,5.602,93.859z"/>
	<path style="fill:none;stroke:#1D1E1C;stroke-width:7;stroke-linecap:round;stroke-linejoin:round;stroke-miterlimit:10;" d="
		M8.305,100.678c13.351-8.397,51.072-30.629,68.511-25.472c2.18,0.645,4.43,1.026,6.696,0.845
		c4.035-0.324,10.133-1.748,16.197-6.712c1.433-1.173,2.674-2.567,3.678-4.123c3.465-5.37,18.227-22.678,64.978-23.553
		c2.984-0.056,5.175,2.781,4.326,5.643c-4.762,16.058-20.965,61.023-54.224,65.87c-0.934,0.136-1.879,0.177-2.823,0.199
		c-3.327,0.076-12.908,0.893-20.013,7.49c0,0-3.761,4.299-11.989,7.077c-7.751,2.618-16.16,2.516-23.97,0.079
		c-12.678-3.956-38.702-12.605-51.39-20.634C5.819,105.827,5.838,102.229,8.305,100.678z"/>
</g>
<g id="Layer_1">
</g>
</svg>
