<?xml version="1.0" encoding="iso-8859-1"?>
<!-- Generator: Adobe Illustrator 23.0.4, SVG Export Plug-In . SVG Version: 6.00 Build 0)  -->
<svg version="1.1" xmlns="http://www.w3.org/2000/svg" xmlns:xlink="http://www.w3.org/1999/xlink" x="0px" y="0px"
	 viewBox="0 0 188.408 136.918" style="enable-background:new 0 0 188.408 136.918;" xml:space="preserve">
<g id="icon-17">
	<path style="fill:none;stroke:#1D1D1B;stroke-width:7;stroke-linecap:round;stroke-linejoin:round;stroke-miterlimit:10;" d="
		M150.104,133.18h-33.877c-1.484,0-2.511-1.484-1.998-2.876c12.881-23.056,1.64-35.287-20.588-35.771
		c-22.904,0.515-33.056,12.895-19.477,36.439c0.455,1.177-0.423,2.447-1.685,2.447l-35.301-0.238l0-44.548
		c0-1.607-1.832-2.54-3.124-1.584C16.844,99.783,3.517,89.546,3.517,68.459C2.975,46.98,15.387,36.111,34.073,49.035
		c1.312,0.907,3.106-0.062,3.106-1.657l0-43.877l33.05,0c1.738,0,2.947,1.711,2.394,3.36c-11.857,21.604-1.43,34.285,21.019,34.018
		c22.262,0.767,34.731-12.053,21.406-33.426c-0.68-1.926,0.718-3.952,2.761-3.952l32.296,0l0,45.231
		c0,0.977,1.118,1.534,1.899,0.946c16.769-12.621,32.906-5.998,32.906,18.782c0,24.638-15.491,31.091-32.436,18.705
		c-0.984-0.719-2.369-0.034-2.369,1.185L150.104,133.18z"/>
</g>
<g id="Layer_1">
</g>
</svg>
