<?xml version="1.0" encoding="iso-8859-1"?>
<!-- Generator: Adobe Illustrator 23.0.4, SVG Export Plug-In . SVG Version: 6.00 Build 0)  -->
<svg version="1.1" xmlns="http://www.w3.org/2000/svg" xmlns:xlink="http://www.w3.org/1999/xlink" x="0px" y="0px"
	 viewBox="0 0 170.962 166.242" style="enable-background:new 0 0 170.962 166.242;" xml:space="preserve">
<g id="icon-8">
	<path style="fill:none;stroke:#1D1E1C;stroke-width:7;stroke-linecap:round;stroke-linejoin:round;stroke-miterlimit:10;" d="
		M86.508,69.179l-59.141,0.172c0,0-14.528,92.872,59.667,90.278"/>
	<path style="fill:none;stroke:#1D1E1C;stroke-width:7;stroke-linecap:round;stroke-linejoin:round;stroke-miterlimit:10;" d="
		M81.883,69.178l59.141,0.172c0,0,14.528,92.872-59.667,90.278"/>
	<path style="fill:none;stroke:#1D1E1C;stroke-width:7;stroke-linecap:round;stroke-linejoin:round;stroke-miterlimit:10;" d="
		M141.616,74.531c0,0,17.468-4.392,23.695,6.439c3.005,5.227,2.647,11.868-1.013,16.658c-3.27,4.28-9.927,8.561-23.469,8.561"/>
	
		<line style="fill:none;stroke:#1D1E1C;stroke-width:7;stroke-linecap:round;stroke-linejoin:round;stroke-miterlimit:10;" x1="3.5" y1="162.742" x2="167.462" y2="162.742"/>
	<path style="fill:none;stroke:#1D1E1C;stroke-width:7;stroke-linecap:round;stroke-linejoin:round;stroke-miterlimit:10;" d="
		M90.92,3.5c0,0-19.026,7.445-12.763,17.165c1.316,2.043,3.365,3.491,5.657,4.3c6.583,2.322,24.005,10.313,0.092,23.674"/>
	<path style="fill:none;stroke:#1D1E1C;stroke-width:7;stroke-linecap:round;stroke-linejoin:round;stroke-miterlimit:10;" d="
		M62.822,17.042c0,0-13.318,5.212-8.934,12.016c0.921,1.43,2.356,2.444,3.96,3.01c4.608,1.626,16.803,7.219,0.064,16.572"/>
	<path style="fill:none;stroke:#1D1E1C;stroke-width:7;stroke-linecap:round;stroke-linejoin:round;stroke-miterlimit:10;" d="
		M117.693,17.042c0,0-13.318,5.212-8.934,12.016c0.921,1.43,2.356,2.444,3.96,3.01c4.608,1.626,16.803,7.219,0.064,16.572"/>
</g>
<g id="Layer_1">
</g>
</svg>
