<?xml version="1.0" encoding="iso-8859-1"?>
<!-- Generator: Adobe Illustrator 23.0.4, SVG Export Plug-In . SVG Version: 6.00 Build 0)  -->
<svg version="1.1" xmlns="http://www.w3.org/2000/svg" xmlns:xlink="http://www.w3.org/1999/xlink" x="0px" y="0px"
	 viewBox="0 0 189.808 183.052" style="enable-background:new 0 0 189.808 183.052;" xml:space="preserve">
<g id="icon-24">
	<path style="fill:none;stroke:#1D1D1B;stroke-width:7;stroke-linecap:round;stroke-linejoin:round;stroke-miterlimit:10;" d="
		M36.557,174.615l18.227-60.376c0.459-1.52-0.071-3.165-1.33-4.132L5,72.89c-2.893-2.222-1.321-6.847,2.326-6.847h61.369
		c1.644,0,3.104-1.053,3.623-2.613L91.39,6.113c1.148-3.449,6.01-3.495,7.223-0.068l20.334,57.454c0.54,1.525,1.982,2.544,3.6,2.544
		h59.937c3.658,0,5.223,4.648,2.309,6.86l-48.965,37.177c-1.29,0.979-1.822,2.665-1.327,4.207l19.304,60.182
		c1.108,3.455-2.775,6.363-5.778,4.327L97.11,144.287c-1.3-0.881-3.006-0.876-4.301,0.011l-50.438,34.57
		C39.397,180.906,35.515,178.066,36.557,174.615z"/>
</g>
<g id="Layer_1">
</g>
</svg>
