<?xml version="1.0" encoding="iso-8859-1"?>
<!-- Generator: Adobe Illustrator 23.0.4, SVG Export Plug-In . SVG Version: 6.00 Build 0)  -->
<svg version="1.1" xmlns="http://www.w3.org/2000/svg" xmlns:xlink="http://www.w3.org/1999/xlink" x="0px" y="0px"
	 viewBox="0 0 154.734 175.253" style="enable-background:new 0 0 154.734 175.253;" xml:space="preserve">
<g id="icon-10">
	<path style="fill:none;stroke:#1D1E1C;stroke-width:7;stroke-linecap:round;stroke-linejoin:round;stroke-miterlimit:10;" d="
		M3.5,67.363v15.994c0,3.609,2.909,6.544,6.519,6.576l134.582,1.172c3.654,0.032,6.633-2.921,6.633-6.576V67.363
		c0-3.632-2.944-6.576-6.576-6.576H10.076C6.444,60.787,3.5,63.731,3.5,67.363z"/>
	<path style="fill:none;stroke:#1D1E1C;stroke-width:7;stroke-linecap:round;stroke-linejoin:round;stroke-miterlimit:10;" d="
		M15.926,89.876l-0.165,73.552c-0.01,4.595,3.712,8.326,8.307,8.326h108.385c4.64,0,8.389-3.785,8.344-8.425l-0.699-72.097"/>
	<path style="fill:none;stroke:#1D1E1C;stroke-width:7;stroke-linecap:round;stroke-linejoin:round;stroke-miterlimit:10;" d="
		M62.179,171.753c0,0,0-83.224,0-110.966s33.715-21.868,31.756,0v110.966"/>
	<path style="fill:none;stroke:#1D1E1C;stroke-width:7;stroke-linecap:round;stroke-linejoin:round;stroke-miterlimit:10;" d="
		M62.179,60.787c0,0-46.862-13.9-34.638-36.845c7.494-14.067,27.19-16.059,37.616-4.004c4.104,4.745,8.034,11.812,11.289,22.181"/>
	<path style="fill:none;stroke:#1D1E1C;stroke-width:7;stroke-linecap:round;stroke-linejoin:round;stroke-miterlimit:10;" d="
		M79.438,42.119c0,0,8.809-43.422,36.383-38.18c8.685,1.651,16.188,7.41,19.38,15.654c4.2,10.847,1.737,27.818-41.266,41.194"/>
</g>
<g id="Layer_1">
</g>
</svg>
