<?xml version="1.0" encoding="iso-8859-1"?>
<!-- Generator: Adobe Illustrator 23.0.4, SVG Export Plug-In . SVG Version: 6.00 Build 0)  -->
<svg version="1.1" xmlns="http://www.w3.org/2000/svg" xmlns:xlink="http://www.w3.org/1999/xlink" x="0px" y="0px"
	 viewBox="0 0 178.073 180.168" style="enable-background:new 0 0 178.073 180.168;" xml:space="preserve">
<g id="icon-26">
	<path style="fill:none;stroke:#1D1D1B;stroke-width:7;stroke-linecap:round;stroke-linejoin:round;stroke-miterlimit:10;" d="
		M139.177,89.102c0,28.357-21.72,51.345-50.077,51.345s-50.077-22.988-50.077-51.345S60.743,39.025,89.1,39.025
		C117.111,39.025,139.177,60.745,139.177,89.102z"/>
	<path style="fill:none;stroke:#1D1D1B;stroke-width:7;stroke-linecap:round;stroke-linejoin:round;stroke-miterlimit:10;" d="
		M89.1,3.5c1.236,7.539,0,25.41,0,25.41"/>
	<path style="fill:none;stroke:#1D1D1B;stroke-width:7;stroke-linecap:round;stroke-linejoin:round;stroke-miterlimit:10;" d="
		M89.1,151.258c-1.697,12.69,0,19.058,0,25.41"/>
	
		<line style="fill:none;stroke:#1D1D1B;stroke-width:7;stroke-linecap:round;stroke-linejoin:round;stroke-miterlimit:10;" x1="174.573" y1="89.102" x2="149.162" y2="89.102"/>
	<path style="fill:none;stroke:#1D1D1B;stroke-width:7;stroke-linecap:round;stroke-linejoin:round;stroke-miterlimit:10;" d="
		M149.429,151.071c0-6.353-17.968-11.615-17.968-17.968"/>
	<path style="fill:none;stroke:#1D1D1B;stroke-width:7;stroke-linecap:round;stroke-linejoin:round;stroke-miterlimit:10;" d="
		M46.878,133.103c0,6.353-17.968,11.615-17.968,17.968"/>
	<path style="fill:none;stroke:#1D1D1B;stroke-width:7;stroke-linecap:round;stroke-linejoin:round;stroke-miterlimit:10;" d="
		M48.213,46.741c0-6.353-17.968-11.615-17.968-17.968"/>
	<path style="fill:none;stroke:#1D1D1B;stroke-width:7;stroke-linecap:round;stroke-linejoin:round;stroke-miterlimit:10;" d="
		M149.429,28.773c0,6.353-17.968,11.615-17.968,17.968"/>
	
		<line style="fill:none;stroke:#1D1D1B;stroke-width:7;stroke-linecap:round;stroke-linejoin:round;stroke-miterlimit:10;" x1="28.91" y1="89.102" x2="3.5" y2="89.102"/>
</g>
<g id="Layer_1">
</g>
</svg>
