<?xml version="1.0" encoding="iso-8859-1"?>
<!-- Generator: Adobe Illustrator 23.0.4, SVG Export Plug-In . SVG Version: 6.00 Build 0)  -->
<svg version="1.1" xmlns="http://www.w3.org/2000/svg" xmlns:xlink="http://www.w3.org/1999/xlink" x="0px" y="0px"
	 viewBox="0 0 133.563 164.855" style="enable-background:new 0 0 133.563 164.855;" xml:space="preserve">
<g id="icon-19">
	<path style="fill:none;stroke:#1D1D1B;stroke-width:7;stroke-linecap:round;stroke-linejoin:round;stroke-miterlimit:10;" d="
		M91.855,66.781c0,13.848-11.226,25.074-25.074,25.074S41.707,80.629,41.707,66.781s11.226-23.806,25.074-23.806
		S91.855,52.933,91.855,66.781z"/>
	<path style="fill:none;stroke:#1D1D1B;stroke-width:7;stroke-linecap:round;stroke-linejoin:round;stroke-miterlimit:10;" d="
		M66.781,130.063"/>
	<path style="fill:none;stroke:#1D1D1B;stroke-width:7;stroke-linecap:round;stroke-linejoin:round;stroke-miterlimit:10;" d="
		M118.213,103.659c7.322-10.193,11.688-22.651,11.846-36.122C130.467,32.603,101.84,3.566,66.904,3.5
		C31.898,3.434,3.5,31.791,3.5,66.781c0,13.89,4.475,26.734,12.061,37.17l0.277,0.373l46.673,55.475
		c1.723,2.048,4.867,2.078,6.629,0.064l48.586-55.539L118.213,103.659z"/>
</g>
<g id="Layer_1">
</g>
</svg>
