<?xml version="1.0" encoding="iso-8859-1"?>
<!-- Generator: Adobe Illustrator 23.0.4, SVG Export Plug-In . SVG Version: 6.00 Build 0)  -->
<svg version="1.1" xmlns="http://www.w3.org/2000/svg" xmlns:xlink="http://www.w3.org/1999/xlink" x="0px" y="0px"
	 viewBox="0 0 173.23 167.692" style="enable-background:new 0 0 173.23 167.692;" xml:space="preserve">
<g id="icon-21">
	<path style="fill:none;stroke:#1D1D1B;stroke-width:7;stroke-linecap:round;stroke-linejoin:round;" d="M3.5,90.164v59.864
		c0,7.823,6.177,14.164,13.796,14.164h28.632c7.619,0,13.796-6.342,13.796-14.164V90.164C59.724,82.341,53.547,76,45.928,76H17.296
		C9.677,76,3.5,82.341,3.5,90.164z"/>
	<path style="fill:none;stroke:#1D1D1B;stroke-width:7;stroke-linecap:round;stroke-linejoin:round;" d="M59.724,87.201
		c0,0,38.18-43.424,40.578-51.948c2.398-8.525,3.025-27.963,3.025-27.963c0.114-3.012,2.383-3.869,5.395-3.784
		c14.56,0.412,17.093,7.747,19.884,18.477c0.421,1.619,3.472,14.709-6.254,38.123c-0.187,0.45-0.159,0.969,0.086,1.39v0
		c1.43,2.454,4.007,4.015,6.845,4.144l31.858,1.456c1.868,0.085,4.366,1.347,5.433,2.883c4.643,6.688,3.928,13.562-0.611,20.565
		c-1.021,1.576-3.021,2.252-4.899,2.252l-17.115,0.315l16.404,1.098c1.267,0.131,2.49,0.671,3.327,1.631
		c4.272,4.899,4.078,14.613,0.076,20.504c-0.887,1.306-2.398,2.052-3.975,2.127l-18.471,0.736l14.38,0.744
		c1.65,0.112,3.167,1.022,3.965,2.47c2.444,4.438,2.013,11.469,0.047,16.077c-0.936,2.194-3.013,3.682-5.394,3.836l-15.766,0.826
		l13.123,0.45c3.527,4.27,2.819,11.153-0.644,16.479c-0.829,1.276-2.257,2.06-3.777,2.147c-31.846,1.831-59.46,1.764-88.802-6.274"
		/>
</g>
<g id="Layer_1">
</g>
</svg>
