<svg>
<g id="stamp-7" transform="scale(0.4)" style="fill:none;stroke:#000000">
	<path d="M9.691,19.851c0,5.599,0,16.9,0,22.602"></path>
	<path d="M1.5,10.416c7.154-0.104,7.154-0.104,14.1,0c-5.91,9.435-5.91,9.435-14.1,17.211"></path>
	<path d="M9.691,19.851c3.525,3.836,3.525,3.836,7.154,7.776"></path>
	<path d="M7.41,2.226c1.452,1.555,3.525,3.629,4.147,5.288"></path>
	<path d="M19.748,5.544c0,0,13.893,0,18.87,0v14.93h-18.87V5.544z"></path>
	<path d="M24.828,20.37c0.104,10.783-3.214,17.418-10.057,21.358"></path>
	<path d="M32.5,20.37v18.04c0,1.866,1.452,3.318,3.318,3.318h2.903c1.555,0,2.903-1.244,2.903-2.903v-4.562"></path>
	<path d="M48.052,41.728c3.318-6.117,3.836-20.218,3.836-37.843h34.836"></path>
	<path d="M58.939,9.898v9.953h23.639V9.898C76.979,10.002,58.939,9.898,58.939,9.898z"></path>
	<path d="M68.788,9.898c0-0.933,1.14-2.696,1.14-3.629"></path>
	<path d="M58.939,14.875c0,0,18.973,0,23.639,0"></path>
	<path d="M55.414,27.938c2.799-1.866,5.288-3.732,7.361-5.702"></path>
	<path d="M76.772,22.34c2.592,2.281,5.391,4.147,8.502,5.702"></path>
	<path d="M70.343,19.851c0,1.659,0,5.08,0,6.739c0,0.933-0.726,1.659-1.659,1.659c-1.037,0-4.147,0-4.147,0"></path>
	<path d="M57.383,31.878c-0.415,3.007-1.555,5.702-3.421,8.294"></path>
	<path d="M68.581,31.049c1.97,1.14,3.629,3.007,4.977,5.288"></path>
	<path d="M62.464,31.878c0,1.763,0,5.184,0,6.947c0,1.037,0.829,1.97,1.97,1.97c3.214,0,9.746,0,12.96,0c1.037,0,1.97-0.829,1.97-1.97   c0-0.726,0-2.281,0-3.11"></path>
	<path d="M81.023,31.36c2.281,2.488,4.147,5.08,5.495,7.776"></path>
	<path d="M104.765,1.5c-2.903,5.91-6.532,10.472-10.99,13.893"></path>
	<path d="M100.307,8.965c0,0,0,13.375,0,17.833"></path>
	<path d="M113.267,1.5c-1.14,4.562-3.525,8.502-7.465,11.405"></path>
	<path d="M111.297,6.788h21.254c0,0-3.214,4.458-3.214,6.221"></path>
	<path d="M120.628,9.898c0,3.214,0,9.746,0,13.064c0,1.555-1.244,2.799-2.799,2.799c-0.726,0-3.007,0-3.007,0"></path>
	<path d="M113.267,14.253c-0.829,3.318-2.488,6.221-5.391,8.605"></path>
	<path d="M126.331,14.253c2.488,2.696,4.355,5.702,5.495,9.02"></path>
	<path d="M110.882,26.798c3.318,2.385,5.391,5.08,6.428,7.88"></path>
	<path d="M104.143,29.701c0,1.97,0,5.91,0,7.88c0,1.452,1.14,2.592,2.592,2.592c3.94,0,11.716,0,15.656,0c1.555,0,2.799-1.244,2.799-2.799   c0-0.726,0-2.074,0-2.696"></path>
	<path d="M99.27,30.427c-0.933,3.629-2.385,6.947-4.769,9.746"></path>
	<path d="M127.679,29.701c2.074,3.11,3.732,6.428,4.769,9.953"></path>
	<path d="M139.394,21.407c12.96,0,41.576,0,41.576,0"></path>
	<path d="M192.375,3.159c-0.207,12.96,0.726,29.238-2.696,31.726l13.375-6.532"></path>
	<path d="M185.014,16.741c2.592-0.622,17.315-3.836,17.315-3.836"></path>
	<path d="M202.328,6.788h22.81l-1.97,27.475c0,4.355-2.696,7.05-7.05,7.05h-3.525"></path>
	<path d="M211.348,6.788c0.726,17.004-2.799,29.341-12.753,34.525"></path>
	<path d="M235.195,2.226c0,15.967,0.518,34.836-3.318,39.087"></path>
	<path d="M241.001,6.269c0,7.465,0,29.652,0,29.652"></path>
	<path d="M247.533,2.433c0,9.85,0,39.502,0,39.502"></path>
	<path d="M251.68,4.403c2.074,0,20.943,0,20.943,0"></path>
	<path d="M262.566,4.403c0,0-2.903,5.702-2.903,7.776"></path>
	<path d="M253.857,32.397c0-5.08,0-20.218,0-20.218h15.967c0,0,0,14.619,0,19.699"></path>
	<path d="M261.84,17.156c0.726,16.174-2.281,21.358-10.886,24.78"></path>
	<path d="M262.981,32.397c2.385,3.94,5.288,7.05,8.916,8.605"></path>
	<path d="M278.326,6.788c7.569-0.311,13.997-1.659,19.388-4.251"></path>
	<path d="M289.212,5.544c0,9.228,0,27.683,0,36.91"></path>
	<path d="M278.326,16.534c1.763-0.207,10.679-1.14,21.254,0"></path>
	<path d="M277.807,34.989c4.666-4.562,8.294-10.99,11.405-18.455"></path>
	<path d="M298.439,29.597c-3.007-1.763-6.117-4.458-9.228-7.776"></path>
	<path d="M304.349,6.788c0,6.221,0,24.883,0,24.883"></path>
	<path d="M315.65,2.226v35.562c0,2.281-1.866,4.147-4.147,4.147h-4.666"></path>
</g>
</svg>
