<?xml version="1.0" encoding="iso-8859-1"?>
<!-- Generator: Adobe Illustrator 23.0.4, SVG Export Plug-In . SVG Version: 6.00 Build 0)  -->
<svg version="1.1" xmlns="http://www.w3.org/2000/svg" xmlns:xlink="http://www.w3.org/1999/xlink" x="0px" y="0px"
	 viewBox="0 0 590.112 324.618" style="enable-background:new 0 0 590.112 324.618;" xml:space="preserve">
<g id="stamp-4">
	<path style="fill:none;stroke:#000000;stroke-width:5.6693;stroke-linecap:round;stroke-linejoin:round;" d="M340.516,127.831
		c9.809-4.785,26.302-5.707,48.453-3.36"/>
	<path style="fill:none;stroke:#000000;stroke-width:5.6693;stroke-linecap:round;stroke-linejoin:round;" d="M199.256,114.302
		c-3.673,5.361-4.618,6.765-7.346,13.529"/>
	<path style="fill:none;stroke:#000000;stroke-width:5.6693;stroke-linecap:round;stroke-linejoin:round;" d="M173.287,9.864
		c-3.87-7.754-20.909-7.736-21.166,4.133c0.335,10.081,25.588,2.678,22.82,19.124c-1.426,8.732-16.485,10.549-25.401,1.303"/>
	<path style="fill:none;stroke:#000000;stroke-width:5.6693;stroke-linecap:round;stroke-linejoin:round;" d="M188.619,21.89
		c10.25-0.792,17.317,0.373,32.403,0c0.405-12.532-5.752-17.373-16.201-17.071c-7.878,0.228-14.428,4.392-16.201,14.954
		c-3.467,20.652,21.819,27.029,30.937,13.84"/>
	<path style="fill:none;stroke:#000000;stroke-width:5.6693;stroke-linecap:round;stroke-linejoin:round;" d="M237.305,2.835
		c0,9.729,0,38.916,0,38.916s-1.445-38.916,15.957-37.262c13.997,0.401,10.762,37.262,10.762,37.262s-2.878-38.106,15.291-37.262
		c13.026,0,11.577,14.466,11.235,37.262"/>
	<path style="fill:none;stroke:#000000;stroke-width:5.6693;stroke-linecap:round;stroke-linejoin:round;" d="M342.914,22.698
		c0,0,0-18.305-16.539-18.305c-6.511,0-11.271,2.654-14.309,8.189c-3.172,5.779-3.501,12.818-0.91,18.881
		c3.041,7.116,8.233,9.541,14.895,9.541C342.914,41.003,342.914,22.698,342.914,22.698"/>
	<path style="fill:none;stroke:#000000;stroke-width:5.6693;stroke-linecap:round;stroke-linejoin:round;" d="M392.968,3.512
		c2.28,48.497-0.978,55.28-17.462,55.499c-7.062,0.094-12.597-2.586-17.462-6.676"/>
	<path style="fill:none;stroke:#000000;stroke-width:5.6693;stroke-linecap:round;stroke-linejoin:round;" d="M393.363,13.12
		c0,0-9.65-10.286-17.532-10.286c-6.511,0-11.271,2.654-14.309,8.189c-3.172,5.779-3.501,12.818-0.91,18.881
		c3.041,7.116,8.233,9.541,14.895,9.541c8.882,0,18.11-11.277,18.11-11.277"/>
	<path style="fill:none;stroke:#000000;stroke-width:5.6693;stroke-linecap:round;stroke-linejoin:round;" d="M411.042,9.348
		c8.801-6.113,19.658-8.962,25.075,0c4.779,7.906,0.488,32.403,2.117,32.403"/>
	<path style="fill:none;stroke:#000000;stroke-width:5.6693;stroke-linecap:round;stroke-linejoin:round;" d="M438.022,19.885
		c-18.466-1.768-27.898,3.326-28.12,11.381c-0.213,7.722,7.492,10.424,14.736,8.994c6.403-1.264,10.882-6.978,13.596-12.023"/>
	<path style="fill:none;stroke:#1D1D1B;stroke-width:5.6693;stroke-linecap:round;stroke-linejoin:round;stroke-miterlimit:10;" d="
		M2.835,137.957c0,0,53.664,16.262,61.271,18.587"/>
	<path style="fill:none;stroke:#1D1D1B;stroke-width:5.6693;stroke-linecap:round;stroke-linejoin:round;stroke-miterlimit:10;" d="
		M2.835,199.544c0,0,55.905-18.294,61.271-19.986"/>
	<path style="fill:none;stroke:#000000;stroke-width:5.6693;stroke-linecap:round;stroke-linejoin:round;" d="M102.779,167.85
		c6.871-7.214,13.537-16.608,20.097-27.101c-4.159,0.749-6.808,1.238-9.203,4.587c-1.867,2.61-2.155,6.045-1.251,9.123
		c3.309,11.266,8.327,19.039,3.92,25.685c-0.328,0.494-0.784,0.944-1.254,1.306c-11.034,8.506-17.883,5.482-21.21-7.243
		c25.245,3.705,61.711-4.205,69.502-26.38c-5.762-16.223-38.135,24.408-19.278,34.561c11.387,5.993,35.26-10.688,43.95-36.059
		c-17.03,56.405-34.66,95.091-52.44,83.205c-17.58-14.284,54.837-40.953,84.603-74.815c15.582-12.985,30.15-10.744,26.969,0.999"/>
	<path style="fill:none;stroke:#000000;stroke-width:5.6693;stroke-linecap:round;stroke-linejoin:round;" d="M208.483,166.087
		c-7.391,10.82-7.498,15.003-4.083,20.131c6.028,7.158,19.213-12.678,39.39-27.003c-15.283,27.768-2.697,33.761,27.897,6.952
		c31.26-18.489,61.601-54.797,53.91-62.289c-14.483-12.586-62.529,59.232-57.135,83.85c10.457-18.972,26.849-36.104,40.234-39.708
		c2.914-0.785,5.798,0.981,6.33,3.952c1.809,10.106-11.472,19.999-9.696,27.019c0.649,2.567,3.326,3.912,5.908,3.328
		c5.189-1.174,13.411-6.639,24.147-15.069c12.479-23.813,24.857-45.83,37.084-65.325"/>
	<path style="fill:none;stroke:#000000;stroke-width:5.6693;stroke-linecap:round;stroke-linejoin:round;" d="M335.385,167.25
		c-7.438,19.909-6.473,32.463,6.176,34.79"/>
	<path style="fill:none;stroke:#000000;stroke-width:5.6693;stroke-linecap:round;stroke-linejoin:round;" d="M355.999,169.263
		c17.044-8.189,24.456-16.265,23.637-21.797c-6.548-12.854-22.845,9.332-23.718,23.22c-1.03,12.635,5.825,15.199,18.259,11.699
		c0.786-0.221,1.542-0.562,2.231-1c12.986-8.243,42.721-36.558,39.511-47.357c-5.002-5.674-18.963,8.212-7.988,14.036
		c6.889,2.106,11.847,4.366,12.135,6.999c-15.175,21.973-12.876,28.32-4.895,29.583c5.764,0.934,21.723-13.705,37.133-26.913
		c18.601-14.419,32.249-14.969,30.6-1.981"/>
	<path style="fill:none;stroke:#000000;stroke-width:5.6693;stroke-linecap:round;stroke-linejoin:round;" d="M443.681,165.173
		c-7.326,11.005-9.408,18.078-2.772,21.873c9.633,4.917,35.609-36.138,39.791-25.681c-16.84,17.39-5.283,31.369,8.585,15.079"/>
	<path style="fill:none;stroke:#1D1D1B;stroke-width:5.6693;stroke-linecap:round;stroke-linejoin:round;stroke-miterlimit:10;" d="
		M528.369,156.544c8.148-2.538,58.908-18.587,58.908-18.587"/>
	<path style="fill:none;stroke:#1D1D1B;stroke-width:5.6693;stroke-linecap:round;stroke-linejoin:round;stroke-miterlimit:10;" d="
		M528.369,179.558c6.738,2.403,58.908,19.986,58.908,19.986"/>
	<path style="fill:none;stroke:#000000;stroke-width:5.6693;stroke-linecap:round;stroke-linejoin:round;" d="M220.073,288.735
		c-3.87-7.754-20.909-7.736-21.166,4.133c0.335,10.081,25.588,2.678,22.82,19.124c-1.426,8.732-16.486,10.548-25.401,1.303"/>
	<path style="fill:none;stroke:#000000;stroke-width:5.6693;stroke-linecap:round;stroke-linejoin:round;" d="M235.405,300.761
		c10.25-0.792,17.317,0.373,32.403,0c0.405-12.532-5.752-17.373-16.201-17.071c-7.878,0.228-14.428,4.392-16.201,14.954
		c-3.467,20.652,21.819,27.029,30.937,13.84"/>
	<path style="fill:none;stroke:#000000;stroke-width:5.6693;stroke-linecap:round;stroke-linejoin:round;" d="M284.942,257.773
		c0,15.721,0,47.164,0,62.886"/>
	<path style="fill:none;stroke:#000000;stroke-width:5.6693;stroke-linecap:round;stroke-linejoin:round;" d="M303.283,289.38
		c8.801-6.113,19.658-8.962,25.076,0c4.779,7.906,0.488,32.403,2.117,32.403"/>
	<path style="fill:none;stroke:#000000;stroke-width:5.6693;stroke-linecap:round;stroke-linejoin:round;" d="M330.263,299.918
		c-18.466-1.768-27.898,3.326-28.12,11.381c-0.213,7.722,7.492,10.424,14.736,8.994c6.402-1.264,10.882-6.978,13.596-12.023"/>
	<path style="fill:none;stroke:#000000;stroke-width:5.6693;stroke-linecap:round;stroke-linejoin:round;" d="M349.436,257.773
		c0,15.721,0,47.164,0,62.886"/>
	<path style="fill:none;stroke:#000000;stroke-width:5.6693;stroke-linecap:round;stroke-linejoin:round;" d="M368.821,282.377
		c-0.008,29.451,0,36.993,12.675,37.058c14.166-0.897,16.589-15.771,16.217-37.058l0,37.058"/>
</g>
<g id="Layer_1">
</g>
</svg>
