<?xml version="1.0" encoding="iso-8859-1"?>
<!-- Generator: Adobe Illustrator 23.0.4, SVG Export Plug-In . SVG Version: 6.00 Build 0)  -->
<svg version="1.1" xmlns="http://www.w3.org/2000/svg" xmlns:xlink="http://www.w3.org/1999/xlink" x="0px" y="0px"
	 viewBox="0 0 647.649 282.315" style="enable-background:new 0 0 647.649 282.315;" xml:space="preserve">
<g id="stamp-5">
	<path style="fill:none;stroke:#000000;stroke-width:5.6693;stroke-linecap:round;stroke-linejoin:round;stroke-miterlimit:10;" d="
		M31.541,76.181c20.145-3.737,66.392-36.621,55.327-43.998c-8.958-1.581-18.442,11.592-8.958,21.999
		c29.042,20.325,32.143,33.065,17.125,42.813c-9.856,6.585-17.092,8.021-22.195,5.262c-4.994-2.699-5.828-9.14-1.403-12.697
		c12.417-9.982,51.938-9.696,60.483-12.325c21.604-6.587,32.142-14.754,20.287-19.233c-17.993-2.113-30.298,27.927-11.329,32.406
		c26.269,9.181,115.846-37.555,110.078-82.376c-0.482-3.749-4.319-6.286-7.886-5.035c-18.442,6.469-44.133,66.49-3.131,88.729
		c15.225,3.871,24.506-2.037,36.367-17.757c0.49-0.65,3.503-4.353,4.172-4.816c9.102-6.295,15.824-6.188,19.756,1.423"/>
	<path style="fill:none;stroke:#000000;stroke-width:5.6693;stroke-linecap:round;stroke-linejoin:round;stroke-miterlimit:10;" d="
		M269.384,82.274c-4.709,10.291,2.716,13.739,9.571,12.895c9.768-0.872,18.315-19.187,24.943-24.943
		c2.398,15.083,11.551,22.371,27.21,22.152c12.907,1.395,43.257-37.152,53.723-29.129c9.419,5.407-4.361,24.245,2.267,29.129
		c7.5,2.913,19.536-27.908,25.815-24.943c8.198-2.093,5.756,18.838,13.082,23.547c7.5,4.308,18.315-26.338,23.547-21.629
		c5.93,1.744,6.454,23.024,15.872,22.85c13.337,0.84,24.028-6.221,32.979-18.479c0.338-0.463,0.733-0.928,1.148-1.323
		c13.932-13.291,19.113-6.869,24.132-0.082"/>
	<path style="fill:none;stroke:#000000;stroke-width:5.6693;stroke-linecap:round;stroke-linejoin:round;stroke-miterlimit:10;" d="
		M490.928,82.289c-2.307,8.665,2.431,12.707,7.104,13.002c12.384,1.448,22.152-22.274,27.21-22.274
		c7.556,14.449,14.294,19.351,20.582,19.012c26.801-2.496,42.385-29.88,52.676-58.606"/>
	<path style="fill:none;stroke:#000000;stroke-width:5.6693;stroke-linecap:round;stroke-linejoin:round;stroke-miterlimit:10;" d="
		M574.778,48.598c8.723,0.783,22.178-0.926,35.931-2.791"/>
	<path style="fill:none;stroke:#000000;stroke-width:5.6693;stroke-linecap:round;stroke-linejoin:round;stroke-miterlimit:10;" d="
		M588.321,57.019c-1.053,28.416,1.283,33.615,13.668,34.836c11.253,1.801,17.477-2.988,22.501-8.547"/>
	<path style="fill:none;stroke:#000000;stroke-width:5.6693;stroke-linecap:round;stroke-linejoin:round;" d="M644.815,186.091
		c0,23.246,0,92.983,0,92.983"/>
	<path style="fill:none;stroke:#000000;stroke-width:5.6693;stroke-linecap:round;stroke-linejoin:round;" d="M548.848,189.033
		v88.496h35.176c5.334,0,10.535-1.586,14.919-4.624c8.148-5.647,18.948-17.335,18.948-39.624c0-21.85-9.811-33.513-17.453-39.283
		c-4.382-3.309-9.776-4.964-15.267-4.964H548.848z"/>
	<path style="fill:none;stroke:#000000;stroke-width:5.6693;stroke-linecap:round;stroke-linejoin:round;" d="M513.348,247.125
		c0,0-44.36,0.191-47.354,0.202"/>
	<path style="fill:none;stroke:#000000;stroke-width:5.6693;stroke-linecap:round;stroke-linejoin:round;" d="M453.389,278.772
		c3.716-9.325,36.323-90.61,36.323-90.61s33.308,83.239,36.323,90.61"/>
	<path style="fill:none;stroke:#000000;stroke-width:5.6693;stroke-linecap:round;stroke-linejoin:round;" d="M429.681,190.037
		c0,9.178,0.293,53.391,0.293,67.177c0,13.847-8.636,21.764-21.728,21.764c-11.433,0-21.324-5.502-21.324-27.439"/>
	<path style="fill:none;stroke:#000000;stroke-width:5.6693;stroke-linecap:round;stroke-linejoin:round;" d="M295.59,146.391
		c-14.335,10.751-18.397,25.806-18.397,33.448s6.451,13.618,13.14,13.618s11.169-3.999,12.124-13.795
		C303.413,169.867,296.067,162.637,295.59,146.391z"/>
	<path style="fill:none;stroke:#000000;stroke-width:5.6693;stroke-linecap:round;stroke-linejoin:round;" d="M279.343,207.167
		c0,2.617,0,71.774,0,71.774h21.98c0-7.034,0-71.774,0-71.774H279.343z"/>
	<path style="fill:none;stroke:#000000;stroke-width:5.6693;stroke-linecap:round;stroke-linejoin:round;" d="M279.343,220.308
		c0,0,17.56-10.394,21.98-13.14"/>
	<path style="fill:none;stroke:#000000;stroke-width:5.6693;stroke-linecap:round;stroke-linejoin:round;" d="M279.343,238.884
		c0,0,17.262-10.682,21.98-13.618"/>
	<path style="fill:none;stroke:#000000;stroke-width:5.6693;stroke-linecap:round;stroke-linejoin:round;" d="M301.324,230.403"/>
	<path style="fill:none;stroke:#000000;stroke-width:5.6693;stroke-linecap:round;stroke-linejoin:round;" d="M279.343,244.071"/>
	<path style="fill:none;stroke:#000000;stroke-width:5.6693;stroke-linecap:round;stroke-linejoin:round;" d="M279.343,259.363
		c0,0,17.411-10.94,21.98-13.668"/>
	<path style="fill:none;stroke:#000000;stroke-width:5.6693;stroke-linecap:round;stroke-linejoin:round;" d="M301.324,254.672"/>
	<path style="fill:none;stroke:#000000;stroke-width:5.6693;stroke-linecap:round;stroke-linejoin:round;" d="M279.343,268.34"/>
	<path style="fill:none;stroke:#000000;stroke-width:5.6693;stroke-linecap:round;stroke-linejoin:round;" d="M279.343,278.942
		c0,0,17.708-11.041,21.98-13.668"/>
	<path style="fill:none;stroke:#000000;stroke-width:5.6693;stroke-linecap:round;stroke-linejoin:round;" d="M216.101,230.953
		c19.167,1.826,30.436,10.727,28.296,48.381"/>
	<path style="fill:none;stroke:#000000;stroke-width:5.6693;stroke-linecap:round;stroke-linejoin:round;" d="M184.578,279.48
		v-91.612h43.419c3.272,0,6.518,0.808,9.303,2.526c4.717,2.909,10.855,8.656,10.855,18.868c0,6.51-2.19,11.253-4.851,14.613
		c-3.664,4.627-9.425,7.089-15.328,7.089l-42.536,0"/>
	<path style="fill:none;stroke:#000000;stroke-width:5.6693;stroke-linecap:round;stroke-linejoin:round;" d="M150.509,247.125
		c0,0-44.36,0.191-47.354,0.202"/>
	<path style="fill:none;stroke:#000000;stroke-width:5.6693;stroke-linecap:round;stroke-linejoin:round;" d="M90.549,278.772
		c3.716-9.325,36.323-90.61,36.323-90.61s33.308,83.239,36.323,90.61"/>
	<path style="fill:none;stroke:#000000;stroke-width:5.6693;stroke-linecap:round;stroke-linejoin:round;" d="M71.251,185.87
		c0,0,0,85.103,0,92.281"/>
	<path style="fill:none;stroke:#000000;stroke-width:5.6693;stroke-linecap:round;stroke-linejoin:round;" d="M2.835,227.536
		c4.806,0.008,68.417,0,68.417,0"/>
	<path style="fill:none;stroke:#000000;stroke-width:5.6693;stroke-linecap:round;stroke-linejoin:round;" d="M2.835,185.87
		c0,0,0,83.608,0,92.281"/>
</g>
<g id="Layer_1">
</g>
</svg>
