<?xml version="1.0" encoding="iso-8859-1"?>
<!-- Generator: Adobe Illustrator 23.0.4, SVG Export Plug-In . SVG Version: 6.00 Build 0)  -->
<svg version="1.1" xmlns="http://www.w3.org/2000/svg" xmlns:xlink="http://www.w3.org/1999/xlink" x="0px" y="0px"
	 viewBox="0 0 302.273 173.98" style="enable-background:new 0 0 302.273 173.98;" xml:space="preserve">
<g id="stamp-3">
	<path style="fill:#FFFFFF;stroke:#1D1D1B;stroke-width:4.252;stroke-linecap:round;stroke-linejoin:round;" d="M2.126,15.867
		c18.734-2.488,48.398-6.343,65.69-9.102"/>
	<path style="fill:#FFFFFF;stroke:#1D1D1B;stroke-width:4.252;stroke-linecap:round;stroke-linejoin:round;" d="M33.184,6.765
		c1.184,18.363,6.273,51.847,7.48,69.389"/>
	<path style="fill:none;stroke:#1D1D1B;stroke-width:4.252;stroke-linecap:round;stroke-linejoin:round;" d="M82.473,3.277v70.384
		c0,0,9.922-28.008,17.836-37.781c4.84-5.933,11.781-8.382,15.918-4.986c0,0,3.644-3.836,2.877,45.261"/>
	<path style="fill:none;stroke:#1D1D1B;stroke-width:4.252;stroke-linecap:round;stroke-linejoin:round;" d="M169.734,35.113
		c2.301-10.74-2.301-9.973-2.301-9.973s-7.671,1.151-17.452,21.672c-5.562,14.384-8.496,20.272-3.644,25.124
		c4.219,4.219,13.048-10.945,16.302-17.644c3.26-6.712,6.329-15.726,6.329-15.726s7.671,31.069,5.178,35.288"/>
	<path style="fill:none;stroke:#1D1D1B;stroke-width:4.252;stroke-linecap:round;stroke-linejoin:round;" d="M200.611,20.345
		c0,0,2.877,51.335,4.795,53.636s9.589-58.115,24.548-52.102c11.507,0.767,8.63,50.439,8.63,50.439"/>
	<path style="fill:none;stroke:#1D1D1B;stroke-width:4.252;stroke-linecap:round;stroke-linejoin:round;" d="M270.229,2.126
		c-0.528,19.142-2.717,57.333-3.644,76.905"/>
	<path style="fill:none;stroke:#1D1D1B;stroke-width:4.252;stroke-linecap:round;stroke-linejoin:round;" d="M300.147,20.345
		c-18.603,35.672-32.635,39.113-32.635,39.113s7.703,6.531,32.635,13.435"/>
	<path style="fill:#FFFFFF;stroke:#1D1D1B;stroke-width:4.252;stroke-linecap:round;stroke-linejoin:round;" d="M29.623,142.346
		c0,0,27.712,0,36.949,0"/>
	<path style="fill:none;stroke:#1D1D1B;stroke-width:4.252;stroke-linecap:round;stroke-linejoin:round;" d="M90.911,119.689
		c1.486,2.594,16.611,29.219,16.611,29.219l15.225-29.219"/>
	<path style="fill:none;stroke:#1D1D1B;stroke-width:4.252;stroke-linecap:round;stroke-linejoin:round;" d="M107.596,149.416
		c0,0,0,16.829,0,22.439"/>
	<path style="fill:none;stroke:#1D1D1B;stroke-width:4.252;stroke-linecap:round;stroke-linejoin:round;" d="M167.433,145.963
		c0,14.901-6.111,24.356-15.165,24.356s-14.561-8.496-14.561-23.398c0-16.055,5.508-25.315,14.561-25.315
		S167.433,131.062,167.433,145.963z"/>
	<path style="fill:none;stroke:#1D1D1B;stroke-width:4.252;stroke-linecap:round;stroke-linejoin:round;" d="M185.269,119.689
		l0.861,38.551c0,0,1.249,12.08,11.414,12.08c10.165,0,10.932-11.891,10.932-11.891v-38.74"/>
	<path style="fill:#FFFFFF;stroke:#1D1D1B;stroke-width:4.252;stroke-linecap:round;stroke-linejoin:round;" d="M235.543,142.346
		c5.807,0,36.949,0,36.949,0"/>
</g>
<g id="Layer_1">
</g>
</svg>
