<?xml version="1.0" encoding="iso-8859-1"?>
<!-- Generator: Adobe Illustrator 23.0.4, SVG Export Plug-In . SVG Version: 6.00 Build 0)  -->
<svg version="1.1" xmlns="http://www.w3.org/2000/svg" xmlns:xlink="http://www.w3.org/1999/xlink" x="0px" y="0px"
	 viewBox="0 0 812.925 110.905" style="enable-background:new 0 0 812.925 110.905;" xml:space="preserve">
<g id="stamp-7">
	<path style="fill:none;stroke:#000000;stroke-width:5.6693;stroke-linecap:round;stroke-linejoin:round;stroke-miterlimit:10;" d="
		M23.825,50.024c0,14.511,0,43.534,0,58.046"/>
	<path style="fill:none;stroke:#000000;stroke-width:5.6693;stroke-linecap:round;stroke-linejoin:round;stroke-miterlimit:10;" d="
		M2.835,25.756c18.431-0.138,18.431-0.138,36.218,0C23.825,50.024,23.825,50.024,2.835,69.895"/>
	<path style="fill:none;stroke:#000000;stroke-width:5.6693;stroke-linecap:round;stroke-linejoin:round;stroke-miterlimit:10;" d="
		M23.825,50.024c8.986,9.755,8.986,9.755,18.479,19.87"/>
	<path style="fill:none;stroke:#000000;stroke-width:5.6693;stroke-linecap:round;stroke-linejoin:round;stroke-miterlimit:10;" d="
		M17.949,4.746c3.778,3.982,8.943,9.429,10.655,13.7"/>
	
		<rect x="49.702" y="13.137" style="fill:none;stroke:#000000;stroke-width:5.6693;stroke-linecap:round;stroke-linejoin:round;stroke-miterlimit:10;" width="48.574" height="38.244"/>
	<path style="fill:none;stroke:#000000;stroke-width:5.6693;stroke-linecap:round;stroke-linejoin:round;stroke-miterlimit:10;" d="
		M62.67,51.381c0.247,27.667-8.379,44.795-25.716,54.948"/>
	<path style="fill:none;stroke:#000000;stroke-width:5.6693;stroke-linecap:round;stroke-linejoin:round;stroke-miterlimit:10;" d="
		M82.451,51.381v46.376c0,4.734,3.838,8.572,8.572,8.572h7.583c4.066,0,7.363-3.297,7.363-7.363V87.207"/>
	<path style="fill:none;stroke:#000000;stroke-width:5.6693;stroke-linecap:round;stroke-linejoin:round;stroke-miterlimit:10;" d="
		M122.453,106.329c8.572-15.825,9.778-52.006,9.891-97.368l89.455,0"/>
	
		<polygon style="fill:none;stroke:#000000;stroke-width:5.6693;stroke-linecap:round;stroke-linejoin:round;stroke-miterlimit:10;" points="
		150.473,24.508 150.367,50.024 211.029,50.024 211.135,24.508 	"/>
	<path style="fill:none;stroke:#000000;stroke-width:5.6693;stroke-linecap:round;stroke-linejoin:round;stroke-miterlimit:10;" d="
		M175.848,24.508c0-2.476,2.972-6.972,2.972-9.448"/>
	
		<line style="fill:none;stroke:#000000;stroke-width:5.6693;stroke-linecap:round;stroke-linejoin:round;stroke-miterlimit:10;" x1="150.367" y1="37.266" x2="211.135" y2="37.266"/>
	<path style="fill:none;stroke:#000000;stroke-width:5.6693;stroke-linecap:round;stroke-linejoin:round;stroke-miterlimit:10;" d="
		M141.455,70.896c7.289-4.848,13.588-9.695,18.895-14.543"/>
	<path style="fill:none;stroke:#000000;stroke-width:5.6693;stroke-linecap:round;stroke-linejoin:round;stroke-miterlimit:10;" d="
		M196.229,56.353c6.546,5.909,13.87,10.757,21.974,14.543"/>
	<path style="fill:none;stroke:#000000;stroke-width:5.6693;stroke-linecap:round;stroke-linejoin:round;stroke-miterlimit:10;" d="
		M179.882,50.024c0,4.329,0,12.987,0,17.316c0,2.374-1.925,4.299-4.299,4.299c-2.694,0-10.774,0-10.774,0"/>
	<path style="fill:none;stroke:#000000;stroke-width:5.6693;stroke-linecap:round;stroke-linejoin:round;stroke-miterlimit:10;" d="
		M146.444,80.981c-1.158,7.649-4.025,14.759-8.917,21.231"/>
	<path style="fill:none;stroke:#000000;stroke-width:5.6693;stroke-linecap:round;stroke-linejoin:round;stroke-miterlimit:10;" d="
		M175.105,78.855c5.03,3.064,9.199,7.772,12.845,13.484"/>
	<path style="fill:none;stroke:#000000;stroke-width:5.6693;stroke-linecap:round;stroke-linejoin:round;stroke-miterlimit:10;" d="
		M159.394,80.981c0,4.445,0,13.335,0,17.781c0,2.785,2.257,5.042,5.042,5.042c8.359,0,25.079,0,33.438,0
		c2.726,0,4.936-2.21,4.936-4.936c0-1.977,0-5.931,0-7.908"/>
	<path style="fill:none;stroke:#000000;stroke-width:5.6693;stroke-linecap:round;stroke-linejoin:round;stroke-miterlimit:10;" d="
		M207.216,79.495c5.859,6.309,10.611,12.943,14.065,19.957"/>
	<path style="fill:none;stroke:#000000;stroke-width:5.6693;stroke-linecap:round;stroke-linejoin:round;stroke-miterlimit:10;" d="
		M268.313,2.835c-7.487,15.173-16.962,27.033-28.425,35.581"/>
	<path style="fill:none;stroke:#000000;stroke-width:5.6693;stroke-linecap:round;stroke-linejoin:round;stroke-miterlimit:10;" d="
		M256.784,22.116c0,0,0,34.289,0,45.718"/>
	<path style="fill:none;stroke:#000000;stroke-width:5.6693;stroke-linecap:round;stroke-linejoin:round;stroke-miterlimit:10;" d="
		M290.178,2.835c-2.972,11.832-9.08,21.827-19.281,29.424"/>
	<path style="fill:none;stroke:#000000;stroke-width:5.6693;stroke-linecap:round;stroke-linejoin:round;stroke-miterlimit:10;" d="
		M284.883,16.391h54.591c0,0-8.349,11.385-8.349,15.867"/>
	<path style="fill:none;stroke:#000000;stroke-width:5.6693;stroke-linecap:round;stroke-linejoin:round;stroke-miterlimit:10;" d="
		M308.863,24.508c0,8.372,0,25.115,0,33.487c0,4.007-3.248,7.255-7.255,7.255c-1.913,0-7.653,0-7.653,0"/>
	<path style="fill:none;stroke:#000000;stroke-width:5.6693;stroke-linecap:round;stroke-linejoin:round;stroke-miterlimit:10;" d="
		M290.178,35.633c-2.087,8.55-6.452,16.017-13.914,22.012"/>
	<path style="fill:none;stroke:#000000;stroke-width:5.6693;stroke-linecap:round;stroke-linejoin:round;stroke-miterlimit:10;" d="
		M323.572,35.633c6.427,6.989,11.131,14.675,14.113,23.058"/>
	<path style="fill:none;stroke:#000000;stroke-width:5.6693;stroke-linecap:round;stroke-linejoin:round;stroke-miterlimit:10;" d="
		M284.016,67.834c8.571,6.198,13.728,13.019,16.498,20.275"/>
	<path style="fill:none;stroke:#000000;stroke-width:5.6693;stroke-linecap:round;stroke-linejoin:round;stroke-miterlimit:10;" d="
		M266.524,75.189c0,5.067,0,15.202,0,20.27c0,3.73,3.023,6.753,6.753,6.753c10.041,0,30.123,0,40.163,0
		c3.949,0,7.15-3.201,7.15-7.15c0-1.738,0-5.214,0-6.952"/>
	<path style="fill:none;stroke:#000000;stroke-width:5.6693;stroke-linecap:round;stroke-linejoin:round;stroke-miterlimit:10;" d="
		M254.1,77.176c-2.427,9.416-6.207,17.952-12.225,25.035"/>
	<path style="fill:none;stroke:#000000;stroke-width:5.6693;stroke-linecap:round;stroke-linejoin:round;stroke-miterlimit:10;" d="
		M327.15,75.189c5.356,7.955,9.557,16.458,12.324,25.642"/>
	
		<line style="fill:none;stroke:#000000;stroke-width:5.6693;stroke-linecap:round;stroke-linejoin:round;stroke-miterlimit:10;" x1="357.089" y1="54.082" x2="464.031" y2="54.082"/>
	<path style="fill:none;stroke:#000000;stroke-width:5.6693;stroke-linecap:round;stroke-linejoin:round;stroke-miterlimit:10;" d="
		M493.264,7.108c-0.415,33.27,1.82,75.073-6.906,81.592l34.391-16.878"/>
	
		<line style="fill:none;stroke:#000000;stroke-width:5.6693;stroke-linecap:round;stroke-linejoin:round;stroke-miterlimit:10;" x1="474.525" y1="42.088" x2="519" y2="32.259"/>
	<path style="fill:none;stroke:#000000;stroke-width:5.6693;stroke-linecap:round;stroke-linejoin:round;stroke-miterlimit:10;" d="
		M519,16.391h58.718l-4.997,70.672c0,11.247-6.868,18.115-18.115,18.115h-9.12"/>
	<path style="fill:none;stroke:#000000;stroke-width:5.6693;stroke-linecap:round;stroke-linejoin:round;stroke-miterlimit:10;" d="
		M542.238,16.392c1.8,43.803-7.281,75.444-32.732,88.787"/>
	<path style="fill:none;stroke:#000000;stroke-width:5.6693;stroke-linecap:round;stroke-linejoin:round;stroke-miterlimit:10;" d="
		M603.408,4.689c-0.083,41.036,1.212,89.445-8.449,100.49"/>
	
		<line style="fill:none;stroke:#000000;stroke-width:5.6693;stroke-linecap:round;stroke-linejoin:round;stroke-miterlimit:10;" x1="618.196" y1="15.103" x2="618.196" y2="91.311"/>
	
		<line style="fill:none;stroke:#000000;stroke-width:5.6693;stroke-linecap:round;stroke-linejoin:round;stroke-miterlimit:10;" x1="635.187" y1="5.358" x2="635.187" y2="106.803"/>
	
		<line style="fill:none;stroke:#000000;stroke-width:5.6693;stroke-linecap:round;stroke-linejoin:round;stroke-miterlimit:10;" x1="645.681" y1="10.356" x2="699.401" y2="10.356"/>
	<path style="fill:none;stroke:#000000;stroke-width:5.6693;stroke-linecap:round;stroke-linejoin:round;stroke-miterlimit:10;" d="
		M673.666,10.356c0,0-7.496,14.652-7.496,19.989"/>
	<path style="fill:none;stroke:#000000;stroke-width:5.6693;stroke-linecap:round;stroke-linejoin:round;stroke-miterlimit:10;" d="
		M651.428,82.316c0-12.993,0-51.972,0-51.972l40.977,0c0,0,0,37.473,0,50.722"/>
	<path style="fill:none;stroke:#000000;stroke-width:5.6693;stroke-linecap:round;stroke-linejoin:round;stroke-miterlimit:10;" d="
		M671.916,43.088c1.749,41.477-5.747,54.97-27.985,63.715"/>
	<path style="fill:none;stroke:#000000;stroke-width:5.6693;stroke-linecap:round;stroke-linejoin:round;stroke-miterlimit:10;" d="
		M674.742,82.316c6.198,10.013,13.509,18.048,22.987,22.238"/>
	<path style="fill:none;stroke:#000000;stroke-width:5.6693;stroke-linecap:round;stroke-linejoin:round;stroke-miterlimit:10;" d="
		M714.143,16.392c19.406-0.705,35.981-4.383,49.723-11.033"/>
	<path style="fill:none;stroke:#000000;stroke-width:5.6693;stroke-linecap:round;stroke-linejoin:round;stroke-miterlimit:10;" d="
		M742.128,13.104c0,23.737,0,71.211,0,94.948"/>
	<path style="fill:none;stroke:#000000;stroke-width:5.6693;stroke-linecap:round;stroke-linejoin:round;stroke-miterlimit:10;" d="
		M714.143,41.339c4.412-0.55,27.36-2.862,54.72,0"/>
	<path style="fill:none;stroke:#000000;stroke-width:5.6693;stroke-linecap:round;stroke-linejoin:round;stroke-miterlimit:10;" d="
		M712.894,88.813c11.941-11.679,21.278-28.273,29.234-47.474"/>
	<path style="fill:none;stroke:#000000;stroke-width:5.6693;stroke-linecap:round;stroke-linejoin:round;stroke-miterlimit:10;" d="
		M765.865,74.945c-7.747-4.452-15.685-11.47-23.737-20.011"/>
	
		<line style="fill:none;stroke:#000000;stroke-width:5.6693;stroke-linecap:round;stroke-linejoin:round;stroke-miterlimit:10;" x1="781.107" y1="16.392" x2="781.107" y2="80.317"/>
	<path style="fill:none;stroke:#000000;stroke-width:5.6693;stroke-linecap:round;stroke-linejoin:round;stroke-miterlimit:10;" d="
		M810.091,4.689v91.495c0,5.865-4.754,10.619-10.619,10.619h-12.118"/>
</g>
<g id="Layer_1">
</g>
</svg>
