<?xml version="1.0" encoding="iso-8859-1"?>
<!-- Generator: Adobe Illustrator 23.0.4, SVG Export Plug-In . SVG Version: 6.00 Build 0)  -->
<svg version="1.1" xmlns="http://www.w3.org/2000/svg" xmlns:xlink="http://www.w3.org/1999/xlink" x="0px" y="0px"
	 viewBox="0 0 305.95 175.536" style="enable-background:new 0 0 305.95 175.536;" xml:space="preserve">
<g id="stamp-4">
	
		<line style="fill:#FFFFFF;stroke:#1D1D1B;stroke-width:3;stroke-linecap:round;stroke-linejoin:round;" x1="1.5" y1="15.468" x2="68.277" y2="6.216"/>
	
		<line style="fill:#FFFFFF;stroke:#1D1D1B;stroke-width:3;stroke-linecap:round;stroke-linejoin:round;" x1="33.072" y1="6.216" x2="40.675" y2="76.753"/>
	<path style="fill:none;stroke:#1D1D1B;stroke-width:3;stroke-linecap:round;stroke-linejoin:round;" d="M83.176,2.67v71.549
		c0,0,10.086-28.471,18.131-38.406c4.92-6.031,11.976-8.521,16.181-5.069c0,0,3.704-3.899,2.924,46.01"/>
	<path style="fill:none;stroke:#1D1D1B;stroke-width:3;stroke-linecap:round;stroke-linejoin:round;" d="M171.881,35.032
		c2.339-10.918-2.339-10.138-2.339-10.138s-7.798,1.17-17.741,22.03c-5.654,14.622-8.636,20.607-3.704,25.539
		c4.289,4.289,13.264-11.126,16.571-17.936c3.314-6.823,6.434-15.986,6.434-15.986s7.798,31.583,5.264,35.872"/>
	<path style="fill:none;stroke:#1D1D1B;stroke-width:3;stroke-linecap:round;stroke-linejoin:round;" d="M203.268,20.021
		c0,0,2.924,52.184,4.874,54.523c1.95,2.339,9.748-59.076,24.954-52.964c11.697,0.78,8.773,51.273,8.773,51.273"/>
	
		<line style="fill:none;stroke:#1D1D1B;stroke-width:3;stroke-linecap:round;stroke-linejoin:round;" x1="274.037" y1="1.5" x2="270.333" y2="79.677"/>
	<path style="fill:none;stroke:#1D1D1B;stroke-width:3;stroke-linecap:round;stroke-linejoin:round;" d="M304.45,20.021
		c-18.911,36.262-33.175,39.76-33.175,39.76s7.83,6.639,33.175,13.658"/>
	<path style="fill:none;stroke:#1D1D1B;stroke-width:3;stroke-linecap:round;stroke-linejoin:round;" d="M91.754,121.008
		c1.51,2.637,16.886,29.703,16.886,29.703l15.477-29.703"/>
	<path style="fill:none;stroke:#1D1D1B;stroke-width:3;stroke-linecap:round;stroke-linejoin:round;" d="M108.715,151.226
		c0,0,0,17.107,0,22.81"/>
	<path style="fill:none;stroke:#1D1D1B;stroke-width:3;stroke-linecap:round;stroke-linejoin:round;" d="M169.541,147.717
		c0,15.148-6.212,24.759-15.416,24.759c-9.203,0-14.802-8.637-14.802-23.785c0-16.321,5.599-25.734,14.802-25.734
		C163.329,122.957,169.541,132.569,169.541,147.717z"/>
	<path style="fill:none;stroke:#1D1D1B;stroke-width:3;stroke-linecap:round;stroke-linejoin:round;" d="M187.672,121.008
		l0.875,39.188c0,0,1.27,12.28,11.602,12.28c10.333,0,11.112-12.087,11.112-12.087v-39.381"/>
	<path style="fill:#FFFFFF;stroke:#1D1D1B;stroke-width:3;stroke-linecap:round;stroke-linejoin:round;" d="M29.452,144.039
		c0,0,28.17,0,37.56,0"/>
	<path style="fill:#FFFFFF;stroke:#1D1D1B;stroke-width:3;stroke-linecap:round;stroke-linejoin:round;" d="M238.778,144.039
		c5.903,0,37.56,0,37.56,0"/>
</g>
<g id="Layer_1">
</g>
</svg>
