<?xml version="1.0" encoding="iso-8859-1"?>
<!-- Generator: Adobe Illustrator 23.0.4, SVG Export Plug-In . SVG Version: 6.00 Build 0)  -->
<svg version="1.1" xmlns="http://www.w3.org/2000/svg" xmlns:xlink="http://www.w3.org/1999/xlink" x="0px" y="0px"
	 viewBox="0 0 310.969 146.633" style="enable-background:new 0 0 310.969 146.633;" xml:space="preserve">
<g id="stamp-5">
	<path style="fill:none;stroke:#000000;stroke-width:3;stroke-linecap:round;stroke-linejoin:round;" d="M35.439,38.123
		c7.527,0.365,19.828-10.495,22.924-15.935c0,0,5.437-7.969,6.15-14.537c0.173-2.962,0.727-5.289-2.796-6.15
		c-3.902,0.751-5.296,3.546-6.15,4.753c-2.406,5.417-2.878,8.602-3.355,11.462c-0.477,2.86-1.572,7.435-1.046,13.348
		c0.636,4.583,1.943,5.941,3.103,6.871c1.16,0.929,4.12,1.167,5.652-1.33c1.116-1.82,1.452-4.894,4.211-7.425
		c2.129-1.953,4.853-1.783,5.973-1.12c1.12,0.663,4.315,5.828,5.871,6.989c4.003,1.667,7.941,1.91,10.903,1.677
		c2.962-0.232,3.661-2.406,3.974-2.838c1.787-2.463,3.792-6.093,7.208-7.506c3.416-1.413,5.074-0.441,6.71,0.559
		c0.91,1.015,5.338,6.572,7.269,8.107c1.931,1.535,4.708,3.006,8.107,3.075c2.319-0.233,6.192-3.68,8.667-5.591
		s9.173-11.306,12.301-12.72c2.345-0.546,2.999-0.138,3.162,1.333c0.162,1.461-0.914,7.505-1.286,9.523
		c-0.079,0.426-0.176,0.845-0.294,1.262l-3.26,11.505c0,0-5.772,24.317-10.064,23.763c-3.476,0.672-4.456,0.009-5.032-3.355
		c0.985-9.207,5.52-18.76,7.828-22.086c2.308-3.326,6.523-10.832,9.505-13.699c2.982-2.867,4.211-5.893,7.269-6.989
		c3.82-1.369,9.961,0.42,9.629,4.568c-0.327,4.084-1.606,4.87-2.942,6.617c-2.122,2.773-10.547,3.405-13.651,2.213"/>
	<path style="fill:none;stroke:#000000;stroke-width:3;stroke-linecap:round;stroke-linejoin:round;" d="M106.368,28.722
		c1.639,3.859-4.507,10.735-9.844,10.331c-6.079,0.472-6.588-3.866-6.442-3.939"/>
	<path style="fill:none;stroke:#000000;stroke-width:3;stroke-linecap:round;stroke-linejoin:round;" d="M142.948,34.467
		c7.489,3.266,14.198,4.581,19.598,2.619c-0.231,0.955,21.214-9.788,26.701-13.087c4.798-2.884,8.393-7.677,11.069-3.304
		c0.617,1.009-8.276,30.046-10.333,34.92c-2.057,4.874-2.893,9.756-4.989,11.818c-3.207,3.155-5.343,3.596-5.867-0.38
		c-0.451-3.419,0.793-11.279,2.66-15.893c1.867-4.614,4.974-12.08,8.436-16.694c3.373-4.165,8.659-11.919,12.23-12.702
		c3.571-0.784,8.112-1.18,9.264,0.356c1.675,2.233,1.35,4.666,0.891,6.601c-0.459,1.935-3.399,4.583-5.879,5.745
		c-2.48,1.161-10.299,1.7-10.299,1.7"/>
	<path style="fill:none;stroke:#000000;stroke-width:3;stroke-linecap:round;stroke-linejoin:round;" d="M198.842,35.954
		c0,0,5.39,2.166,14.137,1.556c8.747-0.61,12.71-3.049,17.435-4.878c4.725-1.829,13.262-12.042,16.005-9.756
		c2.744,2.286-1.816,6.376,0,9.298c1.816,2.922,7.635,2.231,11.028,0.729c1.696-0.751,5.779-7.586,7.552-9.715
		c1.058-1.271,2.464-1.151,2.464,0.503c0,0-0.701,8.772-1.228,12.904c-0.527,4.131-1.894,11.088-3.658,17.072
		c-2.175,7.378-3.731,17.699-8.611,20.814c-4.88,3.116-18.665,3.434-13.644-8.162c4.891-11.297,10.81-14.154,14.329-17.225
		c3.251-2.837,18.008-9.004,27.743-13.871"/>
	<path style="fill:none;stroke:#E84810;stroke-width:3;stroke-linecap:round;stroke-linejoin:round;" d="M310.969,145.133"/>
	<path style="fill:none;stroke:#E84810;stroke-width:3;stroke-linecap:round;stroke-linejoin:round;" d="M0,145.133"/>
	<path style="fill:none;stroke:#000000;stroke-width:3;stroke-linecap:round;stroke-linejoin:round;" d="M51.863,113.529
		c0,1.152,0,31.603,0,31.603h9.678c0-3.097,0-31.603,0-31.603H51.863z"/>
	<path style="fill:none;stroke:#000000;stroke-width:3;stroke-linecap:round;stroke-linejoin:round;" d="M51.863,119.315
		c0,0,7.732-4.577,9.678-5.786"/>
	<path style="fill:none;stroke:#000000;stroke-width:3;stroke-linecap:round;stroke-linejoin:round;" d="M51.863,127.495
		c0,0,7.601-4.704,9.678-5.996"/>
	<path style="fill:none;stroke:#000000;stroke-width:3;stroke-linecap:round;stroke-linejoin:round;" d="M61.542,123.76"/>
	<path style="fill:none;stroke:#000000;stroke-width:3;stroke-linecap:round;stroke-linejoin:round;" d="M51.863,129.778"/>
	<path style="fill:none;stroke:#000000;stroke-width:3;stroke-linecap:round;stroke-linejoin:round;" d="M51.863,136.512
		c0,0,7.666-4.817,9.678-6.018"/>
	<path style="fill:none;stroke:#000000;stroke-width:3;stroke-linecap:round;stroke-linejoin:round;" d="M61.542,134.446"/>
	<path style="fill:none;stroke:#000000;stroke-width:3;stroke-linecap:round;stroke-linejoin:round;" d="M51.863,140.465"/>
	<path style="fill:none;stroke:#000000;stroke-width:3;stroke-linecap:round;stroke-linejoin:round;" d="M51.863,145.133
		c0,0,7.797-4.861,9.678-6.018"/>
	<path style="fill:none;stroke:#000000;stroke-width:3;stroke-linecap:round;stroke-linejoin:round;" d="M59.017,86.768
		c-6.312,4.734-8.1,11.363-8.1,14.728s2.84,5.996,5.786,5.996c2.946,0,4.918-1.761,5.339-6.074
		C62.462,97.105,59.227,93.922,59.017,86.768z"/>
	<path style="fill:none;stroke:#000000;stroke-width:3;stroke-linecap:round;stroke-linejoin:round;" d="M81.048,145.133"/>
	<path style="fill:none;stroke:#000000;stroke-width:3;stroke-linecap:round;stroke-linejoin:round;" d="M114.808,106.167
		c2.417,0,29.057,0,29.057,0"/>
	<path style="fill:none;stroke:#000000;stroke-width:3;stroke-linecap:round;stroke-linejoin:round;" d="M129.925,106.167
		c0,0,0,29.225,0,38.966"/>
	<path style="fill:none;stroke:#000000;stroke-width:3;stroke-linecap:round;stroke-linejoin:round;" d="M182.497,106.167
		c0,0,0,35.935,0,38.966"/>
	<path style="fill:none;stroke:#000000;stroke-width:3;stroke-linecap:round;stroke-linejoin:round;" d="M153.607,106.167
		c0,0,0,35.304,0,38.966"/>
	<path style="fill:none;stroke:#000000;stroke-width:3;stroke-linecap:round;stroke-linejoin:round;" d="M241.833,131.61"/>
	<path style="fill:none;stroke:#000000;stroke-width:3;stroke-linecap:round;stroke-linejoin:round;" d="M236.412,145.133
		c1.598-4.01,15.62-38.966,15.62-38.966s14.324,35.796,15.62,38.966"/>
	<path style="fill:none;stroke:#000000;stroke-width:3;stroke-linecap:round;stroke-linejoin:round;" d="M196.941,106.167v38.966
		h15.489c2.349,0,4.639-0.698,6.569-2.036c3.588-2.486,8.343-7.633,8.343-17.447c0-9.621-4.32-14.756-7.685-17.297
		c-1.93-1.457-4.305-2.186-6.722-2.186H196.941z"/>
	<path style="fill:none;stroke:#000000;stroke-width:3;stroke-linecap:round;stroke-linejoin:round;" d="M305.78,103.677"/>
	<path style="fill:none;stroke:#000000;stroke-width:3;stroke-linecap:round;stroke-linejoin:round;" d="M275.043,103.677
		c2.097,2.966,15.452,21.973,15.452,21.973v19.483V125.65"/>
	<path style="fill:none;stroke:#000000;stroke-width:3;stroke-linecap:round;stroke-linejoin:round;" d="M290.496,125.65
		c0,0,13.466-19.319,15.284-21.973"/>
	<path style="fill:none;stroke:#000000;stroke-width:3;stroke-linecap:round;stroke-linejoin:round;" d="M262.197,131.523
		c0,0-19.076,0.082-20.364,0.087"/>
	<path style="fill:none;stroke:#000000;stroke-width:3;stroke-linecap:round;stroke-linejoin:round;" d="M153.607,123.76
		c2.029,0.004,28.889,0,28.889,0"/>
	<path style="fill:none;stroke:#000000;stroke-width:3;stroke-linecap:round;stroke-linejoin:round;" d="M106.746,145.133"/>
	<path style="fill:none;stroke:#000000;stroke-width:3;stroke-linecap:round;stroke-linejoin:round;" d="M81.048,145.133v-38.966
		h18.468c1.392,0,2.772,0.344,3.957,1.074c2.006,1.237,4.617,3.682,4.617,8.025c0,2.769-0.932,4.786-2.063,6.215
		c-1.559,1.968-4.009,3.015-6.52,3.015H81.415"/>
	<path style="fill:none;stroke:#000000;stroke-width:3;stroke-linecap:round;stroke-linejoin:round;" d="M94.456,124.492
		c8.152,0.777,12.946,4.563,12.035,20.578"/>
	<path style="fill:none;stroke:#000000;stroke-width:3;stroke-linecap:round;stroke-linejoin:round;" d="M4.516,145.133v-38.966
		h18.468c1.392,0,2.772,0.344,3.957,1.074c2.006,1.237,4.617,3.682,4.617,8.025c0,2.769-0.932,4.786-2.063,6.215
		c-1.559,1.968-4.009,3.015-6.52,3.015H4.883"/>
	<path style="fill:none;stroke:#000000;stroke-width:3;stroke-linecap:round;stroke-linejoin:round;" d="M22.984,124.491
		c1.392,0,2.772,0.379,3.957,1.183c2.006,1.363,4.617,4.055,4.617,8.839c0,3.05-0.932,5.272-2.063,6.846
		c-1.559,2.168-4.009,3.321-6.52,3.321H4.883"/>
</g>
<g id="Layer_1">
</g>
</svg>
