<?xml version="1.0" encoding="iso-8859-1"?>
<!-- Generator: Adobe Illustrator 23.0.4, SVG Export Plug-In . SVG Version: 6.00 Build 0)  -->
<svg version="1.1" xmlns="http://www.w3.org/2000/svg" xmlns:xlink="http://www.w3.org/1999/xlink" x="0px" y="0px"
	 viewBox="0 0 646.215 282.266" style="enable-background:new 0 0 646.215 282.266;" xml:space="preserve">
<g id="stamp-2">
	<path style="fill:none;stroke:#E84810;stroke-width:5.6693;stroke-linecap:round;stroke-linejoin:round;" d="M646.215,279.431"/>
	<path style="fill:none;stroke:#000000;stroke-width:5.6693;stroke-linecap:round;stroke-linejoin:round;" d="M163.509,279.431"/>
	<path style="fill:none;stroke:#000000;stroke-width:5.6693;stroke-linecap:round;stroke-linejoin:round;" d="M217.461,279.431"/>
	<path style="fill:none;stroke:#000000;stroke-width:5.6693;stroke-linecap:round;stroke-linejoin:round;" d="M2.835,279.431
		v-81.807h38.772c2.922,0,5.82,0.722,8.307,2.255c4.212,2.598,9.693,7.729,9.693,16.848c0,5.813-1.956,10.048-4.332,13.049
		c-3.272,4.132-8.417,6.33-13.687,6.33l-37.984,0"/>
	<path style="fill:none;stroke:#000000;stroke-width:5.6693;stroke-linecap:round;stroke-linejoin:round;" d="M41.607,236.095
		c2.922,0,5.82,0.795,8.307,2.484c4.212,2.861,9.693,8.513,9.693,18.556c0,6.402-1.956,11.067-4.332,14.372
		c-3.272,4.551-8.417,6.972-13.687,6.972H3.604"/>
	<path style="fill:none;stroke:#000000;stroke-width:5.6693;stroke-linecap:round;stroke-linejoin:round;" d="M102.237,213.082
		c0,2.419,0,66.349,0,66.349h20.319c0-6.503,0-66.349,0-66.349H102.237z"/>
	<path style="fill:none;stroke:#000000;stroke-width:5.6693;stroke-linecap:round;stroke-linejoin:round;" d="M102.237,225.229
		c0,0,16.232-9.608,20.319-12.147"/>
	<path style="fill:none;stroke:#000000;stroke-width:5.6693;stroke-linecap:round;stroke-linejoin:round;" d="M102.237,242.402
		c0,0,15.957-9.875,20.319-12.589"/>
	<path style="fill:none;stroke:#000000;stroke-width:5.6693;stroke-linecap:round;stroke-linejoin:round;" d="M122.556,234.561"/>
	<path style="fill:none;stroke:#000000;stroke-width:5.6693;stroke-linecap:round;stroke-linejoin:round;" d="M102.237,247.196"/>
	<path style="fill:none;stroke:#000000;stroke-width:5.6693;stroke-linecap:round;stroke-linejoin:round;" d="M102.237,261.332
		c0,0,16.095-10.113,20.319-12.635"/>
	<path style="fill:none;stroke:#000000;stroke-width:5.6693;stroke-linecap:round;stroke-linejoin:round;" d="M122.556,256.996"/>
	<path style="fill:none;stroke:#000000;stroke-width:5.6693;stroke-linecap:round;stroke-linejoin:round;" d="M102.237,269.631"/>
	<path style="fill:none;stroke:#000000;stroke-width:5.6693;stroke-linecap:round;stroke-linejoin:round;" d="M102.237,279.431
		c0,0,16.37-10.206,20.319-12.635"/>
	<path style="fill:none;stroke:#000000;stroke-width:5.6693;stroke-linecap:round;stroke-linejoin:round;" d="M163.509,279.431
		v-81.807h38.772c2.922,0,5.82,0.722,8.307,2.255c4.212,2.598,9.693,7.729,9.693,16.848c0,5.813-1.956,10.048-4.332,13.049
		c-3.272,4.132-8.417,6.33-13.687,6.33l-37.984,0"/>
	<path style="fill:none;stroke:#000000;stroke-width:5.6693;stroke-linecap:round;stroke-linejoin:round;" d="M191.658,236.097
		c17.115,1.631,27.179,9.579,25.267,43.203"/>
	<path style="fill:none;stroke:#000000;stroke-width:5.6693;stroke-linecap:round;stroke-linejoin:round;" d="M234.387,197.624
		c5.074,0,61.004,0,61.004,0"/>
	<path style="fill:none;stroke:#000000;stroke-width:5.6693;stroke-linecap:round;stroke-linejoin:round;" d="M266.123,197.624
		c0,0,0,61.355,0,81.807"/>
	<path style="fill:none;stroke:#000000;stroke-width:5.6693;stroke-linecap:round;stroke-linejoin:round;" d="M376.494,197.624
		c0,0,0,75.444,0,81.807"/>
	<path style="fill:none;stroke:#000000;stroke-width:5.6693;stroke-linecap:round;stroke-linejoin:round;" d="M315.843,197.624
		c0,0,0,74.118,0,81.807"/>
	<path style="fill:none;stroke:#000000;stroke-width:5.6693;stroke-linecap:round;stroke-linejoin:round;" d="M315.843,234.561
		c4.261,0.007,60.651,0,60.651,0"/>
	<path style="fill:none;stroke:#000000;stroke-width:5.6693;stroke-linecap:round;stroke-linejoin:round;" d="M406.82,197.624
		v81.807h32.518c4.931,0,9.738-1.466,13.791-4.274c7.532-5.22,17.516-16.025,17.516-36.629c0-20.198-9.069-30.98-16.134-36.314
		c-4.051-3.059-9.037-4.589-14.113-4.589H406.82z"/>
	<path style="fill:none;stroke:#000000;stroke-width:5.6693;stroke-linecap:round;stroke-linejoin:round;" d="M501.067,251.041"/>
	<path style="fill:none;stroke:#000000;stroke-width:5.6693;stroke-linecap:round;stroke-linejoin:round;" d="M489.686,279.431
		c3.355-8.419,32.794-81.807,32.794-81.807s30.072,75.152,32.794,81.807"/>
	<path style="fill:none;stroke:#000000;stroke-width:5.6693;stroke-linecap:round;stroke-linejoin:round;" d="M543.821,250.859
		c0,0-40.05,0.173-42.754,0.182"/>
	<path style="fill:none;stroke:#000000;stroke-width:5.6693;stroke-linecap:round;stroke-linejoin:round;" d="M570.79,192.397
		c4.403,6.227,32.441,46.131,32.441,46.131v40.903v-40.903"/>
	<path style="fill:none;stroke:#000000;stroke-width:5.6693;stroke-linecap:round;stroke-linejoin:round;" d="M635.32,192.397"/>
	<path style="fill:none;stroke:#000000;stroke-width:5.6693;stroke-linecap:round;stroke-linejoin:round;" d="M603.231,238.528
		c0,0,28.271-40.559,32.089-46.131"/>
	<path style="fill:none;stroke:#000000;stroke-width:5.6693;stroke-linecap:round;stroke-linejoin:round;" d="M67.755,79.723
		c15.803,0.766,41.628-22.034,48.128-33.455c0,0,11.414-16.73,12.913-30.52c0.363-6.218,1.526-11.104-5.869-12.912
		c-8.192,1.576-11.118,7.445-12.912,9.978c-5.052,11.374-6.042,18.06-7.043,24.064c-1.001,6.005-3.3,15.609-2.196,28.024
		c1.336,9.623,4.079,12.474,6.514,14.425c2.436,1.951,8.649,2.451,11.865-2.792c2.344-3.82,3.049-10.275,8.841-15.588
		c4.469-4.1,10.188-3.744,12.539-2.352s9.059,12.236,12.326,14.673c8.405,3.5,16.672,4.009,22.89,3.522
		c6.218-0.487,7.686-5.052,8.344-5.958c3.751-5.17,7.961-12.791,15.134-15.758c7.172-2.967,10.652-0.925,14.086,1.174
		c1.911,2.131,11.207,13.798,15.26,17.021c4.054,3.223,9.885,6.31,17.021,6.456c4.868-0.489,13-7.725,18.195-11.739
		c5.195-4.013,19.258-23.736,25.825-26.705c4.924-1.146,6.296-0.289,6.639,2.798c0.341,3.067-1.919,15.756-2.699,19.993
		c-0.165,0.895-0.369,1.775-0.617,2.65l-6.844,24.154c0,0-12.117,51.052-21.13,49.889c-7.297,1.41-9.355,0.02-10.565-7.043
		c2.067-19.329,11.59-39.386,16.434-46.368s13.695-22.74,19.956-28.76c6.26-6.019,8.841-12.373,15.26-14.673
		c8.02-2.874,20.913,0.881,20.216,9.589c-0.686,8.575-3.372,10.225-6.178,13.891c-4.455,5.823-22.143,7.149-28.66,4.645"/>
	<path style="fill:none;stroke:#000000;stroke-width:5.6693;stroke-linecap:round;stroke-linejoin:round;" d="M216.667,59.985
		c3.442,8.102-9.463,22.537-20.667,21.689c-12.763,0.99-13.831-8.117-13.524-8.27"/>
	<path style="fill:none;stroke:#000000;stroke-width:5.6693;stroke-linecap:round;stroke-linejoin:round;" d="M293.464,72.046
		c15.722,6.856,29.808,9.618,41.144,5.499c-0.485,2.005,44.537-20.55,56.058-27.476c10.072-6.054,17.621-16.117,23.238-6.936
		c1.296,2.118-17.375,63.08-21.694,73.312s-6.074,20.483-10.473,24.812c-6.732,6.624-11.217,7.55-12.317-0.797
		c-0.946-7.177,1.665-23.679,5.585-33.366c3.92-9.686,10.443-25.361,17.712-35.048c7.082-8.744,18.179-25.023,25.677-26.668
		c7.498-1.645,17.032-2.477,19.45,0.748c3.516,4.689,2.833,9.796,1.87,13.859c-0.963,4.063-7.136,9.622-12.343,12.061
		c-5.207,2.438-21.622,3.568-21.622,3.568"/>
	<path style="fill:none;stroke:#000000;stroke-width:5.6693;stroke-linecap:round;stroke-linejoin:round;" d="M410.809,75.169
		c0,0,11.316,4.548,29.679,3.268c18.363-1.28,26.684-6.4,36.604-10.241s27.842-25.282,33.603-20.482c5.76,4.8-3.812,13.386,0,19.521
		c3.813,6.135,16.03,4.683,23.153,1.53c3.561-1.576,12.133-15.927,15.856-20.396c2.222-2.667,5.173-2.416,5.173,1.056
		c0,0-1.473,18.417-2.578,27.091s-3.977,23.279-7.681,35.843c-4.566,15.489-7.832,37.158-18.078,43.699
		c-10.245,6.541-39.186,7.21-28.646-17.137c10.267-23.717,22.695-29.716,30.082-36.163c6.825-5.956,37.808-18.904,58.245-29.122"/>
	<path style="fill:none;stroke:#000000;stroke-width:5.6693;stroke-linecap:round;stroke-linejoin:round;" d="M117.256,156.899
		c-13.252,9.939-17.006,23.856-17.006,30.92c0,7.065,5.963,12.589,12.147,12.589c6.184,0,10.325-3.697,11.208-12.752
		C124.488,178.601,117.697,171.917,117.256,156.899z"/>
</g>
<g id="Layer_1">
</g>
</svg>
