<?xml version="1.0" encoding="iso-8859-1"?>
<!-- Generator: Adobe Illustrator 23.0.4, SVG Export Plug-In . SVG Version: 6.00 Build 0)  -->
<svg version="1.1" xmlns="http://www.w3.org/2000/svg" xmlns:xlink="http://www.w3.org/1999/xlink" x="0px" y="0px"
	 viewBox="0 0 310.58 175.244" style="enable-background:new 0 0 310.58 175.244;" xml:space="preserve">
<g id="stamp-3">
	<path style="fill:none;stroke:#000000;stroke-width:3;stroke-linecap:round;stroke-linejoin:round;stroke-miterlimit:10;" d="
		M1.5,16.29c7.586-0.985,69.389-9.273,69.389-9.273"/>
	<path style="fill:none;stroke:#000000;stroke-width:3;stroke-linecap:round;stroke-linejoin:round;stroke-miterlimit:10;" d="
		M34.116,5.737c0.478,4.379,8.314,72.586,8.314,72.586"/>
	<path style="fill:none;stroke:#000000;stroke-width:3;stroke-linecap:round;stroke-linejoin:round;stroke-miterlimit:10;" d="
		M70.889,55.301c13.629-5.441,25.528-11.178,32.474-17.769c1.896-1.8,2.052-4.827,0.276-6.746c-3.868-4.18-7.303-5.12-10.367-3.305
		c-19.354,10.266-16.675,48.09-6.214,48.786c6.167,0.14,19.152-9.131,28.002-24.18"/>
	<path style="fill:none;stroke:#000000;stroke-width:3;stroke-linecap:round;stroke-linejoin:round;stroke-miterlimit:10;" d="
		M133.732,27.506l7.792,50.818c0,0-1.948-60.753,25.324-48.675"/>
	<path style="fill:none;stroke:#000000;stroke-width:3;stroke-linecap:round;stroke-linejoin:round;stroke-miterlimit:10;" d="
		M185.549,20.298c0,14.659,0,58.635,0,58.635"/>
	
		<line style="fill:none;stroke:#000000;stroke-width:3;stroke-linecap:round;stroke-linejoin:round;stroke-miterlimit:10;" x1="185.549" y1="1.5" x2="185.549" y2="8.318"/>
	<path style="fill:none;stroke:#000000;stroke-width:3;stroke-linecap:round;stroke-linejoin:round;stroke-miterlimit:10;" d="
		M208.146,16.29l3.506,60.891c0,0,3.891-43.177,12.857-43.441c5.412-0.159,7.962,21.529,8.714,29.47
		c0.048,0.511,0.772,0.555,0.891,0.056c1.918-8.064,7.813-30.695,13.576-30.695c7.013,0,5.649,37.597,10.325,41.688"/>
	<path style="fill:none;stroke:#000000;stroke-width:3;stroke-linecap:round;stroke-linejoin:round;stroke-miterlimit:10;" d="
		M301.456,33.545c0.436-9.397-6.623-10.714-13.569,0.83C272.13,63.13,273.586,69.622,278.08,73.09
		c5.649,1.364,15.82-17.342,23.376-36.818l4.091,39.997"/>
	<path style="fill:none;stroke:#000000;stroke-width:3;stroke-linecap:round;stroke-linejoin:round;stroke-miterlimit:10;" d="
		M3.198,150.957c0,0,39.534,0,52.711,0"/>
	<path style="fill:none;stroke:#000000;stroke-width:3;stroke-linecap:round;stroke-linejoin:round;stroke-miterlimit:10;" d="
		M256.368,150.957c5.28,0,52.711,0,52.711,0"/>
	<path style="fill:none;stroke:#000000;stroke-width:3;stroke-linecap:round;stroke-linejoin:round;stroke-miterlimit:10;" d="
		M80.893,120.483c0,8.78,0,39.945,0,53.26"/>
	<path style="fill:none;stroke:#000000;stroke-width:3;stroke-linecap:round;stroke-linejoin:round;stroke-miterlimit:10;" d="
		M80.893,153.428c0,0,20.711-30.683,22.238-32.945"/>
	<path style="fill:none;stroke:#000000;stroke-width:3;stroke-linecap:round;stroke-linejoin:round;stroke-miterlimit:10;" d="
		M86.73,144.78c0,0,15.703,25.566,17.773,28.963"/>
	<path style="fill:none;stroke:#000000;stroke-width:3;stroke-linecap:round;stroke-linejoin:round;stroke-miterlimit:10;" d="
		M111.916,173.744c1.037-3.882,14.825-53.26,14.825-53.26l14.551,53.26"/>
	<path style="fill:none;stroke:#000000;stroke-width:3;stroke-linecap:round;stroke-linejoin:round;stroke-miterlimit:10;" d="
		M116.668,156.67c1.854,0,19.959,0,19.959,0"/>
	<path style="fill:none;stroke:#000000;stroke-width:3;stroke-linecap:round;stroke-linejoin:round;stroke-miterlimit:10;" d="
		M172.863,122.906c-13.049-4.873-21.777-1.337-21.777,8.287c0,13.516,18.076,12.242,21.221,28.069
		c0.101,0.509-0.442,4.765-0.635,5.248c-3.063,7.648-13.124,10.272-23.242,5.116"/>
	<path style="fill:none;stroke:#000000;stroke-width:3;stroke-linecap:round;stroke-linejoin:round;stroke-miterlimit:10;" d="
		M186.173,120.483c0,13.315,0,39.945,0,53.26"/>
	<path style="fill:none;stroke:#000000;stroke-width:3;stroke-linecap:round;stroke-linejoin:round;stroke-miterlimit:10;" d="
		M201.721,120.483c0,13.315,0,39.945,0,53.26"/>
	<path style="fill:none;stroke:#000000;stroke-width:3;stroke-linecap:round;stroke-linejoin:round;stroke-miterlimit:10;" d="
		M228.872,120.483c0,13.315,0,39.945,0,53.26"/>
	<path style="fill:none;stroke:#000000;stroke-width:3;stroke-linecap:round;stroke-linejoin:round;stroke-miterlimit:10;" d="
		M201.721,147.113c5.324,0,27.151,0,27.151,0"/>
</g>
<g id="Layer_1">
</g>
</svg>
