<?xml version="1.0" encoding="iso-8859-1"?>
<!-- Generator: Adobe Illustrator 23.0.4, SVG Export Plug-In . SVG Version: 6.00 Build 0)  -->
<svg version="1.1" xmlns="http://www.w3.org/2000/svg" xmlns:xlink="http://www.w3.org/1999/xlink" x="0px" y="0px"
	 viewBox="0 0 305.759 171.64" style="enable-background:new 0 0 305.759 171.64;" xml:space="preserve">
<g id="stamp-1">
	<path style="fill:none;stroke:#000000;stroke-width:3;stroke-linecap:round;stroke-linejoin:round;" d="M89.8,5.141
		c-2.005-4.017-10.832-4.007-10.965,2.141c0.173,5.222,13.255,1.388,11.822,9.907c-0.738,4.523-8.54,5.464-13.159,0.675"/>
	<path style="fill:none;stroke:#000000;stroke-width:3;stroke-linecap:round;stroke-linejoin:round;" d="M97.742,11.371
		c5.31-0.41,8.971,0.193,16.786,0c0.21-6.492-2.98-9-8.393-8.843c-4.081,0.118-7.474,2.275-8.393,7.747
		c-1.796,10.698,11.303,14.002,16.027,7.17"/>
	<path style="fill:none;stroke:#000000;stroke-width:3;stroke-linecap:round;stroke-linejoin:round;" d="M114.036,153.02
		c-2.005-4.017-10.832-4.007-10.965,2.141c0.173,5.222,13.255,1.387,11.822,9.907c-0.738,4.523-8.54,5.464-13.159,0.675"/>
	<path style="fill:none;stroke:#000000;stroke-width:3;stroke-linecap:round;stroke-linejoin:round;" d="M121.978,159.25
		c5.31-0.41,8.971,0.193,16.786,0c0.21-6.492-2.98-9-8.393-8.843c-4.081,0.118-7.474,2.275-8.393,7.747
		c-1.796,10.698,11.303,14.002,16.027,7.17"/>
	<path style="fill:none;stroke:#000000;stroke-width:3;stroke-linecap:round;stroke-linejoin:round;" d="M122.963,1.5
		c0,5.04,0,20.16,0,20.16s-0.749-20.16,8.266-19.303c7.251,0.208,5.575,19.303,5.575,19.303s-1.491-19.74,7.921-19.303
		c6.748,0,5.997,7.494,5.82,19.303"/>
	
		<ellipse style="fill:none;stroke:#000000;stroke-width:3;stroke-linecap:round;stroke-linejoin:round;" cx="168.998" cy="11.58" rx="9.046" ry="9.307"/>
	
		<ellipse style="fill:none;stroke:#000000;stroke-width:3;stroke-linecap:round;stroke-linejoin:round;" cx="194.556" cy="11.158" rx="9.046" ry="9.307"/>
	<path style="fill:none;stroke:#000000;stroke-width:3;stroke-linecap:round;stroke-linejoin:round;" d="M203.601,1.851
		c1.181,25.123-0.507,28.637-9.046,28.75c-3.658,0.048-6.526-1.34-9.046-3.458"/>
	<path style="fill:none;stroke:#000000;stroke-width:3;stroke-linecap:round;stroke-linejoin:round;" d="M212.964,4.874
		c4.559-3.167,10.183-4.643,12.99,0c2.476,4.096,0.253,16.786,1.097,16.786"/>
	<path style="fill:none;stroke:#000000;stroke-width:3;stroke-linecap:round;stroke-linejoin:round;" d="M226.941,10.333
		c-9.566-0.916-14.452,1.723-14.567,5.895c-0.11,4,3.881,5.4,7.634,4.659c3.317-0.655,5.637-3.615,7.043-6.229"/>
	<path style="fill:none;stroke:#000000;stroke-width:3;stroke-linecap:round;stroke-linejoin:round;" d="M157.141,153.354
		c4.559-3.167,10.183-4.643,12.99,0c2.476,4.096,0.253,16.786,1.097,16.786"/>
	<path style="fill:none;stroke:#000000;stroke-width:3;stroke-linecap:round;stroke-linejoin:round;" d="M171.118,158.813
		c-9.566-0.916-14.452,1.723-14.567,5.895c-0.11,4,3.881,5.4,7.634,4.659c3.317-0.655,5.637-3.615,7.043-6.229"/>
	<path style="fill:none;stroke:#000000;stroke-width:3;stroke-linecap:round;stroke-linejoin:round;" d="M53.274,86.983
		c3.56-3.737,7.012-8.603,10.411-14.039c-2.154,0.388-3.527,0.641-4.768,2.376c-0.967,1.352-1.116,3.131-0.648,4.726
		c1.714,5.836,4.314,9.863,2.031,13.305c-0.17,0.256-0.406,0.489-0.65,0.676c-5.716,4.406-9.264,2.84-10.987-3.752
		c13.078,1.919,31.968-2.178,36.004-13.665c-2.985-8.404-19.755,12.644-9.987,17.903c5.899,3.105,18.266-5.537,22.767-18.68
		c-8.822,29.22-17.955,49.26-27.166,43.103c-9.107-7.399,28.408-21.215,43.827-38.756c8.072-6.727,15.619-5.566,13.971,0.517"/>
	<path style="fill:none;stroke:#000000;stroke-width:3;stroke-linecap:round;stroke-linejoin:round;" d="M108.032,86.07
		c-3.829,5.605-3.884,7.772-2.115,10.429c3.123,3.708,9.953-6.568,20.405-13.988c-7.917,14.385-1.397,17.489,14.451,3.601
		c16.193-9.578,31.911-28.387,27.927-32.268c-7.503-6.52-32.392,30.684-29.598,43.437c5.417-9.828,13.908-18.703,20.842-20.57
		c1.51-0.406,3.004,0.508,3.279,2.047c0.937,5.235-5.943,10.36-5.023,13.997c0.336,1.33,1.723,2.027,3.061,1.724
		c2.688-0.608,6.947-3.439,12.509-7.806c6.465-12.336,12.877-23.741,19.211-33.84"/>
	<path style="fill:none;stroke:#000000;stroke-width:3;stroke-linecap:round;stroke-linejoin:round;" d="M176.429,66.252
		c5.081-2.479,13.625-2.956,25.1-1.74"/>
	<path style="fill:none;stroke:#000000;stroke-width:3;stroke-linecap:round;stroke-linejoin:round;" d="M173.771,86.672
		c-3.853,10.314-3.353,16.817,3.199,18.022"/>
	<path style="fill:none;stroke:#000000;stroke-width:3;stroke-linecap:round;stroke-linejoin:round;" d="M184.45,87.715
		c8.829-4.242,12.669-8.426,12.245-11.292c-3.392-6.659-11.835,4.834-12.286,12.029c-0.534,6.546,3.017,7.874,9.459,6.06
		c0.407-0.115,0.799-0.291,1.156-0.518c6.727-4.27,22.131-18.938,20.468-24.532c-2.591-2.939-9.823,4.254-4.138,7.271
		c3.569,1.091,6.137,2.262,6.286,3.626c-7.861,11.383-6.67,14.67-2.536,15.325c2.986,0.484,11.253-7.1,19.236-13.942
		c9.636-7.469,16.706-7.754,15.852-1.026"/>
	<path style="fill:none;stroke:#000000;stroke-width:3;stroke-linecap:round;stroke-linejoin:round;" d="M229.872,85.596
		c-3.795,5.701-4.873,9.365-1.436,11.331c4.99,2.547,18.447-18.72,20.613-13.304c-8.724,9.009-2.737,16.25,4.447,7.811"/>
	
		<line style="fill:none;stroke:#000000;stroke-width:3;stroke-linecap:round;stroke-linejoin:round;" x1="104.795" y1="59.666" x2="99.447" y2="66.252"/>
	
		<line style="fill:none;stroke:#000000;stroke-width:3;stroke-linecap:round;stroke-linejoin:round;" x1="147.641" y1="136.98" x2="147.641" y2="169.557"/>
	
		<line style="fill:none;stroke:#000000;stroke-width:3;stroke-linecap:round;stroke-linejoin:round;" x1="181.05" y1="136.98" x2="181.05" y2="169.557"/>
	<path style="fill:none;stroke:#000000;stroke-width:3;stroke-linecap:round;stroke-linejoin:round;" d="M191.092,149.726
		c-0.004,15.256,0,19.164,6.566,19.197c7.339-0.465,8.594-8.17,8.401-19.197l0,19.197"/>
	<path style="fill:none;stroke:#1D1D1B;stroke-width:3;stroke-linecap:round;stroke-linejoin:round;stroke-miterlimit:10;" d="
		M1.5,71.498c0,0,27.799,8.424,31.74,9.628"/>
	<path style="fill:none;stroke:#1D1D1B;stroke-width:3;stroke-linecap:round;stroke-linejoin:round;stroke-miterlimit:10;" d="
		M1.5,103.402c0,0,28.96-9.477,31.74-10.353"/>
	<path style="fill:none;stroke:#1D1D1B;stroke-width:3;stroke-linecap:round;stroke-linejoin:round;stroke-miterlimit:10;" d="
		M273.743,81.126c4.221-1.315,30.516-9.628,30.516-9.628"/>
	<path style="fill:none;stroke:#1D1D1B;stroke-width:3;stroke-linecap:round;stroke-linejoin:round;stroke-miterlimit:10;" d="
		M273.743,93.048c3.491,1.245,30.516,10.353,30.516,10.353"/>
</g>
<g id="Layer_1">
</g>
</svg>
