<?xml version="1.0" encoding="iso-8859-1"?>
<!-- Generator: Adobe Illustrator 23.0.4, SVG Export Plug-In . SVG Version: 6.00 Build 0)  -->
<svg version="1.1" xmlns="http://www.w3.org/2000/svg" xmlns:xlink="http://www.w3.org/1999/xlink" x="0px" y="0px"
	 viewBox="0 0 306.439 74.09" style="enable-background:new 0 0 306.439 74.09;" xml:space="preserve">
<g id="stamp-8">
	<path style="fill:none;stroke:#000000;stroke-width:3;stroke-linecap:round;stroke-linejoin:round;stroke-miterlimit:10;" d="
		M35.578,2.632c0,0,0,49.889,0,66.519"/>
	<path style="fill:none;stroke:#000000;stroke-width:3;stroke-linecap:round;stroke-linejoin:round;stroke-miterlimit:10;" d="
		M1.5,69.15c0,0,34.078-3.173,68.812,0"/>
	<path style="fill:none;stroke:#000000;stroke-width:3;stroke-linecap:round;stroke-linejoin:round;stroke-miterlimit:10;" d="
		M10.02,42.807c0,0,32.552-2.967,53.411,0"/>
	<path style="fill:none;stroke:#000000;stroke-width:3;stroke-linecap:round;stroke-linejoin:round;stroke-miterlimit:10;" d="
		M66.708,19.999c-14.217,0-54.067,0-54.067,0"/>
	<path style="fill:none;stroke:#000000;stroke-width:3;stroke-linecap:round;stroke-linejoin:round;stroke-miterlimit:10;" d="
		M4.121,33.106c6.168-7.338,10.372-15.659,15.729-30.474"/>
	
		<polyline style="fill:none;stroke:#000000;stroke-width:3;stroke-linecap:round;stroke-linejoin:round;stroke-miterlimit:10;" points="
		92.031,71.626 92.031,8.389 138.598,8.389 138.598,70.937 	"/>
	
		<line style="fill:none;stroke:#000000;stroke-width:3;stroke-linecap:round;stroke-linejoin:round;stroke-miterlimit:10;" x1="92.031" y1="35.891" x2="138.598" y2="35.891"/>
	
		<line style="fill:none;stroke:#000000;stroke-width:3;stroke-linecap:round;stroke-linejoin:round;stroke-miterlimit:10;" x1="92.031" y1="64.324" x2="138.598" y2="64.324"/>
	
		<line style="fill:none;stroke:#000000;stroke-width:3;stroke-linecap:round;stroke-linejoin:round;stroke-miterlimit:10;" x1="169.872" y1="1.5" x2="169.872" y2="72.59"/>
	<path style="fill:none;stroke:#000000;stroke-width:3;stroke-linecap:round;stroke-linejoin:round;stroke-miterlimit:10;" d="
		M162.57,17.068c0.046,7.486-1.286,13.961-3.995,19.426"/>
	<path style="fill:none;stroke:#000000;stroke-width:3;stroke-linecap:round;stroke-linejoin:round;stroke-miterlimit:10;" d="
		M176.294,14.588c1.658,5.937,3.542,10.79,5.786,13.915"/>
	<path style="fill:none;stroke:#000000;stroke-width:3;stroke-linecap:round;stroke-linejoin:round;stroke-miterlimit:10;" d="
		M202.386,1.5c1.24,40.648,1.24,51.389-23.199,69.575"/>
	<path style="fill:none;stroke:#000000;stroke-width:3;stroke-linecap:round;stroke-linejoin:round;stroke-miterlimit:10;" d="
		M184.476,15.966c15.483,1.102,21.113-0.744,34.615-0.077c2.694,0.133,0,18.031,0,24.041"/>
	<path style="fill:none;stroke:#000000;stroke-width:3;stroke-linecap:round;stroke-linejoin:round;stroke-miterlimit:10;" d="
		M229.527,40.007c-10.436-0.077-34.03-0.077-49.322,0"/>
	<path style="fill:none;stroke:#000000;stroke-width:3;stroke-linecap:round;stroke-linejoin:round;stroke-miterlimit:10;" d="
		M202.045,36.494c5.53,16.808,14.048,28.105,25.553,33.892"/>
	<path style="fill:none;stroke:#000000;stroke-width:3;stroke-linecap:round;stroke-linejoin:round;stroke-miterlimit:10;" d="
		M298.28,3.909c-9.457,3.688-41.307,4.48-50.985,5.827c0,0-1.457,18.099-4.37,26.155c-1.397,3.863,39.91-2.785,60.973,0"/>
	<path style="fill:none;stroke:#000000;stroke-width:3;stroke-linecap:round;stroke-linejoin:round;stroke-miterlimit:10;" d="
		M273.412,17.068c0,11.744,0,35.232,0,46.976c0,3.502-2.839,6.342-6.342,6.342c-1.874,0-7.497-1.874-7.497,0"/>
	<path style="fill:none;stroke:#000000;stroke-width:3;stroke-linecap:round;stroke-linejoin:round;stroke-miterlimit:10;" d="
		M253.747,46.153c-4.759,8.325-9.976,14.978-15.816,19.353"/>
	<path style="fill:none;stroke:#000000;stroke-width:3;stroke-linecap:round;stroke-linejoin:round;stroke-miterlimit:10;" d="
		M289.124,46.153c6.418,5.906,11.795,12.307,15.816,19.353"/>
</g>
<g id="Layer_1">
</g>
</svg>
