<?xml version="1.0" encoding="iso-8859-1"?>
<!-- Generator: Adobe Illustrator 23.0.4, SVG Export Plug-In . SVG Version: 6.00 Build 0)  -->
<svg version="1.1" xmlns="http://www.w3.org/2000/svg" xmlns:xlink="http://www.w3.org/1999/xlink" x="0px" y="0px"
	 viewBox="0 0 308.395 174.571" style="enable-background:new 0 0 308.395 174.571;" xml:space="preserve">
<g id="stamp-6">
	<path style="fill:none;stroke:#000000;stroke-width:4.252;stroke-linecap:round;stroke-linejoin:round;stroke-miterlimit:10;" d="
		M2.126,16.75c7.502-0.974,68.613-9.17,68.613-9.17"/>
	<path style="fill:none;stroke:#000000;stroke-width:4.252;stroke-linecap:round;stroke-linejoin:round;stroke-miterlimit:10;" d="
		M34.377,6.316c0.473,4.33,8.221,71.775,8.221,71.775"/>
	<path style="fill:none;stroke:#000000;stroke-width:4.252;stroke-linecap:round;stroke-linejoin:round;stroke-miterlimit:10;" d="
		M70.739,55.326c13.476-5.38,25.243-11.054,32.111-17.571c1.875-1.779,2.029-4.773,0.273-6.67
		c-3.825-4.134-7.221-5.063-10.251-3.268c-19.138,10.151-16.488,47.552-6.145,48.241c6.098,0.138,18.938-9.029,27.69-23.91"/>
	<path style="fill:none;stroke:#000000;stroke-width:4.252;stroke-linecap:round;stroke-linejoin:round;stroke-miterlimit:10;" d="
		M132.88,27.842l7.705,50.25c0,0-1.926-60.074,25.041-48.131"/>
	<path style="fill:none;stroke:#000000;stroke-width:4.252;stroke-linecap:round;stroke-linejoin:round;stroke-miterlimit:10;" d="
		M184.119,20.714c0,14.495,0,57.98,0,57.98"/>
	<path style="fill:none;stroke:#000000;stroke-width:4.252;stroke-linecap:round;stroke-linejoin:round;stroke-miterlimit:10;" d="
		M184.119,2.126c0,1.685,0,5.056,0,6.742"/>
	<path style="fill:none;stroke:#000000;stroke-width:4.252;stroke-linecap:round;stroke-linejoin:round;stroke-miterlimit:10;" d="
		M206.463,16.75l3.467,60.211c0,0,3.848-42.695,12.713-42.956c5.351-0.157,7.873,21.288,8.617,29.141
		c0.048,0.505,0.764,0.549,0.881,0.055c1.896-7.973,7.725-30.352,13.424-30.352c6.935,0,5.586,37.177,10.209,41.222"/>
	<path style="fill:none;stroke:#000000;stroke-width:4.252;stroke-linecap:round;stroke-linejoin:round;stroke-miterlimit:10;" d="
		M298.731,33.813c0.431-9.292-6.549-10.594-13.417,0.821c-15.582,28.434-14.142,34.853-9.698,38.282
		c5.586,1.348,15.643-17.148,23.115-36.406l4.045,39.55"/>
	<path style="fill:none;stroke:#000000;stroke-width:4.252;stroke-linecap:round;stroke-linejoin:round;stroke-miterlimit:10;" d="
		M3.805,149.913c0,0,39.092,0,52.122,0"/>
	<path style="fill:none;stroke:#000000;stroke-width:4.252;stroke-linecap:round;stroke-linejoin:round;stroke-miterlimit:10;" d="
		M254.147,149.913c5.221,0,52.122,0,52.122,0"/>
	<path style="fill:none;stroke:#000000;stroke-width:4.252;stroke-linecap:round;stroke-linejoin:round;stroke-miterlimit:10;" d="
		M80.632,119.78c0,8.682,0,39.499,0,52.665"/>
	<path style="fill:none;stroke:#000000;stroke-width:4.252;stroke-linecap:round;stroke-linejoin:round;stroke-miterlimit:10;" d="
		M80.632,152.356c0,0,20.479-30.34,21.989-32.577"/>
	<path style="fill:none;stroke:#000000;stroke-width:4.252;stroke-linecap:round;stroke-linejoin:round;stroke-miterlimit:10;" d="
		M86.403,143.805c0,0,15.528,25.28,17.575,28.64"/>
	<path style="fill:none;stroke:#000000;stroke-width:4.252;stroke-linecap:round;stroke-linejoin:round;stroke-miterlimit:10;" d="
		M111.308,172.445c1.025-3.838,14.659-52.665,14.659-52.665l14.388,52.665"/>
	<path style="fill:none;stroke:#000000;stroke-width:4.252;stroke-linecap:round;stroke-linejoin:round;stroke-miterlimit:10;" d="
		M116.007,155.562c1.833,0,19.736,0,19.736,0"/>
	<path style="fill:none;stroke:#000000;stroke-width:4.252;stroke-linecap:round;stroke-linejoin:round;stroke-miterlimit:10;" d="
		M171.574,122.175c-12.903-4.819-21.534-1.322-21.534,8.194c0,13.365,17.874,12.105,20.984,27.756
		c0.1,0.504-0.437,4.712-0.628,5.189c-3.029,7.563-12.977,10.157-22.983,5.059"/>
	<path style="fill:none;stroke:#000000;stroke-width:4.252;stroke-linecap:round;stroke-linejoin:round;stroke-miterlimit:10;" d="
		M184.736,119.78c0,13.166,0,39.499,0,52.665"/>
	<path style="fill:none;stroke:#000000;stroke-width:4.252;stroke-linecap:round;stroke-linejoin:round;stroke-miterlimit:10;" d="
		M200.109,119.78c0,13.166,0,39.499,0,52.665"/>
	<path style="fill:none;stroke:#000000;stroke-width:4.252;stroke-linecap:round;stroke-linejoin:round;stroke-miterlimit:10;" d="
		M226.958,119.78c0,13.166,0,39.499,0,52.665"/>
	<path style="fill:none;stroke:#000000;stroke-width:4.252;stroke-linecap:round;stroke-linejoin:round;stroke-miterlimit:10;" d="
		M200.109,146.113c5.265,0,26.848,0,26.848,0"/>
</g>
<g id="Layer_1">
</g>
</svg>
